<svg width="152" height="152" viewBox="0 0 152 152" fill="none" xmlns="http://www.w3.org/2000/svg">
<path d="M137.989 80.4334L151.803 78.3945L152 78.4243L151.829 79.6175L139.668 81.3438L139.663 81.3805L150.828 86.5747L150.67 87.6761L138.521 89.3289L138.515 89.3657L149.669 94.6333L149.503 95.7897L149.306 95.7599L136.652 89.7218L136.832 88.4736L148.546 86.7926L148.551 86.7558L137.806 81.7001L137.989 80.4334Z" fill="#42423D"/>
<path d="M136.242 106.279L135.922 106.148L138.834 98.7085C136.602 97.9311 134.86 98.5944 134.119 100.489C133.512 102.039 133.793 103.414 134.898 104.228L134.501 105.244L134.283 105.154C132.859 103.909 132.484 102.076 133.246 100.13C134.249 97.5636 136.741 96.6288 139.563 97.7892C142.302 98.9151 143.49 101.363 142.486 103.929C141.489 106.477 138.98 107.405 136.242 106.279ZM139.683 99.078L137.19 105.45C139.172 106.165 140.855 105.457 141.595 103.563C142.31 101.737 141.582 100.058 139.683 99.078Z" fill="#42423D"/>
<path d="M128.167 110.259C129.051 108.834 130.454 108.232 132.003 108.538L132.032 108.491L130.276 107.345L130.8 106.5L142.255 113.971L141.672 114.91L138.251 112.679L136.569 111.516L136.54 111.563C137.452 112.861 137.464 114.43 136.609 115.808C135.16 118.141 132.553 118.574 130.034 116.93C127.452 115.247 126.729 112.575 128.167 110.259ZM129.04 110.718C127.884 112.581 128.482 114.555 130.635 115.959C132.697 117.304 134.661 117.045 135.808 115.198C136.916 113.413 136.31 111.347 134.294 110.032C132.216 108.677 130.148 108.934 129.04 110.718Z" fill="#42423D"/>
<path d="M121.089 119.667C122.941 117.683 125.568 117.769 127.818 119.976C129.961 122.08 130.161 124.818 128.295 126.815C127.169 128.022 125.716 128.342 124.282 127.732L124.244 127.773L125.747 129.169L128.675 132.043L127.924 132.848L118.117 123.224L118.793 122.5L120.297 123.976L120.334 123.935C119.688 122.454 119.949 120.886 121.089 119.667ZM121.745 120.413C120.305 121.954 120.518 124.115 122.296 125.86C124.022 127.554 126.099 127.691 127.514 126.177C129.004 124.582 128.806 122.539 127.041 120.807C125.197 118.997 123.209 118.845 121.745 120.413Z" fill="#42423D"/>
<path d="M111.267 134.801L111.066 134.515L117.407 129.824C115.927 127.945 114.109 127.55 112.494 128.745C111.173 129.722 110.693 131.039 111.203 132.332L110.337 132.973L110.199 132.777C109.645 130.945 110.285 129.19 111.943 127.962C114.13 126.344 116.724 126.92 118.503 129.448C120.231 131.9 119.958 134.618 117.771 136.237C115.598 137.845 112.994 137.253 111.267 134.801ZM117.933 130.602L112.502 134.621C113.804 136.311 115.594 136.634 117.209 135.44C118.765 134.289 119.025 132.471 117.933 130.602Z" fill="#42423D"/>
<path d="M103.668 133.099C105.862 131.996 107.681 132.384 108.518 134.133L107.542 134.624C106.937 133.357 105.756 133.123 104.082 133.965C102.441 134.79 101.834 135.799 102.344 136.864C102.862 137.948 103.753 137.996 105.953 137.116C108.243 136.213 109.472 136.464 110.205 137.996C110.946 139.546 110.132 141.216 108.166 142.204C106.102 143.242 104.396 142.881 103.607 141.231L104.582 140.74C105.132 141.89 106.199 142.097 107.727 141.329C109.239 140.57 109.764 139.603 109.262 138.553C108.76 137.504 107.91 137.456 105.807 138.286C103.403 139.246 102.126 138.979 101.377 137.412C100.635 135.863 101.539 134.17 103.668 133.099Z" fill="#42423D"/>
<path d="M100.745 147.684L101.355 149.45L100.331 149.823L99.7209 148.055L100.745 147.684ZM96.8247 136.332L100.002 145.532L98.978 145.904L95.8008 136.703L96.8247 136.332Z" fill="#42423D"/>
<path d="M88.3072 134.152C90.8068 133.623 92.745 134.709 93.1845 136.89L92.1031 137.119C91.7698 135.464 90.416 134.709 88.5013 135.115C86.4803 135.543 85.6395 136.782 86.0205 138.671L86.1671 139.399L86.5204 141.427L86.5736 141.416C86.7983 139.871 87.8886 138.769 89.5195 138.423C92.1787 137.86 94.2548 139.448 94.8665 142.483C95.4599 145.426 94.065 147.768 91.4236 148.327C89.7571 148.681 88.4503 148.066 87.579 146.678L87.5258 146.689L87.9507 148.798L86.9935 149L84.9825 139.024C84.4696 136.48 85.6835 134.708 88.3072 134.152ZM89.6287 139.423C87.6077 139.851 86.579 141.717 87.0626 144.117C87.5314 146.442 89.1656 147.764 91.1688 147.339C93.2784 146.893 94.2582 145.15 93.7674 142.715C93.2619 140.208 91.7028 138.984 89.6287 139.423Z" fill="#42423D"/>
<path d="M80.7008 139.91L80.9213 149.668L79.9441 149.69L79.8962 147.576L79.842 147.577C79.2967 149.093 78.104 149.993 76.4209 150.034C74.1767 150.087 72.8781 148.707 72.8223 146.24L72.6836 140.1L73.7694 140.074L73.9102 146.307C73.95 148.069 74.8957 149.05 76.5245 149.01C78.4971 148.963 79.7834 147.393 79.7302 145.036L79.6149 139.936L80.7008 139.91Z" fill="#42423D"/>
<path d="M62.2107 138.43L58.909 151.929L57.75 151.631L61.0519 138.133L62.2107 138.43Z" fill="#42423D"/>
<path d="M56.067 136.733L52.5224 145.791L51.6151 145.418L52.3833 143.455L52.3329 143.433C51.2495 144.608 49.807 144.954 48.2445 144.312C46.1611 143.455 45.4972 141.663 46.3935 139.373L48.624 133.672L49.6322 134.086L47.3679 139.872C46.7277 141.509 47.2206 142.791 48.7327 143.413C50.564 144.166 52.3499 143.241 53.2057 141.054L55.059 136.318L56.067 136.733Z" fill="#42423D"/>
<path d="M38.4894 137.688L41.1857 139.321L44.1137 134.241C44.9331 132.819 44.758 132.174 43.3865 131.344L42.4669 130.787L42.8997 130.035C42.8997 130.035 43.3289 130.166 43.9369 130.534C45.8228 131.676 46.1446 132.905 45.0305 134.838L42.1209 139.887L43.6328 140.802L43.1355 141.664L41.6237 140.749L40.2979 143.049L39.3627 142.483L40.6886 140.183L37.9922 138.55L38.4894 137.688Z" fill="#42423D"/>
<path d="M30.6016 126.808L30.8178 126.534L36.899 131.574C38.2801 129.617 38.1739 127.715 36.6254 126.432C35.3585 125.382 33.9936 125.253 32.9094 126.096L32.0788 125.408L32.2268 125.22C33.8068 124.191 35.6266 124.363 37.2173 125.682C39.3146 127.42 39.4536 130.136 37.5414 132.56C35.6861 134.911 33.0546 135.355 30.9572 133.617C28.8739 131.891 28.7463 129.16 30.6016 126.808ZM36.3043 132.298L31.0961 127.982C29.8462 129.714 30.012 131.569 31.5604 132.852C33.0525 134.09 34.832 133.87 36.3043 132.298Z" fill="#42423D"/>
<path d="M32.101 121.305L25.0809 127.899L24.4204 127.16L26.1021 125.581L26.0531 125.526C24.5083 126.298 23.1474 126.066 22.0465 124.835C21.8142 124.575 21.6953 124.359 21.6953 124.359L22.416 123.682L22.6973 123.997C24.1771 125.652 26.0821 125.449 28.2174 123.443L31.3671 120.484L32.101 121.305Z" fill="#42423D"/>
<path d="M14.0291 119.286C14.9376 120.627 15.5778 120.759 16.9012 119.817L17.9272 119.086L16.0996 116.389L16.9025 115.817L18.7301 118.515L25.7483 113.52L26.3678 114.434L19.3496 119.429L20.3512 120.908L19.5482 121.479L18.5466 120.001L17.5504 120.71C15.7512 121.99 14.542 121.767 13.2926 119.923C12.8589 119.283 12.6797 118.823 12.6797 118.823L13.3785 118.326L14.0291 119.286Z" fill="#42423D"/>
<path d="M21.1708 105.421C22.0875 107.337 21.7927 108.869 20.33 109.605C18.7046 110.422 17.4702 109.864 16.1024 107.638C14.6706 105.32 14.1232 104.892 13.2293 105.342C12.1566 105.881 11.9535 107.058 12.6949 108.607C13.4282 110.14 14.4683 110.712 15.7035 110.091L16.1898 111.108C14.4507 111.982 12.8296 111.164 11.8252 109.065C10.8208 106.966 11.1987 105.143 12.7915 104.343L17.5049 101.973C18.0413 101.703 18.1565 101.439 17.9413 100.989L17.7341 100.556L18.4979 100.172C18.4979 100.172 18.6746 100.372 18.8897 100.822C19.3202 101.722 19.0969 102.351 18.1218 102.841L17.6017 103.102L17.6256 103.152C19.1487 103.007 20.3976 103.805 21.1708 105.421ZM20.318 105.788C19.3614 103.788 17.5119 103.21 15.4152 104.264L14.6188 104.664L14.6507 104.731C15.3621 104.869 15.956 105.562 16.8997 107.113C17.9155 108.773 18.6897 109.169 19.8112 108.605C20.7863 108.115 20.9637 107.137 20.318 105.788Z" fill="#42423D"/>
<path d="M16.944 94.5761C17.7339 97.2778 16.4327 99.6145 13.5542 100.499C10.6584 101.388 8.18618 100.172 7.38593 97.4344C6.76755 95.3193 7.40962 93.5725 9.16984 92.5476L9.37792 92.4836L9.68451 93.5324C8.36306 94.2482 7.87718 95.5596 8.33966 97.1415C8.97363 99.31 10.8269 100.155 13.2372 99.4144C15.5783 98.6953 16.626 96.9788 16.0077 94.8637C15.5243 93.2108 14.3248 92.3395 12.733 92.5185L12.4264 91.4699L12.6345 91.4059C14.7412 91.243 16.3049 92.3899 16.944 94.5761Z" fill="#42423D"/>
<path d="M9.37273 80.6176L9.71407 80.5742L10.676 88.5291C12.9958 88.1036 14.2076 86.6595 13.9627 84.634C13.7622 82.9766 12.8674 81.9124 11.5159 81.7476L11.3845 80.6612L11.6181 80.6314C13.4521 81.0155 14.6451 82.4345 14.8967 84.5152C15.2286 87.259 13.4886 89.3123 10.4705 89.6957C7.54219 90.0678 5.34782 88.5142 5.01604 85.7706C4.6865 83.0453 6.44443 80.9897 9.37273 80.6176ZM9.75755 88.6271L8.93368 81.814C6.86087 82.1707 5.72326 83.624 5.96819 85.6495C6.20422 87.6015 7.63338 88.71 9.75755 88.6271Z" fill="#42423D"/>
<path d="M14.5231 73.6704C14.3578 76.4114 12.2982 78.0841 9.19047 77.8872C6.22731 77.6995 4.35039 75.7402 4.5168 72.9808C4.61732 71.3139 5.52438 70.1072 7.00444 69.6248L7.00779 69.5692L4.98083 69.4966L0.933594 69.2401L1.0006 68.1289L14.5516 68.9875L14.4913 69.9876L12.4135 69.8559L12.4101 69.9115C13.8368 70.6154 14.6247 71.9852 14.5231 73.6704ZM13.5519 73.5346C13.6803 71.4048 12.1572 69.8955 9.69993 69.7397C7.31495 69.5886 5.64232 70.8584 5.51613 72.951C5.38323 75.155 6.82053 76.5846 9.25971 76.7391C11.8073 76.9004 13.4213 75.7014 13.5519 73.5346Z" fill="#42423D"/>
<path d="M12.4745 55.6439L12.8081 55.7298L10.9063 63.5048C13.2197 63.9654 14.858 63.0666 15.3422 61.0868C15.7385 59.4669 15.2783 58.1437 14.0758 57.4903L14.3356 56.4283L14.5639 56.4869C16.1394 57.5231 16.7529 59.2876 16.2554 61.3214C15.5994 64.0031 13.2541 65.2751 10.3041 64.517C7.44203 63.7816 5.94196 61.5213 6.5979 58.8396C7.24944 56.1759 9.61236 54.9085 12.4745 55.6439ZM10.0152 63.2567L11.6441 56.5974C9.5852 56.1641 8.01278 57.099 7.52854 59.0788C7.06188 60.9866 8.00482 62.5488 10.0152 63.2567Z" fill="#42423D"/>
<path d="M19.347 51.8439C18.3616 54.1362 16.7267 55.0401 14.9873 54.2544L15.4254 53.2357C16.6842 53.8043 17.7338 53.2037 18.4857 51.4549C19.223 49.7399 19.0539 48.5686 17.9937 48.0897C16.917 47.6034 16.2055 48.1539 15.0744 50.279C13.8901 52.4814 12.7928 53.101 11.2688 52.4126C9.72824 51.7167 9.30174 49.9019 10.185 47.8474C11.1121 45.6911 12.6443 44.8421 14.2842 45.5829L13.8463 46.6016C12.7032 46.0853 11.7565 46.631 11.0703 48.227C10.3914 49.8062 10.5969 50.8926 11.6405 51.364C12.6842 51.8354 13.3644 51.3112 14.4518 49.2881C15.6873 46.9668 16.8322 46.3282 18.3894 47.0315C19.9299 47.7274 20.3033 49.6196 19.347 51.8439Z" fill="#42423D"/>
<path d="M12.2807 38.9547L10.7031 38.0075L11.2521 37.0469L12.8297 37.9941L12.2807 38.9547ZM22.4181 45.0414L14.202 40.1083L14.751 39.1477L22.967 44.0808L22.4181 45.0414Z" fill="#42423D"/>
<path d="M30.4112 40.8662C28.8353 42.9244 26.671 43.377 24.962 42.0023L25.6438 41.1119C26.9397 42.1544 28.4493 41.8356 29.6564 40.2591C30.9304 38.595 30.7923 37.0923 29.3112 35.901L28.7415 35.4428L27.1943 34.1276L27.1608 34.1713C27.9618 35.4996 27.8233 37.0629 26.7952 38.4058C25.1188 40.5954 22.5333 40.7564 20.1551 38.8434C17.8482 36.9877 17.4389 34.2762 19.1041 32.1013C20.1545 30.7292 21.5391 30.3333 23.0787 30.8171L23.1122 30.7732L21.4603 29.4444L22.0638 28.6562L29.882 34.945C31.8758 36.5487 32.0651 38.7059 30.4112 40.8662ZM26.0821 37.7143C27.3561 36.0502 26.9665 33.9442 25.0867 32.4322C23.2638 30.966 21.1836 31.0381 19.9208 32.6875C18.5909 34.4245 18.9398 36.4035 20.848 37.9384C22.8133 39.5192 24.7746 39.4221 26.0821 37.7143Z" fill="#42423D"/>
<path d="M32.5193 31.4607L26.2148 24.1465L26.9474 23.4831L28.3138 25.0683L28.3545 25.0314C27.8178 23.5119 28.1634 22.0353 29.425 20.8928C31.1073 19.3694 32.9678 19.5662 34.5619 21.4156L38.5291 26.0184L37.7152 26.7554L33.688 22.0832C32.5493 20.7622 31.2103 20.6378 29.9893 21.7435C28.5105 23.0826 28.515 25.1337 30.0373 26.8996L33.3333 30.7236L32.5193 31.4607Z" fill="#42423D"/>
<path d="M46.8948 5.31658C49.5042 4.16176 51.5955 4.91365 52.6145 7.33261C53.6479 9.78562 52.724 11.8518 50.0981 13.014L46.2923 14.6984L48.438 19.7919L47.3744 20.2626L41.9922 7.48647L46.8948 5.31658ZM49.6321 12.0481C51.6595 11.1507 52.3142 9.70893 51.5176 7.81806C50.7354 5.96127 49.2722 5.43665 47.2612 6.32667L43.472 8.00373L45.876 13.7104L49.6321 12.0481Z" fill="#42423D"/>
<path d="M58.8195 15.6863L56.5742 6.20159L57.5242 5.96533L58.062 8.23733L58.1323 8.21983C58.2189 6.46081 59.0737 5.35079 60.6571 4.95701C60.9913 4.87387 61.2328 4.87109 61.2328 4.87109L61.4633 5.8448L61.0588 5.94544C58.9301 6.47486 58.1846 8.28321 58.8677 11.1683L59.8751 15.4239L58.8195 15.6863Z" fill="#42423D"/>
<path d="M70.6723 13.7173C67.7836 13.9347 65.8184 12.0919 65.5916 8.92749C65.3782 5.94815 67.1448 3.75004 69.9793 3.53672C72.8679 3.31931 74.8345 5.18064 75.0519 8.2155C75.2746 11.3244 73.5428 13.5012 70.6723 13.7173ZM70.6007 12.718C72.8754 12.5468 74.1389 10.9261 73.9506 8.29839C73.773 5.81869 72.309 4.38466 70.0522 4.5545C67.8135 4.72298 66.532 6.34504 66.711 8.84324C66.8979 11.4525 68.362 12.8865 70.6007 12.718Z" fill="#42423D"/>
<path d="M84.8796 5.03389L81.7625 4.72493L81.2084 10.598C81.0534 12.2418 81.4783 12.7499 83.0638 12.9071L84.1269 13.0125L84.045 13.8805C84.045 13.8805 83.6021 13.9484 82.8994 13.8788C80.7193 13.6627 79.9199 12.6887 80.1308 10.4539L80.6813 4.61778L78.9336 4.44454L79.0276 3.44723L80.7754 3.62045L81.0263 0.960938L82.1074 1.06809L81.8565 3.72761L84.9737 4.03658L84.8796 5.03389Z" fill="#42423D"/>
<path d="M91.5953 15.5081C88.7998 14.7316 87.5416 12.3251 88.3513 9.26269C89.1137 6.37933 91.4912 4.90587 94.2344 5.66784C97.03 6.44435 98.2833 8.86871 97.5067 11.8058C96.7114 14.8146 94.3734 16.2798 91.5953 15.5081ZM91.851 14.541C94.0524 15.1526 95.7686 14.0528 96.441 11.5098C97.0755 9.10994 96.158 7.25948 93.974 6.65283C91.8075 6.05102 90.0738 7.14587 89.4346 9.56359C88.767 12.0888 89.6843 13.9393 91.851 14.541Z" fill="#42423D"/>
<path d="M107.078 11.8448L104.232 10.5067L101.832 15.8701C101.161 17.3712 101.4 17.9939 102.848 18.6746L103.819 19.1309L103.464 19.9236C103.464 19.9236 103.024 19.8392 102.382 19.5376C100.391 18.6016 99.9469 17.4131 100.86 15.3724L103.245 10.0426L101.648 9.29237L102.056 8.38159L103.652 9.13184L104.739 6.70312L105.726 7.16719L104.639 9.59591L107.486 10.934L107.078 11.8448Z" fill="#42423D"/>
<path d="M117.299 16.8961L118.192 17.4973L118.057 17.6732L107.435 24.9508C106.171 25.8085 105.348 25.8759 104.349 25.2035C103.925 24.9181 103.738 24.7033 103.738 24.7033L104.255 23.897L104.83 24.2841C105.496 24.7325 105.982 24.6827 106.832 24.1006L108.957 22.645L110.704 12.7213L110.824 12.5352L111.747 13.1567L110.156 21.7877L110.186 21.8081L117.299 16.8961Z" fill="#42423D"/>
<path d="M112.402 30.4593L121.854 20.3398L122.56 21.0328L121.108 22.5875L121.147 22.626C122.605 21.9504 124.134 22.2181 125.337 23.3986C127.26 25.2847 127.151 28.0038 125.085 30.2153C122.97 32.4804 120.285 32.6716 118.35 30.7725C117.199 29.6434 116.833 28.1031 117.443 26.6721L117.404 26.6335L116.054 28.1598L113.187 31.2292L112.402 30.4593ZM118.974 29.9975C120.53 31.5245 122.522 31.2962 124.275 29.4198C125.977 27.5968 126.1 25.56 124.584 24.0715C123.067 22.5831 120.972 22.8136 119.319 24.5829C117.629 26.3923 117.483 28.5347 118.974 29.9975Z" fill="#42423D"/>
<path d="M133.15 29.0753L134.577 27.9023L135.257 28.7705L133.83 29.9436L133.15 29.0753ZM123.988 36.6127L131.415 30.5038L132.095 31.3721L124.668 37.481L123.988 36.6127Z" fill="#42423D"/>
<path d="M126.637 40.0303L134.707 34.8516L135.226 35.7009L133.478 36.8233L133.506 36.8705C135.056 36.5763 136.42 37.1673 137.314 38.6299C138.505 40.5801 138.011 42.4294 135.97 43.7388L130.892 46.9977L130.315 46.054L135.471 42.7459C136.929 41.8106 137.268 40.4769 136.403 39.0614C135.356 37.3471 133.381 37.0161 131.433 38.2665L127.212 40.974L126.637 40.0303Z" fill="#42423D"/>
<path d="M129.278 54.5071C128.347 52.0718 129.062 49.9299 131.085 49.1165L131.488 50.1702C129.954 50.7869 129.458 52.2825 130.172 54.1479C130.926 56.1171 132.26 56.7565 134.013 56.0516L134.686 55.7805L136.577 55.0799L136.557 55.028C135.034 55.0626 133.789 54.148 133.18 52.559C132.189 49.9681 133.364 47.6019 136.177 46.47C138.908 45.3718 141.396 46.3843 142.381 48.958C143.002 50.5815 142.634 52.0057 141.446 53.1209L141.466 53.1728L143.422 52.3865L143.779 53.3192L134.527 57.0404C132.168 57.9895 130.257 57.0636 129.278 54.5071ZM134.124 52.2793C134.877 54.2484 136.846 54.9714 139.071 54.0767C141.228 53.209 142.221 51.3344 141.474 49.3826C140.687 47.3271 138.846 46.6325 136.588 47.5409C134.262 48.4763 133.35 50.2584 134.124 52.2793Z" fill="#42423D"/>
</svg>
