<svg
  class="star star-right"
  viewBox="0 0 27 26"
  xmlns="http://www.w3.org/2000/svg"
>
  <path
    d="M10.6587 2.38353C11.5793 -0.332561 15.4207 -0.33256 16.3413 2.38353L17.4095 5.53541C17.8148 6.73134 18.9256 7.54544 20.188 7.57183L23.5911 7.64295C26.4157 7.70199 27.6002 11.2763 25.3699 13.0106L22.5328 15.2167C21.5588 15.974 21.1478 17.2504 21.4969 18.4338L22.5003 21.8354C23.3071 24.5708 20.2014 26.7828 17.8801 25.1261L15.2428 23.2438C14.2001 22.4997 12.7999 22.4997 11.7572 23.2438L9.11993 25.1261C6.79863 26.7828 3.69286 24.5708 4.49972 21.8354L5.50313 18.4338C5.85219 17.2504 5.44119 15.974 4.46724 15.2167L1.63008 13.0106C-0.600214 11.2763 0.58434 7.70199 3.40893 7.64295L6.81197 7.57183C8.07443 7.54544 9.18523 6.73134 9.59054 5.53541L10.6587 2.38353Z"
  ></path>
</svg>
