<svg width="118" height="127" viewBox="0 0 118 127" fill="none" xmlns="http://www.w3.org/2000/svg">
<path d="M115.1 53.1003C116.4 57.8003 117 62.8004 117 67.9004C117 99.9004 91 125.9 59 125.9C27 125.9 1 99.9004 1 67.9004C1 35.9004 27 9.90039 59 9.90039C81.5 9.90039 101 22.7004 110.7 41.5004" stroke="#383838" stroke-width="2" stroke-miterlimit="10" stroke-linecap="round" stroke-linejoin="round"/>
<path d="M27.8015 109.4C15.2015 99.8997 7.10156 84.8996 7.10156 67.9996C7.10156 39.3996 30.4016 16.0996 59.0016 16.0996C87.6016 16.0996 110.902 39.3996 110.902 67.9996C110.902 96.5996 87.6016 119.9 59.0016 119.9C52.0016 119.9 45.3015 118.5 39.2015 116" stroke="#383838" stroke-width="2" stroke-miterlimit="10" stroke-linecap="round" stroke-linejoin="round"/>
<path d="M42.6016 1H75.4016" stroke="#383838" stroke-width="2" stroke-miterlimit="10" stroke-linecap="round" stroke-linejoin="round"/>
<path d="M59 9.90002V1" stroke="#383838" stroke-width="2" stroke-miterlimit="10" stroke-linecap="round" stroke-linejoin="round"/>
<path d="M27.8008 43.0996L37.3008 52.5996" stroke="#383838" stroke-width="2" stroke-miterlimit="10" stroke-linecap="round" stroke-linejoin="round"/>
<path d="M37.3008 43.0996L27.8008 52.5996" stroke="#383838" stroke-width="2" stroke-miterlimit="10" stroke-linecap="round" stroke-linejoin="round"/>
<path d="M40.3008 43.0996L49.8008 52.5996" stroke="#383838" stroke-width="2" stroke-miterlimit="10" stroke-linecap="round" stroke-linejoin="round"/>
<path d="M49.8008 43.0996L40.3008 52.5996" stroke="#383838" stroke-width="2" stroke-miterlimit="10" stroke-linecap="round" stroke-linejoin="round"/>
<path d="M65.6992 43.0996L75.1992 52.5996" stroke="#383838" stroke-width="2" stroke-miterlimit="10" stroke-linecap="round" stroke-linejoin="round"/>
<path d="M75.1992 43.0996L65.6992 52.5996" stroke="#383838" stroke-width="2" stroke-miterlimit="10" stroke-linecap="round" stroke-linejoin="round"/>
<path d="M78.1992 43.0996L87.6992 52.5996" stroke="#383838" stroke-width="2" stroke-miterlimit="10" stroke-linecap="round" stroke-linejoin="round"/>
<path d="M87.6992 43.0996L78.1992 52.5996" stroke="#383838" stroke-width="2" stroke-miterlimit="10" stroke-linecap="round" stroke-linejoin="round"/>
<path d="M40.8984 56.3008L50.3984 65.8008" stroke="#383838" stroke-width="2" stroke-miterlimit="10" stroke-linecap="round" stroke-linejoin="round"/>
<path d="M50.3984 56.3008L40.8984 65.8008" stroke="#383838" stroke-width="2" stroke-miterlimit="10" stroke-linecap="round" stroke-linejoin="round"/>
<path d="M53.3984 56.3008L62.8984 65.8008" stroke="#383838" stroke-width="2" stroke-miterlimit="10" stroke-linecap="round" stroke-linejoin="round"/>
<path d="M62.8984 56.3008L53.3984 65.8008" stroke="#383838" stroke-width="2" stroke-miterlimit="10" stroke-linecap="round" stroke-linejoin="round"/>
<path d="M54 81.1992L63.5 90.6992" stroke="#383838" stroke-width="2" stroke-miterlimit="10" stroke-linecap="round" stroke-linejoin="round"/>
<path d="M63.5 81.1992L54 90.6992" stroke="#383838" stroke-width="2" stroke-miterlimit="10" stroke-linecap="round" stroke-linejoin="round"/>
<path d="M66.5 81.1992L76 90.6992" stroke="#383838" stroke-width="2" stroke-miterlimit="10" stroke-linecap="round" stroke-linejoin="round"/>
<path d="M76 81.1992L66.5 90.6992" stroke="#383838" stroke-width="2" stroke-miterlimit="10" stroke-linecap="round" stroke-linejoin="round"/>
<path d="M65.6992 68.5996L75.1992 78.0996" stroke="#383838" stroke-width="2" stroke-miterlimit="10" stroke-linecap="round" stroke-linejoin="round"/>
<path d="M75.1992 68.5996L65.6992 78.0996" stroke="#383838" stroke-width="2" stroke-miterlimit="10" stroke-linecap="round" stroke-linejoin="round"/>
<path d="M78.1992 68.5996L87.6992 78.0996" stroke="#383838" stroke-width="2" stroke-miterlimit="10" stroke-linecap="round" stroke-linejoin="round"/>
<path d="M87.6992 68.5996L78.1992 78.0996" stroke="#383838" stroke-width="2" stroke-miterlimit="10" stroke-linecap="round" stroke-linejoin="round"/>
<path d="M27.8008 73.4004V109.4" stroke="#383838" stroke-width="2" stroke-miterlimit="10" stroke-linecap="round" stroke-linejoin="round"/>
<path d="M27.8008 26.5996V33.9996" stroke="#383838" stroke-width="2" stroke-miterlimit="10" stroke-linecap="round" stroke-linejoin="round"/>
<path d="M45.6992 78.0996H8.19922" stroke="#383838" stroke-width="2" stroke-miterlimit="10" stroke-linecap="round" stroke-linejoin="round"/>
<path d="M10.6992 68.5996H32.5992" stroke="#383838" stroke-width="2" stroke-miterlimit="10" stroke-linecap="round" stroke-linejoin="round"/>
<path d="M65.6992 16.5996V35.9996" stroke="#383838" stroke-width="2" stroke-miterlimit="10" stroke-linecap="round" stroke-linejoin="round"/>
<path d="M75.1992 18.6992V30.2992" stroke="#383838" stroke-width="2" stroke-miterlimit="10" stroke-linecap="round" stroke-linejoin="round"/>
<path d="M53.3984 26.5996H78.6984" stroke="#383838" stroke-width="2" stroke-miterlimit="10" stroke-linecap="round" stroke-linejoin="round"/>
<path d="M98.9009 101.1H61.8008" stroke="#383838" stroke-width="2" stroke-miterlimit="10" stroke-linecap="round" stroke-linejoin="round"/>
<path d="M87.6992 87.8008V111.201" stroke="#383838" stroke-width="2" stroke-miterlimit="10" stroke-linecap="round" stroke-linejoin="round"/>
</svg>
