<svg xmlns="http://www.w3.org/2000/svg" width="113" height="72" fill="none" viewBox="0 0 113 72">
  <path stroke="currentColor" stroke-linecap="round" stroke-linejoin="round" stroke-miterlimit="10" stroke-width="2" d="M9.1 51.302c-.1-.6-.1-1.1-.1-1.7M23.1 63.6c-5.5 0-10.3-3.2-12.6-7.8M6.2 28.3c4.6-3.7 10.5-5.9 16.9-5.9 3.1 0 6.1.5 8.9 1.5"/>
  <path stroke="currentColor" stroke-linecap="round" stroke-linejoin="round" stroke-miterlimit="10" stroke-width="2" d="M23.1 70.9c11.764 0 21.3-9.536 21.3-21.3 0-11.763-9.536-21.3-21.3-21.3-11.763 0-21.3 9.537-21.3 21.3 0 11.764 9.537 21.3 21.3 21.3ZM100 39.602c3.9 3.9 5 9.5 3.4 14.4"/>
  <path stroke="currentColor" stroke-linecap="round" stroke-linejoin="round" stroke-miterlimit="10" stroke-width="2" d="M90.1 70.9c11.764 0 21.301-9.536 21.301-21.3 0-11.763-9.537-21.3-21.3-21.3-11.764 0-21.3 9.537-21.3 21.3 0 11.764 9.536 21.3 21.3 21.3ZM51.2 45.5l-22-43.7m29.3 58.402-5.3-10.6M35.902 15.201l-12.8 34.4h25.6M90.3 49.6l-24-47.8m0 0h14.6a6.7 6.7 0 0 1 0 13.4m-44.7-.598h36.1M24.3 1.8h14.9"/>
  <path stroke="currentColor" stroke-linecap="round" stroke-linejoin="round" stroke-miterlimit="10" stroke-width="2" d="M57.7 50.8c-.7 2.4-3.2 3.8-5.6 3.1-2.4-.7-3.8-3.2-3.1-5.6.7-2.4 3.2-3.8 5.6-3.1 2.3.7 3.7 3.2 3.1 5.6ZM55 60.201h7.1M75.4 20 56 45.9"/>
</svg>
