<svg xmlns="http://www.w3.org/2000/svg" width="123" height="128" fill="none" viewBox="0 0 123 128">
  <path stroke="currentColor" stroke-linecap="round" stroke-linejoin="round" stroke-miterlimit="10" stroke-width="2" d="M24 69.3v15.9l87.1-4.7.5-2.3c1-4.8.8-9.8-.5-14.5l-37.9 2.1"/>
  <path stroke="currentColor" stroke-linecap="round" stroke-linejoin="round" stroke-miterlimit="10" stroke-width="2" d="m97.898 81.3.5-2.3c1-4.8.8-9.8-.5-14.5m5.301 16.5.5-2.3c1-4.8.8-9.8-.5-14.5M82.2 82.097l.5-2.3c1-4.8.8-9.8-.5-14.5M87.5 81.8l.5-2.3c1-4.8.8-9.8-.5-14.5m-36.102 40.699c3.8 5.6 4.2 12.8 1 18.8l-1 1.9m3.802-9.602 33.3-12m-11.402-1.098 11.4-4m-49.701 1.899 9.3 10.1m-13.499-14.6 1.2 1.4M18.797 70.5l5.2 5.7m1.3-12.8-1-.4m16.301 7.498-10.7-4.9m2.499-5.601-9.1-4.2M38.798 63l-2.2-1m-31.2-20.9 26.4-9.9m60.599-2.602-49.2 9-17.9-11.1c1.6-4.4 1.8-9.2.6-13.7l-.6-2.4 17.9 11.1 49.2-9 .3.8c1.8 5 1.7 10.4-.3 15.3ZM85.5 21.8l1.4-.3m-15.603 2.898 9.7-1.8M44.598 29.3l20.7-3.8m-25 2.2-9.7-6"/>
  <path stroke="currentColor" stroke-linecap="round" stroke-linejoin="round" stroke-miterlimit="10" stroke-width="2" d="m25.297 10.398 49.2-9 17.9 11.1M99.598 23.7l16.4 4.8m-72.9-7c1.7 4.5 1.9 9.4.6 14.1l-.6 2m74.899 44.298-2.7-2.8M101.199 54.2l9.9 9.5m-68.001-5.102c3.1 6.2 3.1 13.4 0 19.6m3.9-29.701-19.9-9.2M54.598 45l-6-2.8M18.2 57.597l-7.2-3.3c-1.7 2-4.5 7.9-5.1 10.4l-.4 1.6 4-1.5 3.3 5 .3-1.6c.5-2.6 3.3-8.6 5.1-10.6Zm96.3 46.2 3.5-1.3.1-.1c4.2-6.2 4.1-14.4-.1-20.6l-66.6 23.8-19.4-20.8"/>
  <path stroke="currentColor" stroke-linecap="round" stroke-linejoin="round" stroke-miterlimit="10" stroke-width="2" d="M18.8 70.5c1.1 7.1-1.3 14-6.3 14.5l38.9 41.3 47.9-17.1"/>
  <path stroke="currentColor" stroke-linecap="round" stroke-linejoin="round" stroke-miterlimit="10" stroke-width="2" d="m94.797 99.898 15.1-5.3c3.1 4.2 5.1 9.2 5.8 14.3l.5 3.3-7.7-1.2-7.6 6.9-.4-3.2c-.7-5.3-2.6-10.4-5.7-14.8ZM14.298 64.8l28.9 13.4 72.8-30.1c3.5-5.8 3.6-12.9.4-18.8l-.4-.8-72.8 30.1-37.7-17.5.9 3.4c1.4 5.3-.6 11-5 14.3l5.7 2.7"/>
  <path stroke="currentColor" stroke-linecap="round" stroke-linejoin="round" stroke-miterlimit="10" stroke-width="2" d="M61.5 51c3.2 5.9 3.6 12.9 1.2 19.1m15.5-6.402c1.2-2.6 4-10.1.1-19.6m26.899-11.2c3.1 6 3.4 13 .9 19.2M83.898 41.7c3.1 6 3.4 13 .9 19.2M99.5 54.897c1.2-2.6 4-10.1.1-19.6m-43.502 37.5c1.3-2.9 3.7-10.3-.2-19.5"/>
</svg>
