<svg xmlns="http://www.w3.org/2000/svg" width="128" height="105" fill="none" viewBox="0 0 128 105">
  <path stroke="currentColor" stroke-linecap="round" stroke-linejoin="round" stroke-miterlimit="10" stroke-width="2" d="M1.602 21.2h5.1m5.298 0h5.1m5.302 0h5m15.7 0h5.1m-15.499 0h5.1m15.599 0h5.1m5.298 0h5.1m15.6 0h5.1m-15.397 0h5m15.699 0h5.1m5.299 0h5m5.301 0h5.099M14.5 34.998h92.3M14.5 48.299h92.3M14.5 61.6h92.3m.001-26.602v39.9M88.3 34.998v39.9m-18.398-39.9v39.9m-18.5-39.9v39.9M33 34.998v39.9m-18.5-39.9v34.1m9.402 5.8h82.9M19.602 54.6l3 3.8 5.3-6.7m9.898 2.9 3 3.8 5.3-6.7m28.103-10.6 3 3.7 5.3-6.7m-26.003 3 3 3.7 5.3-6.7m27.602 29.798 3 3.7 5.3-6.7M23.901 69.1h-22.3l22.3 22.3V69.1Z"/>
  <path stroke="currentColor" stroke-linecap="round" stroke-linejoin="round" stroke-miterlimit="10" stroke-width="2" d="M1.602 69.099v-67.8h119.1v90.1h-96.8"/>
  <path stroke="currentColor" stroke-linecap="round" stroke-linejoin="round" stroke-miterlimit="10" stroke-width="2" d="M27.203 97.3h99.4V12.6M32.8 103.299h93.801M18.3 14.998a3.8 3.8 0 1 0 0-7.6 3.8 3.8 0 0 0 0 7.6Zm84.703 0a3.8 3.8 0 1 0 0-7.6 3.8 3.8 0 0 0 0 7.6Z"/>
</svg>
