<svg width="127" height="121" viewBox="0 0 127 121" fill="none" xmlns="http://www.w3.org/2000/svg">
<path d="M36.8992 43.0504C46.6746 43.0504 54.5992 35.1258 54.5992 25.3504C54.5992 15.575 46.6746 7.65039 36.8992 7.65039C27.1237 7.65039 19.1992 15.575 19.1992 25.3504C19.1992 35.1258 27.1237 43.0504 36.8992 43.0504Z" stroke="#383838" stroke-width="2" stroke-miterlimit="10" stroke-linecap="round" stroke-linejoin="round"/>
<path d="M18.4011 119.15H55.4011C65.9011 111.95 72.9011 98.7502 72.9011 83.7502C72.9011 75.7502 70.9011 68.2501 67.5011 61.8501C61.9011 51.6501 59.6011 40.0502 61.0011 28.4502C61.2011 26.5502 61.3012 24.6501 61.1012 22.6501C59.9012 11.4501 50.9011 2.45013 39.7011 1.15013C25.0011 -0.449866 12.6012 10.9502 12.6012 25.2502C12.6012 26.4502 12.7011 27.6501 12.9011 28.8501C14.6011 40.2501 11.9011 51.6502 6.40108 61.7502C3.00108 68.0502 1.00106 75.5502 1.00106 83.5502C0.901058 98.7502 7.90108 111.95 18.4011 119.15Z" stroke="#383838" stroke-width="2" stroke-miterlimit="10" stroke-linecap="round" stroke-linejoin="round"/>
<path d="M33.6016 33.4512C34.2016 34.6512 35.5015 35.4512 36.9015 35.4512C38.3015 35.4512 39.6015 34.6512 40.2015 33.4512" stroke="#383838" stroke-width="2" stroke-miterlimit="10" stroke-linecap="round" stroke-linejoin="round"/>
<path d="M32.6001 24.3511C32.2001 23.5511 31.3 22.9512 30.3 22.9512C29.3 22.9512 28.5 23.5511 28 24.3511" stroke="#383838" stroke-width="2" stroke-miterlimit="10" stroke-linecap="round" stroke-linejoin="round"/>
<path d="M45.7992 24.3511C45.3992 23.5511 44.4991 22.9512 43.4991 22.9512C42.4991 22.9512 41.6992 23.5511 41.1992 24.3511" stroke="#383838" stroke-width="2" stroke-miterlimit="10" stroke-linecap="round" stroke-linejoin="round"/>
<path d="M21.6992 16.3516C24.1992 17.5516 26.9991 18.2516 29.9991 18.2516C36.4991 18.2516 42.2992 14.9516 45.5992 9.85156" stroke="#383838" stroke-width="2" stroke-miterlimit="10" stroke-linecap="round" stroke-linejoin="round"/>
<path d="M42.1016 13.8516C44.6016 17.2516 48.6015 19.4516 53.2015 19.4516C53.3015 19.4516 53.5016 19.4516 53.6016 19.4516" stroke="#383838" stroke-width="2" stroke-miterlimit="10" stroke-linecap="round" stroke-linejoin="round"/>
<path d="M48.0005 52.15C44.9005 49.25 40.9005 48.25 36.9005 48.25C32.9005 48.25 28.9005 49.25 25.8005 52.15C22.7005 55.05 21.2005 59.05 21.4005 63.05C25.3005 63.35 29.4005 62.05 32.5005 59.15C34.3005 57.45 35.6005 55.25 36.3005 53.05C36.5005 52.45 37.4006 52.45 37.6006 53.05C38.3006 55.35 39.6005 57.45 41.4005 59.15C44.5005 62.05 48.6005 63.35 52.5005 63.05C52.6005 59.05 51.1005 55.05 48.0005 52.15Z" stroke="#383838" stroke-width="2" stroke-miterlimit="10" stroke-linecap="round" stroke-linejoin="round"/>
<path d="M7.30078 60.0508C8.00078 60.1508 8.80073 60.1508 9.50073 60.1508C10.3007 60.1508 11.0008 60.1508 11.8008 60.0508" stroke="#383838" stroke-width="2" stroke-miterlimit="10" stroke-linecap="round" stroke-linejoin="round"/>
<path d="M62 60.0508C62.8 60.1508 63.5 60.1508 64.3 60.1508C65.1 60.1508 65.8 60.1508 66.5 60.0508" stroke="#383838" stroke-width="2" stroke-miterlimit="10" stroke-linecap="round" stroke-linejoin="round"/>
<path d="M22.3024 57.5508C19.0024 58.9508 15.5023 59.8508 11.9023 60.1508" stroke="#383838" stroke-width="2" stroke-miterlimit="10" stroke-linecap="round" stroke-linejoin="round"/>
<path d="M62.0015 60.0511C58.3015 59.7511 54.8016 58.9512 51.6016 57.4512" stroke="#383838" stroke-width="2" stroke-miterlimit="10" stroke-linecap="round" stroke-linejoin="round"/>
<path d="M50.7008 92.7504C42.9008 100.55 30.2008 100.55 22.4008 92.7504C16.1008 86.4504 16.1008 76.3504 22.4008 70.1504C27.4008 65.1504 35.5008 65.1504 40.5008 70.1504C44.5008 74.1504 44.5008 80.6504 40.5008 84.6504C37.3008 87.8504 32.1008 87.8504 28.9008 84.6504C26.3008 82.0504 26.3008 77.9504 28.9008 75.3504C30.9008 73.3504 34.3008 73.3504 36.3008 75.3504" stroke="#383838" stroke-width="2" stroke-miterlimit="10" stroke-linecap="round" stroke-linejoin="round"/>
<path d="M55.0001 91.0512C54.3001 89.0512 55.4001 86.9512 57.4001 86.3512C59.9001 85.5512 62.5001 86.8512 63.3001 89.3512C64.3001 92.4512 62.7002 95.7512 59.6002 96.7512C55.8002 98.0512 51.6001 95.9512 50.3001 92.1512C48.7001 87.3512 51.3002 82.1512 56.1002 80.5512C57.8002 79.9512 63.5001 79.1512 66.8001 82.2512C67.6001 83.0512 68.5001 83.9512 68.9001 84.6512" stroke="#383838" stroke-width="2" stroke-miterlimit="10" stroke-linecap="round" stroke-linejoin="round"/>
<path d="M37.9016 98.5508C35.6016 101.651 35.6016 105.951 36.0016 107.551C37.0016 111.751 41.3016 114.351 45.5016 113.351C48.9016 112.551 51.0016 109.151 50.2016 105.751C49.6016 103.051 46.8017 101.351 44.1017 102.051C41.9017 102.551 40.6017 104.751 41.1017 106.951C41.5017 108.651 43.3016 109.751 45.0016 109.351" stroke="#383838" stroke-width="2" stroke-miterlimit="10" stroke-linecap="round" stroke-linejoin="round"/>
<path d="M7.60156 107.651C10.1016 109.951 14.0016 110.151 16.6016 107.851C18.9016 105.951 19.1015 102.451 17.2015 100.251C15.6015 98.4505 12.9016 98.2505 11.1016 99.8505C9.70156 101.051 9.50154 103.251 10.7015 104.751" stroke="#383838" stroke-width="2" stroke-miterlimit="10" stroke-linecap="round" stroke-linejoin="round"/>
<path d="M19.1016 88.1499C18.6016 87.2499 17.7016 86.4499 16.6016 86.1499C14.9016 85.6499 13.0016 86.65 12.6016 88.45" stroke="#383838" stroke-width="2" stroke-miterlimit="10" stroke-linecap="round" stroke-linejoin="round"/>
<path d="M57.7009 80.05C56.8009 80.05 55.9009 79.75 55.2009 79.15C54.1009 78.15 54.0009 76.35 55.1009 75.25" stroke="#383838" stroke-width="2" stroke-miterlimit="10" stroke-linecap="round" stroke-linejoin="round"/>
<path d="M2.10156 73.3511C2.70156 72.0511 3.80151 71.0511 5.30151 70.5511C7.20151 69.9511 9.80156 70.8511 9.60156 73.2511" stroke="#383838" stroke-width="2" stroke-miterlimit="10" stroke-linecap="round" stroke-linejoin="round"/>
<path d="M36.3024 108.451C36.6024 109.351 36.5024 110.251 36.1024 111.151C35.4024 112.551 33.7023 113.051 32.4023 112.351" stroke="#383838" stroke-width="2" stroke-miterlimit="10" stroke-linecap="round" stroke-linejoin="round"/>
<path d="M88.2001 119.152H113.8C121 114.152 125.9 105.052 125.9 94.6517C125.9 89.0517 124.5 83.9517 122.1 79.5517C118.3 72.4517 116.6 64.4517 117.6 56.4517C117.8 55.1517 117.8 53.8517 117.6 52.4517C116.8 44.6517 110.5 38.4517 102.8 37.5517C92.7 36.4517 84.1001 44.3517 84.1001 54.2517C84.1001 55.0517 84.2 55.9517 84.3 56.7517C85.5 64.6517 83.6 72.5517 79.8 79.5517C77.4 83.9517 76 89.1517 76 94.6517C76.1 105.052 81.0001 114.152 88.2001 119.152Z" stroke="#383838" stroke-width="2" stroke-miterlimit="10" stroke-linecap="round" stroke-linejoin="round"/>
<path d="M99.1992 59.8516C99.4992 60.3516 100.199 60.6516 100.999 60.6516C101.799 60.6516 102.499 60.3516 102.799 59.8516" stroke="#383838" stroke-width="2" stroke-miterlimit="10" stroke-linecap="round" stroke-linejoin="round"/>
<path d="M108.899 63.7268C114.144 59.4084 114.894 51.6563 110.576 46.4121C106.258 41.1678 98.5054 40.4172 93.2612 44.7356C88.0169 49.054 87.2664 56.806 91.5847 62.0503C95.9031 67.2946 103.655 68.0452 108.899 63.7268Z" stroke="#383838" stroke-width="2" stroke-miterlimit="10" stroke-linecap="round" stroke-linejoin="round"/>
<path d="M111.602 48.0508C109.902 48.8508 107.901 49.3508 105.901 49.3508C101.401 49.3508 97.4016 47.0508 95.1016 43.5508" stroke="#383838" stroke-width="2" stroke-miterlimit="10" stroke-linecap="round" stroke-linejoin="round"/>
<path d="M98.6024 47.1504C97.0024 49.3504 95.0023 50.2504 92.9023 50.4504" stroke="#383838" stroke-width="2" stroke-miterlimit="10" stroke-linecap="round" stroke-linejoin="round"/>
<path d="M108.702 72.7508C106.602 70.7508 103.802 70.0508 101.002 70.0508C98.2015 70.0508 95.5016 70.7508 93.3016 72.7508C91.2016 74.7508 90.1016 77.5508 90.2016 80.2508C92.9016 80.4508 95.7015 79.5508 97.9015 77.5508C99.2015 76.3508 100.002 74.8508 100.502 73.3508C100.602 72.9508 101.302 72.9508 101.402 73.3508C101.902 74.9508 102.802 76.3508 104.002 77.5508C106.102 79.5508 109.002 80.4508 111.702 80.2508C111.902 77.5508 110.802 74.7508 108.702 72.7508Z" stroke="#383838" stroke-width="2" stroke-miterlimit="10" stroke-linecap="round" stroke-linejoin="round"/>
<path d="M80.5 78.252C81 78.252 81.5001 78.3519 82.1001 78.3519C82.6001 78.3519 83.2001 78.352 83.7001 78.252" stroke="#383838" stroke-width="2" stroke-miterlimit="10" stroke-linecap="round" stroke-linejoin="round"/>
<path d="M118.398 78.252C118.898 78.252 119.498 78.3519 119.998 78.3519C120.498 78.3519 120.999 78.352 121.599 78.252" stroke="#383838" stroke-width="2" stroke-miterlimit="10" stroke-linecap="round" stroke-linejoin="round"/>
<path d="M90.8992 76.5508C88.5992 77.5508 86.1992 78.1508 83.6992 78.3508" stroke="#383838" stroke-width="2" stroke-miterlimit="10" stroke-linecap="round" stroke-linejoin="round"/>
<path d="M118.399 78.2512C115.899 78.0512 113.399 77.4512 111.199 76.4512" stroke="#383838" stroke-width="2" stroke-miterlimit="10" stroke-linecap="round" stroke-linejoin="round"/>
<path d="M99.1004 96.5516C98.0004 97.6516 98.1004 99.3516 99.1004 100.352C100.2 101.452 101.9 101.352 102.9 100.352C104 99.2516 103.9 97.5516 102.9 96.5516C101.9 95.4516 100.2 95.4516 99.1004 96.5516Z" stroke="#383838" stroke-width="2" stroke-miterlimit="10" stroke-linecap="round" stroke-linejoin="round"/>
<path d="M93.1024 94.3516C93.7024 94.9516 94.3023 95.4516 95.0023 95.9516C94.2023 95.8516 93.4024 95.7516 92.6024 95.7516C88.9024 95.7516 85.9023 96.9516 85.9023 98.4516C85.9023 99.9516 88.9024 101.152 92.6024 101.152C93.5024 101.152 94.3023 101.052 95.0023 100.952C94.4023 101.452 93.7024 101.952 93.1024 102.552C90.5024 105.152 89.2024 108.152 90.3024 109.152C91.3024 110.152 94.3023 108.952 96.9023 106.352C97.5023 105.752 98.0023 105.152 98.5023 104.452C98.4023 105.252 98.3024 106.052 98.3024 106.852C98.3024 110.552 99.5023 113.552 101.002 113.552C102.502 113.552 103.702 110.552 103.702 106.852C103.702 105.952 103.602 105.152 103.502 104.452C104.002 105.052 104.502 105.752 105.102 106.352C107.702 108.952 110.702 110.252 111.702 109.152C112.702 108.152 111.502 105.152 108.902 102.552C108.302 101.952 107.702 101.452 107.002 100.952C107.802 101.052 108.602 101.152 109.402 101.152C113.102 101.152 116.102 99.9516 116.102 98.4516C116.102 96.9516 113.102 95.7516 109.402 95.7516C108.502 95.7516 107.702 95.8516 107.002 95.9516C107.602 95.4516 108.302 94.9516 108.902 94.3516C111.502 91.7516 112.802 88.7516 111.702 87.7516C110.602 86.7516 107.702 87.9516 105.102 90.5516C104.502 91.1516 104.002 91.7516 103.502 92.4516C103.602 91.6516 103.702 90.8516 103.702 90.0516C103.702 86.3516 102.502 83.3516 101.002 83.3516C99.5023 83.3516 98.3024 86.3516 98.3024 90.0516C98.3024 90.9516 98.4023 91.7516 98.5023 92.4516C98.0023 91.8516 97.5023 91.1516 96.9023 90.5516C94.3023 87.9516 91.3024 86.6516 90.3024 87.7516C89.3024 88.7516 90.5024 91.7516 93.1024 94.3516Z" stroke="#383838" stroke-width="2" stroke-miterlimit="10" stroke-linecap="round" stroke-linejoin="round"/>
</svg>
