<svg xmlns="http://www.w3.org/2000/svg" width="127" height="104" fill="none" viewBox="0 0 127 104">
  <path stroke="currentColor" stroke-linecap="round" stroke-linejoin="round" stroke-miterlimit="10" stroke-width="2" d="M89.5 83H10.8V12.3h105.401V83h-13.8"/>
  <path stroke="currentColor" stroke-linecap="round" stroke-linejoin="round" stroke-miterlimit="10" stroke-width="2" d="M89.5 93.701H1v-92.1h125v92.1h-23.6m13.799-81.399 9.8-10.7M116.199 83l9.8 10.7M10.8 83 1 93.7m9.8-81.398L1 1.602"/>
  <path stroke="currentColor" stroke-linecap="round" stroke-linejoin="round" stroke-miterlimit="10" stroke-width="2" d="M84.8 31.703c-5.2-3.7-12.7-6-21-6s-15.8 2.3-21 6m10.4 2.102h21.2m1.998 9.797h13.2m-54.298 0h34.8M35.3 51h17.4m6.402 0h6.7m6.8 0h7.2m20.5 14.3c0 2.6-2.1 4.7-4.7 4.7m.296-19c7.9 0 14.3 6.4 14.3 14.3"/>
  <path stroke="currentColor" stroke-linecap="round" stroke-linejoin="round" stroke-miterlimit="10" stroke-width="2" d="M105.102 67.528A9.3 9.3 0 1 0 87 63.254a9.3 9.3 0 0 0 18.102 4.274Z"/>
  <path stroke="currentColor" stroke-linecap="round" stroke-linejoin="round" stroke-miterlimit="10" stroke-width="2" d="M102.4 72v30.2L96 97.7l-6.5 4.6V72m8.102 6.5v3.3m0-1.198v1.2m0 4.401v6.9M35.3 58.902h9.5m7.9 0h22.9m-40.3 8.2h37.1M16.5 88.3h18.8m6.598 0h4.9m29.6-81.398h21.2m5.504 0h6.899m11.101 18.801v44.7M5.898 25.703v6m0 7.199v20m0 7.301v11M22.602 17.5l-6 6.1"/>
  <circle cx="23.602" cy="24.5" r="1" fill="#000"/>
  <path stroke="currentColor" stroke-linecap="round" stroke-linejoin="round" stroke-miterlimit="10" stroke-width="2" d="m104.602 17.5 6 6.1"/>
  <circle cx="103.602" cy="24.5" r="1" fill="#000"/>
  <path stroke="currentColor" stroke-linecap="round" stroke-linejoin="round" stroke-miterlimit="10" stroke-width="2" d="M89.401 78c-4.6-2.4-7.8-7.2-7.8-12.7 0-7.9 6.4-14.3 14.3-14.3m12.097 22.402c-1.4 2.1-3.3 3.8-5.6 5.1"/>
</svg>
