<svg xmlns="http://www.w3.org/2000/svg" width="124" height="93" fill="none" viewBox="0 0 124 93">
  <path stroke="currentColor" stroke-linecap="round" stroke-linejoin="round" stroke-miterlimit="10" stroke-width="2" d="M39.2 81.8h-5.5m5.5 7.4h-5.5m10.036-41.595c1.067-6.428-3.28-12.505-9.709-13.572-6.428-1.067-12.505 3.28-13.572 9.71-1.067 6.428 3.28 12.505 9.71 13.572 6.428 1.066 12.505-3.28 13.572-9.71ZM98.198 49.4a3.8 3.8 0 1 0 0-7.599 3.8 3.8 0 0 0 0 7.6Z"/>
  <path stroke="currentColor" stroke-linecap="round" stroke-linejoin="round" stroke-miterlimit="10" stroke-width="2" d="M32.1 49.4a3.8 3.8 0 1 0 0-7.6 3.8 3.8 0 0 0 0 7.6Zm77.726-1.919c1.04-6.434-3.332-12.492-9.766-13.532-6.434-1.04-12.492 3.332-13.532 9.765-1.04 6.434 3.332 12.492 9.765 13.533 6.434 1.04 12.493-3.333 13.533-9.766ZM80.9 46.8H49.3"/>
  <path stroke="currentColor" stroke-linecap="round" stroke-linejoin="round" stroke-miterlimit="10" stroke-width="2" d="M14.9 46.8H9.5c-1.9 0-3.8-.7-5.3-2-2.4-2.1-3.4-5.3-2.6-8.4l1.9-7.1c.7-2.6 2.7-4.8 5.2-5.8L52.9 6.1c8-3.1 16.6-4.6 25.2-4.2l38.799 2.7-5.6 4.3 10.2 13.6c.7 1 1.1 2.2 1.1 3.4v9.9c0 1.1-.3 2.2-.9 3.1l-1.7 2.6c-.6 1-1.7 1.6-2.9 1.6h-3"/>
  <path stroke="currentColor" stroke-linecap="round" stroke-linejoin="round" stroke-miterlimit="10" stroke-width="2" d="m19.498 24.598 3.3.6c.7.1.9 1 .4 1.4l-6.5 5.8c-1.1.9-2.5 1.5-3.9 1.5h-4.9m95.5-30-7.1 11.4c-1 1.3-2.5 2.1-4.1 2.3l-38 3.4c-6.1.5-12.1-.4-17.8-2.6M85.5 2.598v15.6M67.8 25l-4 5.3h7.6L66 40m3-37.7-3.2 17.6m44.199-4.9-2.3 4.9 8.7 4.7m.399 24.9v10.8c0 2.6-2.1 4.8-4.8 4.8h-26.5c-2.4 0-4.4 2-4.4 4.4 0 2.4 2 4.4 4.4 4.4h13.7c3.2 0 5.8 2.6 5.8 5.8 0 3.2-2.6 5.8-5.8 5.8h-44.8M39.2 91.598h8.9c1.4 0 2.6-1.2 2.6-2.6v-7c0-1.4-1.2-2.6-2.6-2.6h-8.9v12.2Z"/>
  <path stroke="currentColor" stroke-linecap="round" stroke-linejoin="round" stroke-miterlimit="10" stroke-width="2" d="M50.7 82.5h3.7v6h-3.7"/>
</svg>
