<svg xmlns="http://www.w3.org/2000/svg" width="127" height="111" fill="none" viewBox="0 0 127 111">
  <circle cx="58.699" cy="73.887" r="1" fill="#000"/>
  <circle cx="68.5" cy="69.988" r="1" fill="#000"/>
  <circle cx="64.301" cy="73.289" r="1" fill="#000"/>
  <circle cx="68.5" cy="78.887" r="1" fill="#000"/>
  <circle cx="26.199" cy="76.988" r="1" fill="#000"/>
  <circle cx="62" cy="65.188" r="1" fill="#000"/>
  <circle cx="61.102" cy="80.086" r="1" fill="#000"/>
  <circle cx="98.102" cy="28.988" r="1" fill="#000"/>
  <path stroke="currentColor" stroke-linecap="round" stroke-linejoin="round" stroke-miterlimit="10" stroke-width="2" d="m109.2 14.586-1.2 1.2m-3.698 3.698-1.2 1.2m6.098 0-1.2-1.2m-3.698-3.698-1.2-1.2M18.2 77.188l-1.2 1.3m-3.7 3.7-1.3 1.2m6.2 0-1.2-1.2m-3.7-3.701-1.3-1.3m54.498-28.8c9.2 3.7 12.8 23.9 12.8 28.4 0 8.7-7.1 15.7-15.7 15.7-8.7 0-15.7-7.1-15.7-15.7 0-4.5 3.5-24.7 12.8-28.4"/>
  <path stroke="currentColor" stroke-linecap="round" stroke-linejoin="round" stroke-miterlimit="10" stroke-width="2" d="M73.498 80.788c-1.6 4-5.4 6.8-9.9 6.8-5.9 0-10.7-4.8-10.7-10.7 0-4.8 3.4-17.8 7.7-22.4m5.902-.101c3.9 3.9 6.9 14.5 7.6 20.3m-7.6-55.601v35.3m-5.898 0v-35.3m8.9 72.602c-.6 2.3-1.1 5.5-1.1 9.2 0 3.5.5 6.5 1.1 8.7h-11.9c.6-2.1 1.2-5.1 1.3-8.7 0-3.8-.6-7-1.3-9.2m-9.104-20.801c-7.6.2-11.1 2.6-12.9 4.7-2 2.4-1.9 4.5-4.3 8.3-2.4 3.8-5.3 6.3-7.4 7.7 2.1.6 5.5 1.1 9.4.2 10.5-2.7 14.2-14.1 14.5-15m.404-3.799-10.1 9.3m-2.602 2.9-1.7 1.5m-24.7-25.9c-3.8-4.2-6.8-10.8-8.1-20.6 1.8-1.2 12.8-8.7 24.8-4.9 2.1.6 8.8 2.7 12.8 8.7 3.4 5.1 3.2 10.4 8.5 14.3 1.6 1.2 3.2 1.9 4.3 2.2m-2 6.302s-1.5-3.8-8.5-1.6c-3.9 1.2-14.1 4.6-23.4 1.3"/>
  <path stroke="currentColor" stroke-linecap="round" stroke-linejoin="round" stroke-miterlimit="10" stroke-width="2" d="M7.898 44.887c.4 2.6 1.9 9.6 7.7 13.6 5.6 3.8 12.7 3.2 14.9 3 5.4-.5 7.9-2.4 12.9-1.3 2.8.6 5 1.8 6.4 2.7"/>
  <path stroke="currentColor" stroke-linecap="round" stroke-linejoin="round" stroke-miterlimit="10" stroke-width="2" d="M12.602 44.387s3.2 12.7 15 12.8M27.7 42.29s5.1 1.899 7 6.199m-16.599-9.102s-1 3.6 1.4 5m58.999 26.5c7.6.2 11.1 2.6 12.9 4.7 2 2.4 1.9 4.5 4.3 8.3 2.4 3.8 5.3 6.3 7.4 7.7-2.1.6-5.5 1.1-9.4.2-10.5-2.7-14.2-14.1-14.5-15m-.302-3.799 10 9.3m2.704 2.9 1.6 1.5m21.2-51.801c-3.9-.9-8.5-1.2-13.2.3-2.1.6-8.8 2.7-12.8 8.7-3.4 5.1-3.2 10.4-8.5 14.3-1.6 1.2-3.2 1.9-4.3 2.2m2 6.4s1.5-3.8 8.5-1.6c7 2.2 35 11.6 39.9-25.1-.8-.5-3.3-2.3-6.9-3.7"/>
  <path stroke="currentColor" stroke-linecap="round" stroke-linejoin="round" stroke-miterlimit="10" stroke-width="2" d="M119.099 44.887c-.4 2.6-1.9 9.6-7.7 13.6-5.6 3.8-12.7 3.2-14.9 3-5.4-.5-7.9-2.4-12.9-1.3-2.8.6-5 1.8-6.4 2.7"/>
  <path stroke="currentColor" stroke-linecap="round" stroke-linejoin="round" stroke-miterlimit="10" stroke-width="2" d="M114.398 44.387s-3.2 12.7-15 12.8m0-14.897s-5.1 1.899-7 6.199m16.604-9.102s1 3.6-1.4 5M63.501 3.888c-6.4-3.9-12.9-3.7-18.8-.3-8.1 4.7-11.7 16.2-7 26.5 5 9 10.1 18 15.1 27m38.499-39.4c.5 4 0 8.3-1.9 12.4-5 9-10.1 18-15.1 27"/>
  <path stroke="currentColor" stroke-linecap="round" stroke-linejoin="round" stroke-miterlimit="10" stroke-width="2" d="M63.5 3.888c6.4-3.9 12.9-3.7 18.8-.3 2.4 1.4 4.4 3.3 5.9 5.6m-24.598 4.999c.1-.4.2-.7.4-1 .7-1.3 2.1-2.3 3.7-2.3 2.3 0 4.1 1.8 4.1 4.1s-3 4.1-5.3 4.1m-5.904 0c-2.3 0-5.2-1.8-5.2-4.1s1.8-4.1 4.1-4.1c2 0 3.6 1.4 4 3.3M70.2 50.988s8.1-13.9 8.7-22m-.1-9.4c.3.5.5 1.1.7 1.8.4 2-.2 3.6-.6 4.3-2.3-1.7-3-3.3-3.3-4.5-.2-.9-.3-1.5 1.1-7.2.4 0 3.1.3 4.8 2.7 2 2.8.9 5.9.8 6.1m-25.498 28.2s-8.1-13.9-8.7-22m.199-9.4c-.3.5-.5 1.1-.7 1.8-.4 2 .2 3.6.6 4.3 2.3-1.7 3-3.3 3.3-4.5.2-.9.3-1.5-1.1-7.2-.4 0-3.1.3-4.8 2.7-2 2.8-.9 5.9-.8 6.1"/>
</svg>
