<svg width="109" height="109" viewBox="0 0 109 109" fill="none" xmlns="http://www.w3.org/2000/svg">
<g clip-path="url(#clip0_5219_373)">
<path d="M78.4727 34.6948V45.2219C78.4727 45.4476 78.5623 45.6641 78.7219 45.8237C78.8815 45.9833 79.098 46.073 79.3237 46.073C79.5494 46.073 79.7658 45.9833 79.9254 45.8237C80.085 45.6641 80.1747 45.4476 80.1747 45.2219V34.6948C80.1747 34.4691 80.085 34.2526 79.9254 34.093C79.7658 33.9334 79.5494 33.8438 79.3237 33.8438C79.098 33.8438 78.8815 33.9334 78.7219 34.093C78.5623 34.2526 78.4727 34.4691 78.4727 34.6948Z" fill="#383838"/>
<path d="M93.6992 34.6948V45.2219C93.6992 45.4476 93.7889 45.6641 93.9485 45.8237C94.1081 45.9833 94.3245 46.073 94.5502 46.073C94.7759 46.073 94.9924 45.9833 95.152 45.8237C95.3116 45.6641 95.4013 45.4476 95.4013 45.2219V34.6948C95.4013 34.4691 95.3116 34.2526 95.152 34.093C94.9924 33.9334 94.7759 33.8438 94.5502 33.8438C94.3245 33.8438 94.1081 33.9334 93.9485 34.093C93.7889 34.2526 93.6992 34.4691 93.6992 34.6948Z" fill="#383838"/>
<path d="M90.1435 29.1387V18.603C90.1435 18.3773 90.0538 18.1608 89.8942 18.0012C89.7346 17.8416 89.5181 17.752 89.2924 17.752C89.0667 17.752 88.8503 17.8416 88.6907 18.0012C88.5311 18.1608 88.4414 18.3773 88.4414 18.603V29.1387C88.4414 29.3644 88.5311 29.5808 88.6907 29.7404C88.8503 29.9 89.0667 29.9897 89.2924 29.9897C89.5181 29.9897 89.7346 29.9 89.8942 29.7404C90.0538 29.5808 90.1435 29.3644 90.1435 29.1387Z" fill="#383838"/>
<path d="M74.7528 18.603C74.7528 18.3773 74.6632 18.1608 74.5036 18.0012C74.344 17.8416 74.1275 17.752 73.9018 17.752C73.6761 17.752 73.4596 17.8416 73.3 18.0012C73.1404 18.1608 73.0508 18.3773 73.0508 18.603V29.1387C73.0508 29.3644 73.1404 29.5808 73.3 29.7404C73.4596 29.9 73.6761 29.9897 73.9018 29.9897C74.1275 29.9897 74.344 29.9 74.5036 29.7404C74.6632 29.5808 74.7528 29.3644 74.7528 29.1387V18.603Z" fill="#383838"/>
<path d="M69.1435 29.1387V18.603C69.1435 18.3773 69.0538 18.1608 68.8942 18.0012C68.7346 17.8416 68.5181 17.752 68.2924 17.752C68.0667 17.752 67.8503 17.8416 67.6907 18.0012C67.5311 18.1608 67.4414 18.3773 67.4414 18.603V29.1387C67.4414 29.3644 67.5311 29.5808 67.6907 29.7404C67.8503 29.9 68.0667 29.9897 68.2924 29.9897C68.5181 29.9897 68.7346 29.9 68.8942 29.7404C69.0538 29.5808 69.1435 29.3644 69.1435 29.1387Z" fill="#383838"/>
<path d="M99.4838 46.073C99.7095 46.073 99.926 45.9833 100.086 45.8237C100.245 45.6641 100.335 45.4476 100.335 45.2219V34.6948C100.335 34.4691 100.245 34.2526 100.086 34.093C99.926 33.9334 99.7095 33.8438 99.4838 33.8438C99.2581 33.8438 99.0417 33.9334 98.8821 34.093C98.7225 34.2526 98.6328 34.4691 98.6328 34.6948V45.2219C98.6328 45.4476 98.7225 45.6641 98.8821 45.8237C99.0417 45.9833 99.2581 46.073 99.4838 46.073Z" fill="#383838"/>
<path d="M86.8053 33.8438C85.8603 33.855 84.9582 34.24 84.2963 34.9146C83.6345 35.5892 83.2667 36.4985 83.2735 37.4436V42.5497C83.2868 43.4815 83.6634 44.3712 84.3231 45.0294C84.9828 45.6875 85.8735 46.062 86.8053 46.073H86.9925C87.9361 46.0798 88.8441 45.7132 89.5185 45.0532C90.1929 44.3932 90.5789 43.4933 90.5923 42.5497V37.4436C90.5901 36.4986 90.2137 35.5929 89.5455 34.9247C88.8772 34.2564 87.9716 33.88 87.0266 33.8778L86.8053 33.8438ZM88.8903 37.4436V42.5497C88.8903 43.044 88.6939 43.5181 88.3444 43.8676C87.9949 44.2171 87.5208 44.4135 87.0266 44.4135H86.8053C86.3176 44.4024 85.8535 44.2014 85.5118 43.8533C85.1701 43.5052 84.9777 43.0375 84.9756 42.5497V37.4436C84.9687 36.9499 85.1571 36.4735 85.4998 36.1181C85.8425 35.7627 86.3117 35.557 86.8053 35.5458H86.9925C87.243 35.5412 87.4919 35.5871 87.7242 35.6808C87.9565 35.7746 88.1676 35.9142 88.3447 36.0914C88.5219 36.2685 88.6615 36.4796 88.7552 36.7119C88.849 36.9442 88.8949 37.1931 88.8903 37.4436V37.4436Z" fill="#383838"/>
<path d="M67.4414 42.5508C67.4437 43.4959 67.8201 44.4015 68.4883 45.0698C69.1565 45.738 70.0622 46.1144 71.0072 46.1166H71.1859C71.6542 46.1166 72.1179 46.0244 72.5505 45.8452C72.9831 45.666 73.3762 45.4034 73.7073 45.0722C74.0384 44.7411 74.3011 44.348 74.4803 43.9154C74.6595 43.4828 74.7517 43.0191 74.7517 42.5508V37.4447C74.7517 36.499 74.376 35.592 73.7073 34.9233C73.0386 34.2546 72.1316 33.8789 71.1859 33.8789H71.0072C70.0622 33.8812 69.1565 34.2576 68.4883 34.9258C67.8201 35.594 67.4437 36.4997 67.4414 37.4447V42.5508ZM69.1435 37.4447C69.1435 36.9504 69.3398 36.4763 69.6893 36.1268C70.0388 35.7773 70.5129 35.581 71.0072 35.581H71.1859C71.6802 35.581 72.1543 35.7773 72.5038 36.1268C72.8533 36.4763 73.0497 36.9504 73.0497 37.4447V42.5508C73.0497 43.0451 72.8533 43.5192 72.5038 43.8687C72.1543 44.2182 71.6802 44.4146 71.1859 44.4146H71.0072C70.7624 44.4146 70.5201 44.3664 70.294 44.2727C70.0679 44.1791 69.8624 44.0418 69.6893 43.8687C69.5163 43.6956 69.379 43.4902 69.2853 43.2641C69.1917 43.0379 69.1435 42.7956 69.1435 42.5508V37.4447Z" fill="#383838"/>
<path d="M96.5892 17.752C95.6442 17.7542 94.7385 18.1306 94.0703 18.7988C93.4021 19.4671 93.0257 20.3727 93.0234 21.3177V26.4239C93.0257 27.3689 93.4021 28.2746 94.0703 28.9428C94.7385 29.611 95.6442 29.9874 96.5892 29.9897H96.7679C97.713 29.9874 98.6186 29.611 99.2869 28.9428C99.9551 28.2746 100.331 27.3689 100.334 26.4239V21.3177C100.331 20.3727 99.9551 19.4671 99.2869 18.7988C98.6186 18.1306 97.713 17.7542 96.7679 17.752H96.5892ZM98.6317 21.3177V26.4239C98.6295 26.9175 98.4324 27.3902 98.0833 27.7393C97.7343 28.0883 97.2616 28.2854 96.7679 28.2876H96.5892C96.0956 28.2854 95.6229 28.0883 95.2738 27.7393C94.9248 27.3902 94.7277 26.9175 94.7255 26.4239V21.3177C94.7277 20.8241 94.9248 20.3514 95.2738 20.0024C95.6229 19.6533 96.0956 19.4562 96.5892 19.454H96.7679C97.2616 19.4562 97.7343 19.6533 98.0833 20.0024C98.4324 20.3514 98.6295 20.8241 98.6317 21.3177V21.3177Z" fill="#383838"/>
<path d="M82.0205 17.752H81.8332C80.8927 17.7609 79.9935 18.1403 79.3308 18.8078C78.6681 19.4753 78.2952 20.3772 78.293 21.3178V26.4239C78.2952 27.3689 78.6716 28.2746 79.3398 28.9428C80.0081 29.6111 80.9137 29.9875 81.8588 29.9897H82.046C82.991 29.9875 83.8967 29.6111 84.5649 28.9428C85.2331 28.2746 85.6095 27.3689 85.6118 26.4239V21.3178C85.6107 20.8477 85.5168 20.3824 85.3356 19.9486C85.1544 19.5148 84.8895 19.1211 84.5559 18.7898C84.2223 18.4586 83.8266 18.1965 83.3915 18.0184C82.9565 17.8403 82.4906 17.7498 82.0205 17.752V17.752ZM83.8842 26.4239C83.882 26.9175 83.6849 27.3903 83.3358 27.7393C82.9868 28.0884 82.5141 28.2854 82.0205 28.2877H81.8332C81.3441 28.2788 80.8778 28.0788 80.5343 27.7305C80.1907 27.3821 79.9972 26.9132 79.995 26.4239V21.3178C79.9973 20.8242 80.1943 20.3514 80.5434 20.0024C80.8924 19.6534 81.3652 19.4563 81.8588 19.454H82.046C82.5396 19.4563 83.0123 19.6534 83.3614 20.0024C83.7104 20.3514 83.9075 20.8242 83.9097 21.3178L83.8842 26.4239Z" fill="#383838"/>
<path d="M99.1604 51.9106C99.2654 51.9553 99.3782 51.9784 99.4923 51.9787C99.6035 51.9773 99.7134 51.9542 99.8157 51.9106C100.02 51.8191 100.184 51.6555 100.275 51.451C100.334 51.3087 100.352 51.1532 100.329 51.0012C100.306 50.8491 100.242 50.7061 100.145 50.5874C100.047 50.4686 99.9188 50.3786 99.774 50.3269C99.6291 50.2752 99.473 50.2637 99.3221 50.2936H99.1604C99.1095 50.3172 99.061 50.3457 99.0157 50.3787C98.9692 50.4074 98.9263 50.4417 98.8881 50.4808C98.7296 50.6403 98.6406 50.856 98.6406 51.0808C98.6406 51.3057 98.7296 51.5213 98.8881 51.6808C98.9588 51.7784 99.0523 51.8573 99.1604 51.9106V51.9106Z" fill="#383838"/>
<path d="M98.888 13.4196C99.0474 13.5781 99.2631 13.6671 99.4879 13.6671C99.7128 13.6671 99.9285 13.5781 100.088 13.4196C100.168 13.3408 100.232 13.2468 100.276 13.1431C100.32 13.0394 100.343 12.928 100.343 12.8154C100.342 12.7042 100.319 12.5943 100.275 12.492C100.236 12.3847 100.172 12.2883 100.088 12.2112C99.9888 12.1131 99.8672 12.0408 99.7336 12.0007C99.6001 11.9607 99.4587 11.954 99.322 11.9814L99.1603 12.024L99.0156 12.1091L98.888 12.2112C98.8074 12.2914 98.7438 12.3868 98.7008 12.492C98.6366 12.6478 98.6202 12.8191 98.6535 12.9843C98.6869 13.1494 98.7685 13.3009 98.888 13.4196V13.4196Z" fill="#383838"/>
<path d="M75.1264 13.4098C75.2086 13.3343 75.2726 13.2412 75.3137 13.1375C75.3778 12.9817 75.3942 12.8104 75.3609 12.6453C75.3275 12.4801 75.2459 12.3286 75.1264 12.2099C75.0895 12.1693 75.0464 12.1348 74.9988 12.1077C74.9535 12.0747 74.905 12.0462 74.8541 12.0226L74.7009 11.9801C74.5889 11.9546 74.4725 11.9546 74.3605 11.9801L74.2073 12.0226L74.0541 12.1077L73.9265 12.2099C73.771 12.373 73.6828 12.5888 73.6797 12.8141C73.6806 13.0374 73.7693 13.2513 73.9265 13.4098C74.046 13.5392 74.2026 13.6283 74.3748 13.6648C74.5471 13.7014 74.7264 13.6837 74.8881 13.6141C74.9813 13.5638 75.0625 13.4941 75.1264 13.4098V13.4098Z" fill="#383838"/>
<path d="M98.8876 8.32254C99.0063 8.44206 99.1579 8.52365 99.323 8.55698C99.4881 8.59031 99.6595 8.57388 99.8152 8.50977C100.02 8.41833 100.183 8.25471 100.275 8.05022C100.32 7.94527 100.343 7.8324 100.343 7.71832C100.34 7.49384 100.248 7.27973 100.088 7.1226C99.9893 7.02298 99.868 6.94912 99.7344 6.90756C99.6008 6.866 99.4591 6.85801 99.3216 6.88431L99.1599 6.93537L99.0153 7.01197L98.8876 7.1226C98.7304 7.28111 98.6418 7.49506 98.6408 7.71832C98.6383 7.83182 98.6586 7.94466 98.7004 8.05022C98.7444 8.15235 98.808 8.24487 98.8876 8.32254V8.32254Z" fill="#383838"/>
<path d="M1.27681 102.974H35.6156C35.8413 102.974 36.0578 102.884 36.2174 102.724C36.377 102.565 36.4667 102.348 36.4667 102.122C36.4667 101.897 36.377 101.68 36.2174 101.521C36.0578 101.361 35.8413 101.271 35.6156 101.271H30.3733L30.5776 68.6432L39.8367 61.6988L42.6281 66.439C42.6632 66.4984 42.7061 66.5528 42.7557 66.6007V66.6007C42.8321 66.6673 42.9182 66.7218 43.011 66.7624L44.6195 67.4007V95.9015H36.3645C36.2008 95.9018 36.0407 95.9494 35.9033 96.0385C35.766 96.1275 35.6572 96.2543 35.5901 96.4036C35.5219 96.5517 35.4977 96.7162 35.5204 96.8776C35.543 97.0391 35.6115 97.1906 35.7178 97.3142C35.922 97.544 40.6622 102.939 45.079 102.939H99.9275C104.106 102.939 108.191 97.4929 108.361 97.2631C108.456 97.1367 108.514 96.9864 108.528 96.829C108.542 96.6715 108.512 96.5133 108.442 96.3719C108.371 96.2306 108.262 96.1117 108.128 96.0286C107.993 95.9455 107.838 95.9015 107.68 95.9015H100.362V90.523C100.362 90.2973 100.272 90.0809 100.112 89.9213C99.9527 89.7617 99.7362 89.672 99.5105 89.672C99.2848 89.672 99.0684 89.7617 98.9088 89.9213C98.7492 90.0809 98.6595 90.2973 98.6595 90.523V95.9015H95.8171V65.0944C95.8171 64.8687 95.7274 64.6523 95.5678 64.4927C95.4082 64.3331 95.1918 64.2434 94.9661 64.2434H50.049C49.8233 64.2434 49.6068 64.3331 49.4472 64.4927C49.2876 64.6523 49.198 64.8687 49.198 65.0944V95.9185H46.3556V66.822V63.2562C46.3799 62.7084 46.6199 62.1924 47.0233 61.8209C47.4267 61.4494 47.9607 61.2526 48.5087 61.2733H96.4468C96.9963 61.2479 97.5334 61.4415 97.9403 61.8117C98.3471 62.1818 98.5905 62.6983 98.617 63.2477V84.0467C98.617 84.2724 98.7066 84.4889 98.8662 84.6485C99.0258 84.8081 99.2423 84.8978 99.468 84.8978C99.6937 84.8978 99.9101 84.8081 100.07 84.6485C100.229 84.4889 100.319 84.2724 100.319 84.0467V63.2562C100.292 62.2577 99.8721 61.3103 99.15 60.6201C98.428 59.9299 97.4625 59.553 96.4639 59.5713H48.5087C47.5085 59.5484 46.5399 59.9222 45.8144 60.611C45.0889 61.2998 44.6655 62.2477 44.6365 63.2477V65.5795L43.9301 65.2987L40.8494 59.9968C40.8204 59.9661 40.7891 59.9377 40.7558 59.9117C40.7173 59.8704 40.6745 59.8333 40.6282 59.801C40.5844 59.7699 40.5354 59.7469 40.4835 59.733C40.4224 59.6599 40.3431 59.6042 40.2537 59.5713C40.2002 59.5625 40.1456 59.5625 40.092 59.5713C40.0385 59.5627 39.9839 59.5627 39.9303 59.5713L39.7771 59.6308C39.7358 59.6399 39.6957 59.6542 39.658 59.6734V59.6734H39.6154L37.7602 61.0606V56.8054C40.6591 54.5115 42.8292 51.4249 44.0067 47.9208C45.0338 47.5195 45.9157 46.8172 46.5369 45.906C47.158 44.9949 47.4893 43.9173 47.4874 42.8146C47.4901 42.0173 47.3204 41.2288 46.9899 40.5031C46.6594 39.7775 46.1759 39.1319 45.5726 38.6105C46.0865 36.7709 46.3471 34.8698 46.3471 32.9597C46.3471 32.296 46.3045 31.6322 46.2449 30.9769C46.1854 30.3641 46.1088 29.7514 45.9981 29.1557C48.4523 29.9585 50.8257 30.9899 53.0872 32.2364C54.6795 37.2828 55.486 42.544 55.4785 47.8357C55.478 49.7317 55.3786 51.6263 55.1807 53.512C55.157 53.7377 55.2239 53.9636 55.3668 54.1399C55.5096 54.3163 55.7166 54.4287 55.9423 54.4524C56.1681 54.4761 56.3939 54.4091 56.5703 54.2663C56.7466 54.1235 56.859 53.9164 56.8827 53.6907C57.0877 51.7458 57.19 49.7914 57.1891 47.8357C57.1891 26.8749 45.7343 9.27575 29.9563 6.00781H29.7861H29.701H29.6159H29.5308C13.7528 9.27575 2.29804 26.8749 2.29804 47.8357C2.2783 55.1071 3.76174 62.3041 6.65528 68.9751C4.7795 69.9302 3.20465 71.3858 2.10516 73.1807C1.00566 74.9757 0.42441 77.0399 0.425784 79.1448V102.122C0.425784 102.348 0.515445 102.565 0.675043 102.724C0.834641 102.884 1.0511 102.974 1.27681 102.974ZM99.902 101.271H45.0535C42.6876 101.271 39.9899 99.1354 38.39 97.6376H68.3886V98.361C68.3886 98.5867 68.4782 98.8031 68.6378 98.9627C68.7974 99.1223 69.0139 99.212 69.2396 99.212H75.7414C75.9671 99.212 76.1836 99.1223 76.3432 98.9627C76.5028 98.8031 76.5924 98.5867 76.5924 98.361V97.6376H105.8C104.344 99.2205 101.978 101.271 99.902 101.271ZM50.9 65.9454H94.0895V95.9185H75.7414C75.5157 95.9185 75.2993 96.0082 75.1397 96.1678C74.9801 96.3274 74.8904 96.5438 74.8904 96.7695V97.4929H70.0906V96.7695C70.0906 96.5438 70.001 96.3274 69.8414 96.1678C69.6818 96.0082 69.4653 95.9185 69.2396 95.9185H50.9V65.9454ZM36.0241 62.4137L29.7265 67.1369L23.7694 62.669V58.4139C25.5529 59.2971 27.5151 59.76 29.5053 59.767C31.7915 59.7547 34.0351 59.1476 36.0156 58.0054L36.0241 62.4137ZM45.7513 42.8401C45.7618 43.6551 45.5067 44.4513 45.0246 45.1084C44.5425 45.7655 43.8596 46.2479 43.0791 46.4825C42.9447 46.5202 42.8216 46.5903 42.7207 46.6868C42.6197 46.7833 42.5441 46.9031 42.5004 47.0357C40.2537 53.7247 35.1646 58.099 29.5138 58.099C23.863 58.099 18.7739 53.7673 16.5357 47.0357C16.492 46.9031 16.4163 46.7833 16.3154 46.6868C16.2145 46.5903 16.0914 46.5202 15.957 46.4825C15.1749 46.2494 14.4901 45.7677 14.0064 45.1105C13.5226 44.4532 13.2663 43.6562 13.2762 42.8401C13.2756 42.2116 13.4308 41.5927 13.7278 41.0388C14.0248 40.4848 14.4544 40.0131 14.9783 39.6658C15.1313 39.5638 15.2472 39.415 15.3086 39.2416C15.3699 39.0683 15.3735 38.8797 15.3187 38.7042C14.7451 36.8524 14.4581 34.9238 14.4677 32.9853C14.4677 32.6023 14.4677 32.2279 14.4677 31.8449H44.5769C44.5769 32.2279 44.5769 32.6023 44.5769 32.9853C44.5865 34.9238 44.2995 36.8524 43.7259 38.7042C43.6711 38.8797 43.6747 39.0683 43.736 39.2416C43.7974 39.415 43.9133 39.5638 44.0663 39.6658C44.5841 40.014 45.0085 40.484 45.3023 41.0345C45.5961 41.585 45.7503 42.1991 45.7513 42.8231V42.8401ZM44.3897 30.1258H14.6038C14.6833 29.6436 14.7769 29.167 14.8847 28.6961C24.4046 25.9406 34.5041 25.8934 44.0493 28.56C44.189 29.0759 44.3026 29.5985 44.3897 30.1258V30.1258ZM44.9684 27.0451H44.9003C40.2428 25.6994 35.4253 24.9867 30.5776 24.9261V22.6283H40.092C40.3177 22.6283 40.5342 22.5387 40.6938 22.3791C40.8534 22.2195 40.943 22.003 40.943 21.7773C40.943 21.5516 40.8534 21.3351 40.6938 21.1755C40.5342 21.0159 40.3177 20.9263 40.092 20.9263H30.5776V17.786H45.3599C46.2109 18.7732 46.9428 19.8199 47.6661 20.9092H43.4025C43.1768 20.9092 42.9603 20.9989 42.8007 21.1585C42.6411 21.3181 42.5515 21.5346 42.5515 21.7603C42.5515 21.986 42.6411 22.2024 42.8007 22.362C42.9603 22.5216 43.1768 22.6113 43.4025 22.6113H48.7895C50.1643 24.9222 51.3292 27.3516 52.2702 29.8705C49.9227 28.7189 47.4796 27.7735 44.9684 27.0451V27.0451ZM43.8535 16.0839H30.5776V13.667H31.8882C32.1139 13.667 32.3303 13.5774 32.4899 13.4178C32.6495 13.2582 32.7392 13.0417 32.7392 12.816C32.7392 12.5903 32.6495 12.3738 32.4899 12.2142C32.3303 12.0546 32.1139 11.965 31.8882 11.965H30.5776V7.9056C33.6617 8.71415 36.568 10.0908 39.1474 11.965H34.4497C34.224 11.965 34.0076 12.0546 33.848 12.2142C33.6884 12.3738 33.5987 12.5903 33.5987 12.816C33.5987 13.0417 33.6884 13.2582 33.848 13.4178C34.0076 13.5774 34.224 13.667 34.4497 13.667H41.343C42.2233 14.4263 43.0614 15.2332 43.8535 16.0839V16.0839ZM28.8755 7.9056V24.9261C23.8637 24.9856 18.8849 25.7476 14.0847 27.1898V27.1898C11.7451 27.9006 9.46802 28.8029 7.27653 29.8876C11.4125 18.7221 19.327 10.3395 28.8755 7.9056ZM6.41699 32.2194C8.53911 31.0499 10.7604 30.0702 13.055 29.2918C12.9784 29.7259 12.9103 30.1429 12.8592 30.6024C12.7976 30.7176 12.7655 30.8462 12.7656 30.9769C12.7667 31.0498 12.7811 31.1219 12.8082 31.1896C12.7656 31.7768 12.7656 32.3385 12.7656 32.9683C12.7614 34.8786 13.0221 36.7803 13.5401 38.6191C12.8143 39.2395 12.2611 40.0369 11.9343 40.9341C11.6075 41.8313 11.5181 42.7977 11.6748 43.7396C11.8315 44.6814 12.2289 45.5668 12.8286 46.3099C13.4283 47.0529 14.2099 47.6283 15.0974 47.9803C16.3674 51.7966 18.8283 55.1047 22.1184 57.4182V61.4095L19.9313 59.767H19.8887C19.8475 59.749 19.8048 59.7348 19.7611 59.7245C19.7123 59.6587 19.648 59.606 19.5738 59.5713C19.5146 59.5629 19.4544 59.5629 19.3951 59.5713H19.2419L19.0887 59.6308C19.0375 59.6464 18.9887 59.6693 18.9441 59.6989C18.8974 59.7308 18.8546 59.7679 18.8164 59.8096L18.7313 59.8947L15.5655 65.2051L8.21265 68.2943C5.42019 61.8307 3.99466 54.8595 4.02562 47.8186C4.01813 42.527 4.82469 37.2657 6.41699 32.2194V32.2194ZM2.12783 79.1448C2.12167 77.2259 2.68423 75.3481 3.74448 73.7486C4.80474 72.1492 6.31515 70.8997 8.085 70.158V70.158L16.3059 66.7539C16.3969 66.7111 16.4803 66.6536 16.5527 66.5837V66.5837C16.5987 66.5432 16.6363 66.494 16.6633 66.439L19.4887 61.6988L28.7479 68.6432L28.6713 101.271H2.12783V79.1448Z" fill="#383838"/>
<path d="M40.5909 35.5723H31.8849C31.6592 35.5723 31.4428 35.6619 31.2832 35.8215C31.1236 35.9811 31.0339 36.1976 31.0339 36.4233V38.8827H28.7362V36.4233C28.7362 36.1976 28.6465 35.9811 28.4869 35.8215C28.3273 35.6619 28.1108 35.5723 27.8851 35.5723H19.1791C18.9534 35.5723 18.737 35.6619 18.5774 35.8215C18.4178 35.9811 18.3281 36.1976 18.3281 36.4233V43.0357C18.3281 43.2615 18.4178 43.4779 18.5774 43.6375C18.737 43.7971 18.9534 43.8868 19.1791 43.8868H27.8851C28.1108 43.8868 28.3273 43.7971 28.4869 43.6375C28.6465 43.4779 28.7362 43.2615 28.7362 43.0357V40.5848H31.0339V43.0357C31.0339 43.2615 31.1236 43.4779 31.2832 43.6375C31.4428 43.7971 31.6592 43.8868 31.8849 43.8868H40.5909C40.8166 43.8868 41.0331 43.7971 41.1927 43.6375C41.3523 43.4779 41.4419 43.2615 41.4419 43.0357V36.4233C41.4419 36.1976 41.3523 35.9811 41.1927 35.8215C41.0331 35.6619 40.8166 35.5723 40.5909 35.5723ZM27.0341 42.1847H20.0302V37.2743H27.0341V42.1847ZM39.7399 42.1847H32.736V37.2743H39.7399V42.1847Z" fill="#383838"/>
</g>
<defs>
<clipPath id="clip0_5219_373">
<rect width="108.931" height="108.931" fill="white"/>
</clipPath>
</defs>
</svg>
