<svg xmlns="http://www.w3.org/2000/svg" width="107" height="120" fill="none" viewBox="0 0 107 120">
  <path stroke="currentColor" stroke-linecap="round" stroke-linejoin="round" stroke-miterlimit="10" stroke-width="2" d="M97.998 93.398c-2 3-4.4 5.8-6.9 8.4m-56.301-94.9c2.1-.6 4.3-1.1 6.5-1.5M9.598 22.3c3.8-3.9 8.1-7.3 12.8-10.1m-20.8 20.6c.8-1.4 1.7-2.8 2.6-4.1M50.8 118.498c-9.8 0-19.1-2.5-27.1-6.9m52.096 1.101c-1.9.9-3.8 1.7-5.8 2.5M37.996 47h32.1m-62.6 0h23.2m-23.2 29.102h60.8m15.2 0h10.6M50.797 15.5v92.1M84.4 32.098a9.6 9.6 0 1 0-9.6-9.6 9.6 9.6 0 0 0 9.6 9.6Z"/>
  <path stroke="currentColor" stroke-linecap="round" stroke-linejoin="round" stroke-miterlimit="10" stroke-width="2" d="M84.4 1.7c-11.5 0-20.7 9.3-20.7 20.7 0 6.1 7.2 19.7 19 36 .4.6 1 .8 1.7.8s1.3-.3 1.7-.8c11.8-16.1 18.999-29.7 18.999-36 0-11.3-9.3-20.7-20.7-20.7Z"/>
  <path stroke="currentColor" stroke-linecap="round" stroke-linejoin="round" stroke-miterlimit="10" stroke-width="2" d="M64.4 17.5c-4.3-1.3-8.8-2-13.6-2-25.5 0-46.1 20.6-46.1 46.1s20.6 46.1 46.1 46.1 46.1-20.6 46.1-46.1c0-5.3-.9-10.4-2.6-15.2"/>
  <path stroke="currentColor" stroke-linecap="round" stroke-linejoin="round" stroke-miterlimit="10" stroke-width="2" d="M63.799 21.7c-1.3-1.4-2.8-2.6-4.3-3.5-2.7-1.7-5.7-2.7-8.7-2.7-14.3 0-25.9 20.6-25.9 46.1s11.6 46.1 25.9 46.1c14.3 0 25.9-20.6 25.9-46.1 0-4.7-.4-9.3-1.1-13.6"/>
</svg>
