<svg xmlns="http://www.w3.org/2000/svg" width="124" height="125" fill="none" viewBox="0 0 124 125">
  <path stroke="currentColor" stroke-linecap="round" stroke-linejoin="round" stroke-miterlimit="10" stroke-width="2" d="M104.598 68.2c2.7 0 4.9-2.2 4.9-4.9V5.9c0-2.7-2.2-4.9-4.9-4.9h-85.3c-2.7 0-4.9 2.2-4.9 4.9v57.4c0 2.7 2.2 4.9 4.9 4.9h85.3Zm4.902-14.798h-95M65.8 6.3h-7.6m44.698 11.2v21.9m0 5.3v8.7M24.3 12.3l14.1 14.1m4.8 4.1 4.3 4.2m-9 .8L30 27m43.898 41.2 2.8 13.2M50.1 68.2l-2.9 13.2M1.7 75.7H41m41.898 0h39.3M40.3 81.402h43.3M35.498 92h52.9c1.3 0 2.6.8 3.1 2.1l8.5 20.8c.9 2.2-.7 4.5-3.1 4.5h-70c-2.3 0-3.9-2.4-3.1-4.5l8.5-20.8c.7-1.2 1.9-2.1 3.2-2.1Zm2.002 27.5 9-27.5"/>
  <path stroke="currentColor" stroke-linecap="round" stroke-linejoin="round" stroke-miterlimit="10" stroke-width="2" d="M42.7 103.7H13.3c-3.3 0-5.4-3.5-3.9-6.4l2.2-4.4c.8-1.5 2.3-2.4 3.9-2.4h9.2M97.498 124h-71.1m61.402-9.699H57.3c-1 0-1.8-.8-1.8-1.8v-.4c0-1 .8-1.8 1.8-1.8h30.5c1 0 1.8.8 1.8 1.8v.4c.1 1-.8 1.8-1.8 1.8Z"/>
</svg>
