<svg width="114" height="117" viewBox="0 0 114 117" fill="none" xmlns="http://www.w3.org/2000/svg">
<path d="M104.399 115.095C109.151 115.095 113.002 105.689 113.002 94.0865C113.002 82.4839 109.151 73.0781 104.399 73.0781C99.6484 73.0781 95.7969 82.4839 95.7969 94.0865C95.7969 105.689 99.6484 115.095 104.399 115.095Z" stroke="currentColor" stroke-width="2" stroke-miterlimit="10" stroke-linecap="round" stroke-linejoin="round"/>
<path d="M101.139 99.8811C100.868 98.1606 100.777 96.1684 100.777 94.0856C100.777 85.483 103.041 80.0499 104.399 78.4199C105.305 79.5066 106.573 82.2231 107.297 86.3886C107.659 88.5619 107.931 91.0974 107.931 94.0856" stroke="currentColor" stroke-width="2" stroke-miterlimit="10" stroke-linecap="round" stroke-linejoin="round"/>
<path d="M1.89453 94.0865C1.89453 82.4957 5.69779 73.0781 10.4971 73.0781" stroke="currentColor" stroke-width="2" stroke-miterlimit="10" stroke-linecap="round" stroke-linejoin="round"/>
<path d="M10.4055 115.095C6.87388 115.095 3.88565 109.843 2.52734 102.418" stroke="currentColor" stroke-width="2" stroke-miterlimit="10" stroke-linecap="round" stroke-linejoin="round"/>
<path d="M84.3867 73.0781H104.399" stroke="currentColor" stroke-width="2" stroke-miterlimit="10" stroke-linecap="round" stroke-linejoin="round"/>
<path d="M10.4023 73.0781H72.8844" stroke="currentColor" stroke-width="2" stroke-miterlimit="10" stroke-linecap="round" stroke-linejoin="round"/>
<path d="M10.4023 115.094H104.397" stroke="currentColor" stroke-width="2" stroke-miterlimit="10" stroke-linecap="round" stroke-linejoin="round"/>
<path d="M27.1558 15.8476L36.0301 24.7218C37.8412 26.5329 37.8412 29.5212 36.0301 31.4228L31.3213 36.1316C29.5102 37.9426 26.5219 37.9426 24.6203 36.1316L3.15909 14.6704C1.34801 12.8593 1.34801 9.87102 3.15909 7.9694L7.86783 3.26065C9.67891 1.44958 12.6672 1.44958 14.5688 3.26065L23.262 11.9538" stroke="currentColor" stroke-width="2" stroke-miterlimit="10" stroke-linecap="round" stroke-linejoin="round"/>
<path d="M44.6069 33.3736L33.2734 44.707L36.7951 48.2287L48.1286 36.8953L44.6069 33.3736Z" stroke="currentColor" stroke-width="2" stroke-miterlimit="10" stroke-linecap="round" stroke-linejoin="round"/>
<path d="M37.5703 29.8828L42.8225 35.1349" stroke="currentColor" stroke-width="2" stroke-miterlimit="10" stroke-linecap="round" stroke-linejoin="round"/>
<path d="M29.7812 37.6719L35.0333 42.9239" stroke="currentColor" stroke-width="2" stroke-miterlimit="10" stroke-linecap="round" stroke-linejoin="round"/>
<path d="M81.396 67.646L54.0487 68.0988L42.4579 56.5079C38.6547 52.7046 38.6547 46.4565 42.4579 42.6532C46.2612 38.85 52.5093 38.85 56.3126 42.6532L81.396 67.646Z" stroke="currentColor" stroke-width="2" stroke-miterlimit="10" stroke-linecap="round" stroke-linejoin="round"/>
<path d="M44.6338 68.0059H31.0508" stroke="currentColor" stroke-width="2" stroke-miterlimit="10" stroke-linecap="round" stroke-linejoin="round"/>
<path d="M24.5327 68.0059H21.3633" stroke="currentColor" stroke-width="2" stroke-miterlimit="10" stroke-linecap="round" stroke-linejoin="round"/>
<path d="M40.7418 63.3867H21.3633" stroke="currentColor" stroke-width="2" stroke-miterlimit="10" stroke-linecap="round" stroke-linejoin="round"/>
<path d="M15.6545 63.3867H10.4023" stroke="currentColor" stroke-width="2" stroke-miterlimit="10" stroke-linecap="round" stroke-linejoin="round"/>
<path d="M11.6719 14.7617C13.3223 14.7617 14.6601 13.4238 14.6601 11.7735C14.6601 10.1231 13.3223 8.78516 11.6719 8.78516C10.0215 8.78516 8.68359 10.1231 8.68359 11.7735C8.68359 13.4238 10.0215 14.7617 11.6719 14.7617Z" stroke="currentColor" stroke-width="2" stroke-miterlimit="10" stroke-linecap="round" stroke-linejoin="round"/>
<path d="M98.2386 68.0085C85.8327 65.8352 77.5923 53.9726 79.7656 41.5667C81.4861 31.6058 90.9943 24.9955 100.865 26.8066C108.833 28.2554 114.085 35.7713 112.727 43.74C111.641 50.0788 105.573 54.3348 99.2346 53.1577C94.1636 52.2521 90.8131 47.4527 91.6281 42.3817C92.3525 38.3068 96.2464 35.5903 100.321 36.3147C103.581 36.858 105.754 40.0274 105.121 43.1967C104.668 45.8228 102.223 47.5434 99.5969 47.0906C97.5141 46.7284 96.1558 44.7362 96.518 42.6534C96.7897 41.0235 98.4197 39.8462 100.05 40.2084" stroke="currentColor" stroke-width="2" stroke-miterlimit="10" stroke-linecap="round" stroke-linejoin="round"/>
<path d="M16.5625 21.2793L31.3227 36.0395" stroke="currentColor" stroke-width="2" stroke-miterlimit="10" stroke-linecap="round" stroke-linejoin="round"/>
<path d="M107.293 102.418C107.293 102.418 107.655 104.229 105.844 108.394" stroke="currentColor" stroke-width="2" stroke-miterlimit="10" stroke-linecap="round" stroke-linejoin="round"/>
<path d="M3.79297 80.7754H35.034" stroke="currentColor" stroke-width="2" stroke-miterlimit="10" stroke-linecap="round" stroke-linejoin="round"/>
<path d="M84.387 105.406H49.9766" stroke="currentColor" stroke-width="2" stroke-miterlimit="10" stroke-linecap="round" stroke-linejoin="round"/>
<path d="M46.3546 94.0859H23.5352" stroke="currentColor" stroke-width="2" stroke-miterlimit="10" stroke-linecap="round" stroke-linejoin="round"/>
<path d="M84.3827 85.8438H61.4727" stroke="currentColor" stroke-width="2" stroke-miterlimit="10" stroke-linecap="round" stroke-linejoin="round"/>
<path d="M42.8203 80.7754H48.7063" stroke="currentColor" stroke-width="2" stroke-miterlimit="10" stroke-linecap="round" stroke-linejoin="round"/>
<path d="M44.2706 105.406H39.6523" stroke="currentColor" stroke-width="2" stroke-miterlimit="10" stroke-linecap="round" stroke-linejoin="round"/>
<path d="M95.7926 94.0859H81.3945" stroke="currentColor" stroke-width="2" stroke-miterlimit="10" stroke-linecap="round" stroke-linejoin="round"/>
<path d="M75.875 23.1841C75.875 23.1841 79.7688 12.4987 90.9069 14.9437" stroke="currentColor" stroke-width="2" stroke-miterlimit="10" stroke-linecap="round" stroke-linejoin="round"/>
<path d="M71.9797 32.7805C71.9797 32.7805 65.0977 31.7844 65.0977 24.9023" stroke="currentColor" stroke-width="2" stroke-miterlimit="10" stroke-linecap="round" stroke-linejoin="round"/>
</svg>
