<svg xmlns="http://www.w3.org/2000/svg" width="101" height="100" fill="none" viewBox="0 0 101 100">
  <path stroke="currentColor" stroke-linecap="round" stroke-linejoin="round" stroke-miterlimit="10" stroke-width="2" d="m10.402 95.4-6-6.3c-4-4.2-3.8-10.9.4-14.8l62.4-59.1c4.2-4 10.9-3.8 14.8.4l6 6.3c4 4.2 3.8 10.9-.4 14.8l-62.4 59.1c-4.1 4-10.8 3.8-14.8-.4Z"/>
  <path stroke="currentColor" stroke-linecap="round" stroke-linejoin="round" stroke-miterlimit="10" stroke-width="2" d="m66.602 22.1 3.1-2.9c2-1.9 5.2-1.8 7.1.2M25.5 88.598l-3.1 2.9c-2 1.9-5.2 1.8-7.1-.2M29.7 84.5l-.9.9m-16.298 2.9-3.4-3.5M61.8 72.402l18.3-17.3m-46.198 43.8 9.2-8.8M94.8 15l4-3.8M86 6.7 92.1 1m1.502 6.902 6.2-5.8M53.703 17.201l7.5-7.1M42.102 28.2l3.8-3.7m16.401 19.2-4.5-4.8c-1-1-.9-2.7.1-3.6l3.9-3.7c1-1 2.7-.9 3.6.1l4.5 4.8c1.6 1.7 1.5 4.3-.2 5.9l-1.5 1.5c-1.7 1.6-4.4 1.5-5.9-.2Zm4.5-10.4-7.6 7.2M26.104 78.001l-4.5-4.8c-1-1-.9-2.7.1-3.6l3.9-3.7c1-1 2.7-.9 3.6.1l4.5 4.8c1.6 1.7 1.5 4.3-.2 5.9l-1.5 1.5c-1.7 1.6-4.3 1.5-5.9-.2Zm4.5-10.399-7.6 7.2M57 65.2l-34.7-7m41.302.8-34.7-7m41.298.8-34.7-7.1"/>
</svg>
