<svg xmlns="http://www.w3.org/2000/svg" width="113" height="112" fill="none" viewBox="0 0 113 112">
  <g filter="url(#a)">
    <path stroke="currentColor" stroke-linecap="round" stroke-linejoin="round" stroke-miterlimit="10" stroke-width="2" d="m16.402 99.4-6-6.3c-4-4.2-3.8-10.9.4-14.8l62.4-59.1c4.2-4 10.9-3.8 14.8.4l6 6.3c4 4.2 3.8 10.9-.4 14.8l-62.4 59.1c-4.1 4-10.8 3.799-14.8-.4Z"/>
    <path stroke="currentColor" stroke-linecap="round" stroke-linejoin="round" stroke-miterlimit="10" stroke-width="2" d="m72.602 26.1 3.1-2.9c2-1.9 5.2-1.8 7.1.2M31.5 92.598l-3.1 2.9c-2 1.9-5.2 1.8-7.1-.2M35.7 88.5l-.9.9m-16.298 2.9-3.4-3.5M67.8 76.402l18.3-17.3m-46.198 43.8 9.2-8.8M100.801 19l4-3.8M92 10.7 98.1 5m1.502 6.902 6.2-5.8M59.703 21.201l7.5-7.1M48.102 32.2l3.8-3.7m16.401 19.2-4.5-4.8c-1-1-.9-2.7.1-3.6l3.9-3.7c1-1 2.7-.9 3.6.1l4.5 4.8c1.6 1.7 1.5 4.3-.2 5.9l-1.5 1.5c-1.7 1.6-4.4 1.5-5.9-.2Zm4.5-10.4-7.6 7.2M32.104 82.001l-4.5-4.8c-1-1-.9-2.7.1-3.6l3.9-3.7c1-1 2.7-.9 3.6.1l4.5 4.8c1.6 1.7 1.5 4.3-.2 5.9l-1.5 1.5c-1.7 1.6-4.3 1.5-5.9-.2Zm4.5-10.399-7.6 7.2M63 69.2l-34.7-7m41.302.8-34.7-7m41.298.8-34.7-7.1"/>
  </g>
  <defs>
    <filter id="a" width="112.277" height="111.902" x=".523" y="0" color-interpolation-filters="sRGB" filterUnits="userSpaceOnUse">
      <feFlood flood-opacity="0" result="BackgroundImageFix"/>
      <feColorMatrix in="SourceAlpha" result="hardAlpha" values="0 0 0 0 0 0 0 0 0 0 0 0 0 0 0 0 0 0 127 0"/>
      <feOffset dy="2"/>
      <feGaussianBlur stdDeviation="3"/>
      <feComposite in2="hardAlpha" operator="out"/>
      <feColorMatrix values="0 0 0 0 0 0 0 0 0 0 0 0 0 0 0 0 0 0 0.25 0"/>
      <feBlend in2="BackgroundImageFix" result="effect1_dropShadow_6048_1454"/>
      <feBlend in="SourceGraphic" in2="effect1_dropShadow_6048_1454" result="shape"/>
    </filter>
  </defs>
</svg>
