<svg xmlns="http://www.w3.org/2000/svg" width="121" height="127" fill="none" viewBox="0 0 121 127">
  <path stroke="currentColor" stroke-linecap="round" stroke-linejoin="round" stroke-miterlimit="10" stroke-width="2" d="M23.1 30.201c-1.8-.6-3.5-2.7-4.1-5.4-.6-2.7-.1-5.3 1.3-6.7 1.8.6 3.5 2.7 4.1 5.4.5 2.2.2 4.3-.6 5.8m-9.801 15.701c-3.3 0-7.2-2.4-9.8-6.5-2.6-4.1-3.2-8.6-1.8-11.6 3.3 0 7.2 2.4 9.8 6.5 2.2 3.4 2.9 7 2.3 9.9M9.3 37.703l4.7 7.3M7 34.1l-.8-1.3m27-11.5c-1.8-2.8-1.799-7.4.201-11.8s5.6-7.3 8.9-7.7c1.8 2.8 1.8 7.4-.2 11.8-1.9 4.2-5.5 7.1-8.9 7.7Zm3.7-7.898-3.7 7.9m5.5-11.7.7-1.5"/>
  <path stroke="currentColor" stroke-linecap="round" stroke-linejoin="round" stroke-miterlimit="10" stroke-width="2" d="M33.198 21.3c-11 7.3-19.7 19.6-21.8 33.2m35-39.098c-.8.2-1.7.5-2.5.7m59 21.498c-1.2-1.1-3-1.9-5.1-2-2.8-.2-5.2.8-6.4 2.3.9 1.7 3.2 3 6 3.2 2.8.2 5.2-.8 6.4-2.3"/>
  <path stroke="currentColor" stroke-linecap="round" stroke-linejoin="round" stroke-miterlimit="10" stroke-width="2" d="M18.5 36.202c1.1 1.5 3.6 2.5 6.4 2.3 2.8-.2 5.1-1.5 6-3.2-1.1-1.5-3.6-2.5-6.4-2.3-1.9.1-3.6.8-4.7 1.7m86.899 10.099c3.3.1 7.301-2.3 9.901-6.3 2.7-4 3.299-8.6 1.899-11.6-3.3-.1-7.299 2.3-9.899 6.3-2.1 3.2-2.9 6.7-2.5 9.5m5.299-5.099-4.7 7.2m7.102-10.799.9-1.3"/>
  <path stroke="currentColor" stroke-linecap="round" stroke-linejoin="round" stroke-miterlimit="10" stroke-width="2" d="M101.098 34.402c4.1 5.9 6.9 12.7 8.1 20.1M57.8 120.699H68m11.7 0h35.299v5.3H6.699v-5.3h46.9M12 120.402v-5.3h97.7v5.3M19.8 66.6H6.7v-5.3h108.299v5.3h-87.5m-12.101 48.302v-48.3M106.301 92.2v22.699m0-48.297v16.3M60.798 31.398l-45.4 29.9h90.9l-45.5-29.9ZM39.8 50.198l4.1-2.8"/>
  <path stroke="currentColor" stroke-linecap="round" stroke-linejoin="round" stroke-miterlimit="10" stroke-width="2" d="M72.3 57.1H29.2l7.5-4.9m12.898-8.5 11.2-7.4 31.7 20.8h-13.8"/>
  <path stroke="currentColor" stroke-linecap="round" stroke-linejoin="round" stroke-miterlimit="10" stroke-width="2" d="M60.8 52.702a4.3 4.3 0 1 0 0-8.6 4.3 4.3 0 0 0 0 8.6ZM60.798 6.4a2.7 2.7 0 1 0 0-5.4 2.7 2.7 0 0 0 0 5.4ZM58.2 33.1V27h5.3v6.1m-2.7-6.102v-20.6m0 1.704h26.8c1.1 0 2 .9 2 2v10.6c0 1.1-.9 2-2 2H60.8"/>
  <path stroke="currentColor" stroke-linecap="round" stroke-linejoin="round" stroke-miterlimit="10" stroke-width="2" d="M89.598 14.7h9.4c.8 0 1.3.9.8 1.6l-3.9 5.6 4 5.8c.4.6 0 1.5-.8 1.5h-24.1c-1.6 0-2.9-1.3-2.9-2.9v-3.8M27.5 114.902v-30.6c0-4 3.2-7.2 7.2-7.2s7.2 3.2 7.2 7.2v30.7M37.8 97.7v17.299"/>
  <path stroke="currentColor" stroke-linecap="round" stroke-linejoin="round" stroke-miterlimit="10" stroke-width="2" d="M31.7 97.7V84.3c0-1.7 1.4-3.1 3.1-3.1 1.7 0 3.1 1.4 3.1 3.1v7.8m-6.2 22.899v-10.3m21.898 10.303v-30.7c0-4 3.2-7.2 7.2-7.2s7.2 3.2 7.2 7.2v30.7m-4.1-7.803v7.8"/>
  <path stroke="currentColor" stroke-linecap="round" stroke-linejoin="round" stroke-miterlimit="10" stroke-width="2" d="M57.8 114.999v-30.7c0-1.7 1.4-3.1 3.1-3.1 1.7 0 3.1 1.4 3.1 3.1v6.4m15.7 24.203v-30.6c0-4 3.2-7.2 7.2-7.2s7.2 3.2 7.2 7.2v30.6m-4.1-6.203v6.2"/>
  <path stroke="currentColor" stroke-linecap="round" stroke-linejoin="round" stroke-miterlimit="10" stroke-width="2" d="M83.898 91.4v-7.1c0-1.7 1.4-3.1 3.1-3.1 1.7 0 3.1 1.4 3.1 3.1v17.199m-6.2 13.4v-7.2M24.7 71.3h35m6.698 0h8.7m8.602 0H97M69.898 13.398h11.8M81.7 17.3H77"/>
</svg>
