<svg xmlns="http://www.w3.org/2000/svg" width="102" height="126" fill="none" viewBox="0 0 102 126">
  <path stroke="currentColor" stroke-linecap="round" stroke-linejoin="round" stroke-miterlimit="10" stroke-width="2" d="M48.204 74.195h-11.7v27.6h11.7v-27.6Zm-5.802 42.702v-15.1m-7.398 15.101h14.7m-31.202-3.101c0 3.1-4.3 6.6-8.4 6.6"/>
  <path stroke="currentColor" stroke-linecap="round" stroke-linejoin="round" stroke-miterlimit="10" stroke-width="2" d="M10.002 124.799c-9 0-8.4-6.3-8.4-6.3v-57.1h16.9v57.1c0 3.5-3.8 6.3-8.5 6.3Zm3.801-63.504v-13.1h-7.6v13.1m3.801-47.799v34.7m3.799-34.699h-7.6l1.5-12.2h4.6l1.5 12.2Zm-3.799 47.8v15.7m0 21.8v2m0-11.899v2m-3.801-34.5h7.6m-7.6-4.402h7.6m22.799 10.201 2.2-8.9h7.1l2.3 8.9h-5.8m0-34.599v25.7m47.602-13.802h10.9m-2.902 30.301h-5.1v-6.1l5.1-6.4v12.5ZM64.703 39.496h10.9m-8.001.002v-12.4h5.1v12.4m17.302 30.299h10.9m-36.201 0h10.9m-8.001-.002v-12.5l2.6-3.6 2.5 3.6v12.5m20.2-30.298v-6.1l2.5-3.6 2.6 3.6v6.1m1 49.901c0 2.1-1.7 3.8-3.8 3.8-2.1 0-3.8-1.7-3.8-3.8 0-2.1 1.7-3.8 3.8-3.8 2.1 0 3.8 1.7 3.8 3.8Zm-29 5.099a5.1 5.1 0 1 0 0-10.2 5.1 5.1 0 0 0 0 10.2Zm25.502 23.3h1m-15 0h1.1m-15.002 0h1.1m26.802-10.102h1m-15 0h1.1m-15.002 0h1.1M36.504 67.996h11.7m-7.501-40.398h3.3m-4.601-13.2h8.8m8.7 0h44m-14.799-8.8h-21.4m-7.801 0h-25.8m64.101 0h5.7"/>
</svg>
