<svg width="127" height="102" viewBox="0 0 127 102" fill="none" xmlns="http://www.w3.org/2000/svg">
<path d="M11.1 100.8H1V1H126V100.8H20.7999" stroke="#383838" stroke-width="2" stroke-miterlimit="10" stroke-linecap="round" stroke-linejoin="round"/>
<path d="M45.8984 52.3984V58.6985" stroke="#383838" stroke-width="2" stroke-miterlimit="10" stroke-linecap="round" stroke-linejoin="round"/>
<path d="M45.8984 64.8008V71.1008" stroke="#383838" stroke-width="2" stroke-miterlimit="10" stroke-linecap="round" stroke-linejoin="round"/>
<path d="M45.8984 76V82.3" stroke="#383838" stroke-width="2" stroke-miterlimit="10" stroke-linecap="round" stroke-linejoin="round"/>
<path d="M45.8984 87.3008V91.9008" stroke="#383838" stroke-width="2" stroke-miterlimit="10" stroke-linecap="round" stroke-linejoin="round"/>
<path d="M45.8984 96.1992V100.799" stroke="#383838" stroke-width="2" stroke-miterlimit="10" stroke-linecap="round" stroke-linejoin="round"/>
<path d="M45.8984 14.1016V20.4016V37.9016" stroke="#383838" stroke-width="2" stroke-miterlimit="10" stroke-linecap="round" stroke-linejoin="round"/>
<path d="M45.8984 1V9.19998" stroke="#383838" stroke-width="2" stroke-miterlimit="10" stroke-linecap="round" stroke-linejoin="round"/>
<path d="M97 93.5V100.8" stroke="#383838" stroke-width="2" stroke-miterlimit="10" stroke-linecap="round" stroke-linejoin="round"/>
<path d="M97 82.3008V87.9008" stroke="#383838" stroke-width="2" stroke-miterlimit="10" stroke-linecap="round" stroke-linejoin="round"/>
<path d="M97 70.8984V76.6985" stroke="#383838" stroke-width="2" stroke-miterlimit="10" stroke-linecap="round" stroke-linejoin="round"/>
<path d="M97 29.1992V56.7992V58.6992V61.0992" stroke="#383838" stroke-width="2" stroke-miterlimit="10" stroke-linecap="round" stroke-linejoin="round"/>
<path d="M97 18.8008V24.2008" stroke="#383838" stroke-width="2" stroke-miterlimit="10" stroke-linecap="round" stroke-linejoin="round"/>
<path d="M97 4V13.5" stroke="#383838" stroke-width="2" stroke-miterlimit="10" stroke-linecap="round" stroke-linejoin="round"/>
<path d="M114.1 78.7992C119.4 71.8992 123.2 63.7992 125 54.6992C129.7 30.0992 113.5 6.39921 88.9001 1.69921C69.2001 -2.00079 50.2001 10.8992 46.5001 30.5992C43.5001 46.2992 53.9001 61.4992 69.6001 64.4992C82.2001 66.8992 94.3 58.5992 96.7 45.9992C98.6 35.8992 92.0001 26.1992 81.9001 24.2992C73.8001 22.7992 66.1001 28.0992 64.5001 36.0992C63.3001 42.4992 67.5001 48.7992 74.0001 49.9992C79.2001 50.9992 84.1001 47.5992 85.1001 42.3992" stroke="#383838" stroke-width="2" stroke-miterlimit="10" stroke-linecap="round" stroke-linejoin="round"/>
<path d="M1 36.3984C3 67.8984 26.2 93.5985 58.7 99.6985C77.9 103.298 96.7 96.7984 109.5 83.8984" stroke="#383838" stroke-width="2" stroke-miterlimit="10" stroke-linecap="round" stroke-linejoin="round"/>
<path d="M122.001 64.8008H9.30078" stroke="#383838" stroke-width="2" stroke-miterlimit="10" stroke-linecap="round" stroke-linejoin="round"/>
<path d="M6.39844 6.69922V21.4992" stroke="#383838" stroke-width="2" stroke-miterlimit="10" stroke-linecap="round" stroke-linejoin="round"/>
<path d="M6.39844 27.6992V32.2992" stroke="#383838" stroke-width="2" stroke-miterlimit="10" stroke-linecap="round" stroke-linejoin="round"/>
<path d="M11.1016 6.69922V13.4992" stroke="#383838" stroke-width="2" stroke-miterlimit="10" stroke-linecap="round" stroke-linejoin="round"/>
</svg>
