<svg width="109" height="109" viewBox="0 0 109 109" fill="none" xmlns="http://www.w3.org/2000/svg">
<g clip-path="url(#clip0_5219_329)">
<path d="M105.217 25.2907C105.108 25.3253 105.008 25.3811 104.922 25.455C104.836 25.5288 104.765 25.6191 104.715 25.7206C104.664 25.8221 104.634 25.9327 104.627 26.046C104.619 26.1592 104.635 26.2728 104.672 26.38C105.786 29.5057 106.462 32.7706 106.68 36.0817C105.975 35.759 105.231 35.5274 104.468 35.3923V35.3923C104.469 34.3606 104.206 33.3458 103.703 32.4448C103.201 31.5438 102.475 30.7868 101.597 30.2459C100.718 29.7051 99.7155 29.3986 98.6847 29.3558C97.6539 29.3129 96.6293 29.535 95.7088 30.001C94.7883 30.4669 94.0027 31.1611 93.4269 32.0173C92.8512 32.8734 92.5046 33.8628 92.4203 34.8911C92.3359 35.9193 92.5167 36.952 92.9452 37.8905C93.3738 38.829 94.0358 39.642 94.8681 40.2517C94.1636 41.6299 93.8267 43.1667 93.89 44.7132C93.9532 46.2598 94.4145 47.7638 95.2292 49.08C96.0438 50.3961 97.1843 51.4797 98.5403 52.2261C99.8964 52.9724 101.422 53.3563 102.97 53.3404C103.225 53.3404 103.48 53.3404 103.736 53.3404C101.973 57.3102 99.5117 60.9308 96.468 64.0293L94.7659 60.6252C94.6954 60.4836 94.5867 60.3645 94.4521 60.2812C94.3176 60.1979 94.1625 60.1538 94.0043 60.1538C93.846 60.1538 93.6909 60.1979 93.5564 60.2812C93.4218 60.3645 93.3132 60.4836 93.2426 60.6252L90.8682 65.4335L85.5664 66.1994C85.4081 66.221 85.259 66.2866 85.1363 66.3889C85.0136 66.4912 84.9221 66.626 84.8724 66.7778C84.8227 66.9296 84.8167 67.0924 84.8551 67.2475C84.8936 67.4025 84.9749 67.5436 85.0898 67.6547L87.9918 70.4801C82.6093 73.4564 76.5602 75.0199 70.4096 75.0245C70.1839 75.0245 69.9675 75.1142 69.8079 75.2738C69.6483 75.4334 69.5586 75.6499 69.5586 75.8756C69.5586 76.1013 69.6483 76.3177 69.8079 76.4773C69.9675 76.6369 70.1839 76.7266 70.4096 76.7266C76.8567 76.7236 83.1971 75.0807 88.8343 71.9523L87.9833 76.684C87.9529 76.8436 87.9688 77.0085 88.0291 77.1593C88.0894 77.3101 88.1916 77.4405 88.3237 77.5351C88.4697 77.6408 88.6455 77.6974 88.8258 77.6968C88.9626 77.6947 89.0969 77.6596 89.2173 77.5946L93.966 75.1011L98.7147 77.5946C98.8492 77.6605 98.9988 77.6896 99.1482 77.6792C99.2976 77.6687 99.4416 77.619 99.5657 77.5351C99.6977 77.4405 99.8 77.3101 99.8603 77.1593C99.9206 77.0085 99.9365 76.8436 99.9061 76.684L98.9955 71.3992L102.834 67.6547C102.945 67.5464 103.024 67.4099 103.063 67.2599C103.102 67.11 103.099 66.9522 103.055 66.8036C103.006 66.6524 102.915 66.518 102.793 66.4157C102.671 66.3134 102.523 66.2473 102.366 66.2249L97.336 65.5016C102.4 60.4051 105.921 53.9814 107.493 46.971C109.065 39.9606 108.624 32.6486 106.221 25.8779C106.159 25.6708 106.021 25.495 105.835 25.3859C105.648 25.2769 105.427 25.2428 105.217 25.2907ZM97.5573 70.446C97.4575 70.5426 97.3828 70.662 97.3398 70.7941C97.2968 70.9261 97.2867 71.0666 97.3105 71.2034L97.9998 75.2288L94.383 73.331C94.2635 73.2636 94.1286 73.2284 93.9915 73.2289C93.8518 73.2296 93.7144 73.2646 93.5915 73.331L89.9747 75.2288L90.6725 71.2034C90.6963 71.0666 90.6862 70.9261 90.6432 70.7941C90.6002 70.662 90.5255 70.5426 90.4257 70.446L87.4982 67.5951L91.5406 67.0079C91.6769 66.9874 91.8062 66.9341 91.9174 66.8526C92.0286 66.771 92.1183 66.6637 92.1788 66.5398L93.9915 62.8804L95.7957 66.5398C95.857 66.6648 95.948 66.7728 96.0608 66.8544C96.1735 66.936 96.3046 66.9887 96.4425 67.0079L100.485 67.5951L97.5573 70.446ZM104.451 51.4682C103.953 51.5761 103.445 51.6331 102.936 51.6384C101.318 51.6376 99.7466 51.103 98.4642 50.1174C97.1818 49.1319 96.2605 47.7507 95.8435 46.1881C95.4264 44.6254 95.5367 42.9688 96.1575 41.4753C96.7782 39.9819 97.8745 38.735 99.2764 37.9284C99.4616 37.8106 99.5942 37.6259 99.6464 37.4127C99.6986 37.1995 99.6664 36.9743 99.5566 36.7843C99.4468 36.5943 99.2677 36.454 99.0569 36.3929C98.8461 36.3317 98.6198 36.3544 98.4253 36.4561C97.3993 37.0495 96.5 37.8389 95.7787 38.7794C95.2028 38.3266 94.7515 37.735 94.467 37.06C94.1825 36.385 94.0742 35.6488 94.1523 34.9205C94.2303 34.1921 94.4921 33.4956 94.9131 32.8961C95.3341 32.2967 95.9006 31.8141 96.5592 31.4936C97.2179 31.1731 97.9471 31.0252 98.6786 31.0638C99.4101 31.1024 100.12 31.3262 100.741 31.7142C101.362 32.1023 101.875 32.6418 102.23 33.2822C102.586 33.9226 102.773 34.6428 102.774 35.3753C102.774 35.5835 102.757 35.7913 102.723 35.9966C102.723 35.9966 102.723 35.9966 102.723 35.9966C102.715 36.0416 102.715 36.0877 102.723 36.1327C102.715 36.1891 102.715 36.2465 102.723 36.3029C102.745 36.3529 102.771 36.4012 102.8 36.4476C102.82 36.4957 102.846 36.5414 102.876 36.5838C102.912 36.625 102.952 36.6621 102.995 36.6944C103.034 36.733 103.077 36.7672 103.123 36.7965L103.285 36.8561H103.412H103.472C104.631 36.9502 105.751 37.3176 106.74 37.9284C106.74 38.1071 106.74 38.2858 106.74 38.473C106.777 42.9067 106.007 47.3102 104.468 51.4682H104.451Z" fill="currentColor"/>
<path d="M100.255 16.3032C100.073 16.4347 99.9504 16.6328 99.9138 16.8544C99.8771 17.076 99.9295 17.3031 100.06 17.4862C101.288 19.2195 102.365 21.0561 103.276 22.9753C103.345 23.1201 103.454 23.2425 103.589 23.3283C103.725 23.4141 103.882 23.4599 104.042 23.4604C104.169 23.4614 104.295 23.4323 104.408 23.3752C104.613 23.2793 104.77 23.1062 104.847 22.8939C104.924 22.6816 104.913 22.4477 104.817 22.2434C103.849 20.2427 102.71 18.3293 101.413 16.5245C101.286 16.3454 101.094 16.2224 100.879 16.1812C100.663 16.1399 100.44 16.1837 100.255 16.3032V16.3032Z" fill="currentColor"/>
<path d="M97.808 14.6373C97.8799 14.7256 97.969 14.7986 98.0697 14.8519C98.1704 14.9052 98.2808 14.9377 98.3944 14.9475C98.5079 14.9573 98.6223 14.9442 98.7307 14.909C98.8391 14.8738 98.9393 14.8172 99.0254 14.7425C99.1114 14.6678 99.1816 14.5766 99.2318 14.4742C99.282 14.3719 99.3111 14.2606 99.3174 14.1468C99.3237 14.033 99.3071 13.9191 99.2685 13.8118C99.23 13.7046 99.1703 13.6062 99.093 13.5224C94.6695 8.46297 88.9865 4.66358 82.6205 2.50973C76.2544 0.355872 69.432 -0.0758135 62.8453 1.25847C56.2585 2.59275 50.1419 5.64552 45.116 10.1071C40.0901 14.5686 36.3337 20.2801 34.2279 26.6622C34.1921 26.7689 34.1777 26.8817 34.1858 26.994C34.1938 27.1062 34.224 27.2158 34.2746 27.3163C34.3253 27.4168 34.3954 27.5063 34.4809 27.5796C34.5663 27.6528 34.6655 27.7084 34.7726 27.743C34.8601 27.7553 34.9489 27.7553 35.0364 27.743C35.2159 27.7429 35.3907 27.686 35.5359 27.5806C35.6811 27.4751 35.7892 27.3264 35.8449 27.1558C37.8919 20.9284 41.5853 15.3707 46.5337 11.0715C46.7082 12.1628 47.1474 13.1947 47.8129 14.077C48.4783 14.9594 49.3498 15.6653 50.3511 16.133C51.3523 16.6008 52.453 16.8161 53.5567 16.7602C54.6605 16.7043 55.7337 16.3789 56.6826 15.8124C57.6315 15.2459 58.4272 14.4555 59.0001 13.5105C59.573 12.5654 59.9057 11.4944 59.969 10.3911C60.0324 9.28773 59.8245 8.18567 59.3635 7.18124C58.9026 6.17681 58.2026 5.3006 57.3247 4.62921C64.2858 1.95346 71.9003 1.47838 79.1399 3.26812C86.3795 5.05787 92.8955 9.02622 97.808 14.6373V14.6373ZM58.2694 9.98215C58.3578 10.7 58.2927 11.4284 58.0784 12.1191C57.8641 12.8099 57.5056 13.4473 57.0264 13.9891C56.5473 14.5308 55.9585 14.9646 55.2991 15.2617C54.6397 15.5589 53.9248 15.7125 53.2015 15.7125C52.4783 15.7125 51.7633 15.5589 51.1039 15.2617C50.4445 14.9646 49.8557 14.5308 49.3766 13.9891C48.8975 13.4473 48.5389 12.8099 48.3246 12.1191C48.1103 11.4284 48.0453 10.7 48.1337 9.98215C48.1337 9.92258 48.1337 9.8545 48.1337 9.79492C50.3795 8.06383 52.8183 6.59881 55.4014 5.42917C56.2559 5.84586 56.9771 6.49283 57.4838 7.29722C57.9905 8.10162 58.2626 9.03149 58.2694 9.98215V9.98215Z" fill="currentColor"/>
<path d="M13.2891 12.5841C13.245 12.7327 13.2423 12.8904 13.2813 13.0404C13.3203 13.1904 13.3995 13.3269 13.5104 13.4351L16.2592 16.1669L15.6039 19.9455C15.5735 20.105 15.5894 20.2699 15.6497 20.4207C15.71 20.5715 15.8122 20.7019 15.9443 20.7965C16.073 20.8915 16.226 20.9483 16.3855 20.9603C16.5451 20.9724 16.7048 20.9392 16.8464 20.8646L20.2505 19.0774L23.6546 20.8646C23.7795 20.9245 23.916 20.9564 24.0545 20.9582C24.1796 20.96 24.3035 20.9343 24.4175 20.8827C24.5314 20.8312 24.6326 20.7552 24.7139 20.6602C24.7951 20.5651 24.8544 20.4533 24.8876 20.3327C24.9207 20.2121 24.9268 20.0857 24.9056 19.9625L24.2247 16.1669L26.9736 13.4862C27.0844 13.3779 27.1636 13.2414 27.2026 13.0915C27.2416 12.9415 27.2389 12.7837 27.1948 12.6352C27.1455 12.4839 27.0548 12.3495 26.9329 12.2472C26.8111 12.1449 26.663 12.0789 26.5055 12.0565L22.7014 11.5033L20.9994 8.09921C20.9297 7.95533 20.8209 7.83398 20.6854 7.74908C20.55 7.66417 20.3933 7.61914 20.2334 7.61914C20.0736 7.61914 19.9169 7.66417 19.7815 7.74908C19.646 7.83398 19.5372 7.95533 19.4675 8.09921L17.7655 11.5033L13.9614 12.0565C13.8128 12.0773 13.6723 12.1371 13.5542 12.2298C13.4361 12.3224 13.3447 12.4447 13.2891 12.5841V12.5841ZM18.4633 13.0692C18.6003 13.0509 18.7308 12.9995 18.8435 12.9194C18.9562 12.8393 19.0477 12.733 19.1101 12.6096L20.242 10.3119L21.3738 12.6096C21.4354 12.7319 21.5256 12.8376 21.6367 12.9176C21.7478 12.9976 21.8766 13.0496 22.0121 13.0692L24.5652 13.4436L22.7184 15.2308C22.6186 15.3273 22.544 15.4468 22.5009 15.5788C22.4579 15.7109 22.4479 15.8514 22.4716 15.9882L22.9057 18.5413L20.6334 17.3498C20.5123 17.2878 20.3781 17.2557 20.242 17.2562C20.1034 17.258 19.9669 17.2899 19.842 17.3498L17.5782 18.5413L18.0123 15.9882C18.036 15.8514 18.026 15.7109 17.983 15.5788C17.9399 15.4468 17.8653 15.3273 17.7655 15.2308L15.9273 13.4436L18.4633 13.0692Z" fill="currentColor"/>
<path d="M83.839 29.1212C83.1801 26.1026 81.8218 23.281 79.8732 20.8833C79.8121 20.8176 79.7401 20.7629 79.6605 20.7216H79.6094C79.5231 20.6805 79.4314 20.6518 79.3371 20.6365C79.261 20.6238 79.1834 20.6238 79.1073 20.6365L68.078 22.4747C67.8523 22.5131 67.6511 22.6395 67.5186 22.8262C67.3862 23.013 67.3333 23.2447 67.3717 23.4704C67.41 23.6961 67.5365 23.8973 67.7232 24.0298C67.91 24.1622 68.1417 24.2151 68.3674 24.1767L78.0691 22.4747C77.5249 25.0608 77.4385 27.7222 77.8137 30.3382C78.073 32.0871 78.5327 33.8005 79.1839 35.4443L71.6268 36.7464C71.4011 36.7655 71.1923 36.8736 71.0462 37.0468C70.9002 37.2199 70.8289 37.444 70.8481 37.6697C70.8673 37.8954 70.9754 38.1043 71.1485 38.2503C71.3217 38.3963 71.5458 38.4676 71.7715 38.4484H71.9161L79.8902 37.0783C80.1966 37.708 80.5285 38.3208 80.8945 38.925L59.4231 42.5929C57.869 40.1887 56.8175 37.4949 56.3319 34.6737C55.8463 31.8524 55.9368 28.962 56.5977 26.1766L64.1548 24.8746C64.3805 24.8362 64.5817 24.7097 64.7142 24.523C64.8467 24.3363 64.8995 24.1046 64.8612 23.8789C64.8228 23.6532 64.6963 23.452 64.5096 23.3195C64.3229 23.187 64.0912 23.1342 63.8655 23.1725L55.7637 24.5937C55.6026 24.621 55.4526 24.6941 55.3319 24.8042C55.2112 24.9144 55.1247 25.057 55.0829 25.215C54.7433 26.5234 54.5184 27.8589 54.4106 29.2063L43.1175 31.1466L38.59 31.9296H38.5305L27.9863 33.7422H27.8161L23.3397 34.5082L14.2763 36.0996C14.1119 36.1287 13.9596 36.2056 13.8386 36.3206C13.7175 36.4356 13.633 36.5837 13.5955 36.7464C13.36 37.7308 13.2344 38.7383 13.221 39.7505L6.63408 40.8483C6.47658 40.8757 6.32998 40.9469 6.21107 41.0538C6.09217 41.1606 6.00577 41.2988 5.96177 41.4525C5.80683 42.0063 5.73231 42.5796 5.74051 43.1546L3.9023 43.5546L2.09813 36.6698C2.0402 36.4522 1.89841 36.2664 1.70381 36.1532C1.50921 36.0399 1.27766 36.0084 1.05988 36.0655C0.842605 36.1217 0.656316 36.2614 0.541559 36.4543C0.426802 36.6472 0.392866 36.8775 0.447138 37.0953L2.46407 44.8396C2.51231 45.0268 2.62288 45.1921 2.77756 45.3081C2.93225 45.4241 3.12183 45.484 3.31509 45.4779C3.37437 45.4861 3.43452 45.4861 3.4938 45.4779L6.04688 44.9332C6.23584 45.5432 6.52331 46.1181 6.8979 46.6353C6.97621 46.7453 7.07956 46.835 7.19943 46.8972C7.31929 46.9593 7.45222 46.9921 7.58723 46.9927H7.65531L14.4635 45.8268C14.7576 46.4985 15.1018 47.1471 15.4932 47.7671C15.5701 47.887 15.6759 47.9856 15.8008 48.054C15.9257 48.1224 16.0657 48.1584 16.2081 48.1586H16.3528L29.7819 45.7757C29.833 45.7757 29.867 45.7757 29.9096 45.7757C30.0398 45.7619 30.165 45.7182 30.2755 45.6481C30.4649 45.526 30.5981 45.3338 30.6459 45.1136C30.6938 44.8935 30.6524 44.6633 30.5308 44.4737C28.7824 41.7859 28.1505 38.5224 28.7692 35.3762L37.6199 33.8614C37.3853 35.4709 37.4285 37.1088 37.7475 38.7037C38.0297 40.0127 38.4998 41.2739 39.1432 42.4482L34.7689 43.2056C34.5432 43.2248 34.3344 43.3329 34.1884 43.506C34.0423 43.6792 33.9711 43.9033 33.9903 44.129C34.0094 44.3547 34.1175 44.5635 34.2907 44.7096C34.4638 44.8556 34.6879 44.9269 34.9136 44.9077H35.0583L44.6238 43.2652L45.1004 46.448C45.1348 46.6479 45.2395 46.8288 45.3955 46.9583C45.5515 47.0878 45.7487 47.1573 45.9514 47.1544H46.0961L47.0662 46.9927L47.8151 51.3499L41.2197 52.4818H41.1601C41.1348 52.4866 41.1088 52.4866 41.0835 52.4818L32.4967 53.9626C32.3866 53.9821 32.2814 54.0231 32.1872 54.0833C32.0929 54.1435 32.0115 54.2216 31.9475 54.3133C31.8835 54.405 31.8381 54.5084 31.8141 54.6176C31.7901 54.7268 31.7878 54.8397 31.8074 54.9498V55.154C31.4331 55.0058 31.0354 54.9251 30.633 54.9157C29.7301 54.9157 28.8643 55.2744 28.2259 55.9128C27.5875 56.5512 27.2289 57.417 27.2289 58.3198C27.2289 58.3709 27.2289 58.4134 27.2289 58.4645L23.995 60.8048C23.8497 60.91 23.7413 61.0584 23.6854 61.2289C23.6295 61.3993 23.6288 61.583 23.6836 61.7539C23.7383 61.9247 23.8456 62.0738 23.9902 62.18C24.1348 62.2862 24.3092 62.344 24.4886 62.3452C24.6679 62.3483 24.8436 62.2947 24.9907 62.192L27.8076 60.1665C28.0698 60.572 28.4165 60.9159 28.824 61.175C29.2314 61.434 29.69 61.602 30.1684 61.6675C30.6468 61.7329 31.1336 61.6943 31.5957 61.5542C32.0578 61.4142 32.4841 61.1759 32.8456 60.8559C32.911 61.0281 33.0304 61.1744 33.186 61.2729C33.3307 61.3739 33.5032 61.4274 33.6796 61.4261H33.8158L37.7135 60.7538C36.9649 61.7661 36.5621 62.9925 36.5646 64.2515C36.5722 65.0482 36.7396 65.8353 37.0568 66.5662C37.374 67.297 37.8346 67.9569 38.4113 68.5066C37.5426 68.5435 36.7209 68.9114 36.1148 69.5349C35.5087 70.1584 35.1642 70.9902 35.1519 71.8596V73.7829L30.7862 81.3315C30.6733 81.5279 30.6431 81.761 30.7021 81.9797C30.7612 82.1983 30.9047 82.3846 31.101 82.4974C31.2974 82.6103 31.5305 82.6405 31.7492 82.5815C31.9678 82.5224 32.1541 82.3789 32.2669 82.1825L37.0327 73.9276C37.1715 73.6873 37.4001 73.5119 37.6682 73.4401C37.9363 73.3683 38.222 73.4059 38.4624 73.5446L39.0581 73.8936C39.1967 73.9729 39.3182 74.0789 39.4156 74.2055C39.513 74.3321 39.5843 74.4767 39.6255 74.631C39.6666 74.7853 39.6768 74.9463 39.6554 75.1045C39.6339 75.2628 39.5813 75.4153 39.5006 75.5531L26.6246 97.8669L21.5185 106.701L18.174 106.581L29.2373 87.4419C29.2939 87.3453 29.3309 87.2384 29.3461 87.1275C29.3614 87.0165 29.3546 86.9036 29.3261 86.7953C29.2977 86.687 29.2481 86.5854 29.1803 86.4963C29.1125 86.4071 29.0277 86.3323 28.9309 86.276C28.8338 86.2197 28.7265 86.1832 28.6152 86.1686C28.5039 86.154 28.3908 86.1615 28.2824 86.1908C28.1741 86.22 28.0726 86.2705 27.9838 86.3391C27.895 86.4078 27.8206 86.4933 27.765 86.5909L15.9868 106.964C15.9121 107.094 15.8728 107.241 15.8728 107.39C15.8728 107.539 15.9121 107.686 15.9868 107.815C16.0586 107.943 16.162 108.05 16.2873 108.126C16.4125 108.202 16.5553 108.245 16.7017 108.249L21.9695 108.437C22.1181 108.436 22.2637 108.396 22.3921 108.321C22.5205 108.247 22.6272 108.14 22.7014 108.011L27.8076 99.169L39.2709 100.131V101.067C39.2709 101.292 39.3605 101.509 39.5201 101.669C39.6797 101.828 39.8962 101.918 40.1219 101.918H44.777C45.0027 101.918 45.2192 101.828 45.3788 101.669C45.5384 101.509 45.628 101.292 45.628 101.067V100.148L57.2615 99.169L62.3677 108.011C62.4426 108.141 62.5506 108.249 62.6806 108.323C62.8106 108.398 62.9581 108.437 63.1081 108.437V108.437L68.3844 108.249C68.5308 108.245 68.6736 108.202 68.7988 108.126C68.9241 108.05 69.0275 107.943 69.0993 107.815C69.1739 107.686 69.2133 107.539 69.2133 107.39C69.2133 107.241 69.1739 107.094 69.0993 106.964L63.8229 97.6712C63.7092 97.478 63.5239 97.3374 63.3072 97.2801C63.0905 97.2227 62.8599 97.2532 62.6655 97.3648C62.4709 97.4771 62.3285 97.6618 62.2695 97.8786C62.2105 98.0954 62.2397 98.3268 62.3506 98.5222L67.0142 106.59L63.6612 106.709L45.6706 75.6126C45.5099 75.3337 45.4662 75.0025 45.5491 74.6915C45.6321 74.3805 45.8349 74.115 46.1131 73.9531L46.7088 73.6042C46.9505 73.465 47.2374 73.4272 47.5069 73.499C47.7764 73.5707 48.0066 73.7463 48.147 73.9872L59.7465 94.0799C59.7997 94.1816 59.8729 94.2715 59.9618 94.3441C60.0506 94.4168 60.1532 94.4707 60.2635 94.5027C60.3737 94.5347 60.4893 94.5441 60.6032 94.5302C60.7171 94.5164 60.8271 94.4796 60.9265 94.4222C61.0258 94.3648 61.1126 94.2878 61.1814 94.196C61.2503 94.1041 61.2999 93.9993 61.3272 93.8879C61.3545 93.7764 61.3589 93.6605 61.3403 93.5473C61.3217 93.434 61.2804 93.3257 61.2188 93.2288L49.8491 73.5361V71.9192C49.8368 71.0497 49.4923 70.2179 48.8862 69.5944C48.2801 68.971 47.4584 68.603 46.5897 68.5662C47.227 67.9544 47.7203 67.2085 48.0338 66.3826C48.3473 65.5566 48.4731 64.6713 48.4023 63.7907C48.3314 62.9101 48.0655 62.0563 47.624 61.2911C47.1824 60.526 46.5762 59.8686 45.8493 59.3666L49.2534 58.7709C49.5031 59.2298 49.8722 59.6128 50.3216 59.8795C50.7709 60.1461 51.2839 60.2864 51.8064 60.2857L58.2998 78.6508C58.3605 78.8254 58.4763 78.9754 58.6299 79.0783C58.7834 79.1811 58.9663 79.2312 59.1508 79.221C59.2365 79.2082 59.3197 79.1823 59.3976 79.1444C59.6092 79.0692 59.7826 78.9134 59.8798 78.7109C59.977 78.5085 59.9903 78.2758 59.9167 78.0636L53.4915 59.9283C53.9442 59.7167 54.3342 59.3912 54.6233 58.9836C54.8479 58.6689 55.0078 58.3129 55.094 57.936C55.1802 57.5592 55.1909 57.169 55.1254 56.788L53.2532 45.9544L54.1893 45.7928C54.4115 45.7569 54.6103 45.6345 54.7425 45.4523C54.8075 45.3608 54.8538 45.2572 54.8786 45.1477C54.9035 45.0381 54.9064 44.9247 54.8872 44.8141L54.334 41.6057L56.6743 41.1972C57.1503 42.187 57.6993 43.1399 58.3168 44.0481C58.395 44.1609 58.4993 44.253 58.6208 44.3168C58.7423 44.3805 58.8774 44.4139 59.0146 44.4141H59.1593L82.4603 40.3547H82.5284H82.6135L82.7582 40.2866H82.8263C82.8786 40.2427 82.9271 40.1943 82.971 40.1419V40.1419C83.0128 40.0797 83.0498 40.0142 83.0816 39.9462V39.9462C84.342 36.4798 84.6044 32.7293 83.839 29.1212V29.1212ZM39.3049 79.3316V91.5608L30.4798 94.616L39.3049 79.3316ZM28.7777 97.535L29.1862 96.8372L39.3049 93.3395V98.4456L28.7777 97.535ZM41.0069 100.207V77.7062H43.96V100.207H41.0069ZM45.6621 78.9997L54.6659 94.599L45.6621 91.4842V78.9997ZM45.6621 98.4286V93.3225L55.9594 96.8797L56.3594 97.5691L45.6621 98.4286ZM48.147 71.9192C47.7733 71.786 47.3752 71.7353 46.98 71.7706C46.5849 71.8058 46.202 71.9262 45.8578 72.1234L45.2621 72.4639C44.6693 72.8096 44.2173 73.3531 43.9854 73.999C43.7535 74.6448 43.7565 75.3518 43.994 75.9956H41.1516C41.3867 75.3507 41.3876 74.6436 41.1543 73.9981C40.9209 73.3525 40.4682 72.8095 39.8751 72.4639L39.2794 72.1234C38.9087 71.9097 38.4931 71.7861 38.0659 71.7624C37.6387 71.7388 37.2119 71.8158 36.8199 71.9873V71.9107C36.8198 71.4665 36.9932 71.0399 37.3033 70.7219C37.6133 70.4039 38.0354 70.2197 38.4794 70.2086H46.4875C46.933 70.2198 47.3564 70.4052 47.6666 70.725C47.9769 71.0448 48.1494 71.4736 48.147 71.9192V71.9192ZM46.7343 64.26C46.7343 65.1016 46.4848 65.9242 46.0172 66.624C45.5497 67.3237 44.8851 67.8691 44.1076 68.1912C43.3301 68.5133 42.4745 68.5975 41.6491 68.4333C40.8237 68.2692 40.0655 67.8639 39.4704 67.2688C38.8753 66.6737 38.47 65.9155 38.3059 65.0901C38.1417 64.2647 38.2259 63.4091 38.548 62.6316C38.8701 61.8541 39.4155 61.1895 40.1152 60.722C40.815 60.2544 41.6376 60.0049 42.4792 60.0049C43.0387 60.0049 43.5927 60.1152 44.1096 60.3296C44.6264 60.5439 45.0958 60.8581 45.4911 61.2542C45.8863 61.6502 46.1995 62.1203 46.4129 62.6375C46.6262 63.1547 46.7355 63.709 46.7343 64.2685V64.26ZM7.94466 45.163C7.70871 44.7315 7.55029 44.262 7.4766 43.7758C7.41279 43.3413 7.41279 42.8998 7.4766 42.4652L13.2891 41.4695C13.3287 41.9267 13.394 42.3814 13.4848 42.8312C13.5784 43.2822 13.6891 43.6822 13.8167 44.1503L7.94466 45.163ZM15.1613 42.4993C14.8557 40.9082 14.8557 39.2735 15.1613 37.6825L22.4461 36.4315C21.9858 39.4025 22.493 42.4427 23.8929 45.1034L16.6166 46.3544C15.92 45.1595 15.4282 43.8565 15.1613 42.4993V42.4993ZM27.0757 40.4739C27.3604 41.7929 27.8303 43.065 28.4714 44.2524L25.68 44.729C24.9803 43.549 24.4827 42.2604 24.2077 40.9164C23.9021 39.3253 23.9021 37.6906 24.2077 36.0996L26.9991 35.6145C26.7602 37.2288 26.7976 38.8721 27.1097 40.4739H27.0757ZM39.4155 38.2952C39.1091 36.7071 39.1091 35.0751 39.4155 33.4869L42.2069 33.0019C41.9742 34.6112 42.0145 36.2482 42.326 37.8442C42.5851 39.1876 43.038 40.4862 43.6707 41.6993L40.8878 42.1759C40.1819 40.9745 39.6841 39.6625 39.4155 38.2952V38.2952ZM30.633 59.9963C30.2963 59.9963 29.9673 59.8965 29.6874 59.7095C29.4075 59.5225 29.1893 59.2566 29.0605 58.9456C28.9317 58.6346 28.8979 58.2924 28.9636 57.9622C29.0293 57.6321 29.1914 57.3288 29.4294 57.0908C29.6675 56.8527 29.9707 56.6906 30.3009 56.625C30.6311 56.5593 30.9733 56.593 31.2843 56.7218C31.5953 56.8506 31.8611 57.0688 32.0482 57.3487C32.2352 57.6286 32.335 57.9577 32.335 58.2943C32.335 58.7457 32.1557 59.1786 31.8365 59.4978C31.5173 59.817 31.0844 59.9963 30.633 59.9963ZM34.3349 59.6219L33.6286 55.4944L40.5899 54.303L40.8112 55.8348C40.8401 56.0393 40.9424 56.2263 41.099 56.361C41.2555 56.4956 41.4557 56.5688 41.6622 56.5667H41.7899C41.9006 56.5501 42.0069 56.5118 42.1028 56.454C42.1987 56.3962 42.2822 56.3201 42.3486 56.23C42.415 56.1398 42.463 56.0375 42.4898 55.9288C42.5166 55.8201 42.5217 55.7072 42.5048 55.5966L42.275 54.0222L44.1047 53.7073L44.3259 55.2561C44.3548 55.4606 44.4571 55.6476 44.6137 55.7823C44.7703 55.9169 44.9705 55.9901 45.177 55.988H45.3046C45.5265 55.9544 45.7261 55.8344 45.86 55.6543C45.9939 55.4742 46.0512 55.2485 46.0195 55.0264L45.7897 53.4349L48.1385 53.035L48.2236 53.5371L48.8449 57.1539L34.3349 59.6219ZM53.4489 57.0688C53.5007 57.3912 53.4243 57.7211 53.2362 57.9879C53.1441 58.1217 53.0256 58.2353 52.8881 58.3216C52.7505 58.408 52.5967 58.4653 52.4362 58.49L52.0532 58.5581C51.8939 58.5862 51.7306 58.5824 51.5727 58.5471C51.4149 58.5117 51.2656 58.4454 51.1334 58.3521C51.0013 58.2587 50.889 58.1401 50.8029 58.0031C50.7169 57.8661 50.6588 57.7135 50.632 57.5539L48.7598 46.6863L51.5767 46.2012L53.4489 57.0688ZM53.066 44.2524L52.1554 44.4056L47.6534 45.146L46.7173 45.2992L46.3088 42.9333L52.1894 41.9206L52.7085 41.827L53.066 44.2524ZM53.2106 39.9973L50.6576 40.4398L45.4578 41.3589C44.7616 40.1742 44.2643 38.8834 43.9855 37.5378C43.6799 35.9468 43.6799 34.3121 43.9855 32.721L54.3425 30.9424C54.3305 32.1987 54.4216 33.4539 54.6148 34.6954C54.8876 36.3587 55.3384 37.9878 55.9594 39.5547L53.2106 39.9973ZM82.0433 37.4442C80.7474 35.1711 79.8819 32.6784 79.4903 30.0914C79.1749 27.8777 79.218 25.6278 79.6179 23.4278C80.8321 25.2653 81.6976 27.3107 82.171 29.4616C82.7378 32.0974 82.6941 34.8279 82.0433 37.4442V37.4442Z" fill="currentColor"/>
<path d="M68.5392 35.4279L71.9008 34.9428C72.1265 34.9112 72.3304 34.7912 72.4676 34.6093C72.6049 34.4273 72.6642 34.1983 72.6326 33.9726C72.601 33.7469 72.4811 33.543 72.2991 33.4057C72.1172 33.2685 71.8882 33.2091 71.6625 33.2407L68.2584 33.7258C68.0327 33.7416 67.8225 33.8464 67.6741 34.0172C67.5256 34.188 67.4511 34.4107 67.4669 34.6364C67.4827 34.8621 67.5875 35.0723 67.7583 35.2207C67.9291 35.3691 68.1518 35.4437 68.3775 35.4279H68.5392Z" fill="currentColor"/>
<path d="M78.963 53.0605C78.044 53.0605 77.1456 53.3331 76.3815 53.8436C75.6174 54.3542 75.0218 55.0799 74.6701 55.929C74.3184 56.778 74.2264 57.7123 74.4057 58.6136C74.585 59.515 75.0275 60.3429 75.6774 60.9928C76.3272 61.6426 77.1551 62.0852 78.0565 62.2644C78.9578 62.4437 79.8921 62.3517 80.7412 62C81.5902 61.6483 82.3159 61.0528 82.8265 60.2886C83.3371 59.5245 83.6096 58.6261 83.6096 57.7071C83.6096 56.4748 83.12 55.2929 82.2486 54.4215C81.3772 53.5501 80.1954 53.0605 78.963 53.0605V53.0605ZM78.963 60.6432C78.3803 60.6432 77.8106 60.4703 77.3262 60.1463C76.8418 59.8224 76.4644 59.362 76.2418 58.8235C76.0192 58.2849 75.9614 57.6925 76.0757 57.121C76.19 56.5496 76.4713 56.025 76.8839 55.6135C77.2966 55.202 77.822 54.9223 78.3938 54.8096C78.9655 54.697 79.5578 54.7565 80.0957 54.9807C80.6336 55.2048 81.0929 55.5836 81.4154 56.0689C81.738 56.5543 81.9092 57.1244 81.9075 57.7071C81.9053 58.4866 81.5941 59.2334 81.0421 59.7837C80.4901 60.3341 79.7425 60.6432 78.963 60.6432Z" fill="currentColor"/>
<path d="M62.3008 53.9111C62.3025 54.5991 62.508 55.2712 62.8915 55.8425C63.275 56.4138 63.8192 56.8586 64.4554 57.1207C65.0915 57.3829 65.7911 57.4506 66.4657 57.3153C67.1404 57.1801 67.7598 56.8479 68.2457 56.3608C68.7316 55.8737 69.0623 55.2534 69.1959 54.5785C69.3295 53.9035 69.2601 53.2041 68.9964 52.5686C68.7327 51.9331 68.2866 51.39 67.7144 51.0079C67.1422 50.6258 66.4695 50.4219 65.7815 50.4219C65.3237 50.4219 64.8704 50.5122 64.4475 50.6876C64.0247 50.8631 63.6406 51.1202 63.3172 51.4444C62.9939 51.7685 62.7377 52.1532 62.5633 52.5765C62.3889 52.9997 62.2997 53.4533 62.3008 53.9111V53.9111ZM67.5601 53.9111C67.5584 54.2625 67.4527 54.6055 67.2562 54.8969C67.0598 55.1883 66.7814 55.4149 66.4563 55.5482C66.1311 55.6816 65.7738 55.7156 65.4293 55.646C65.0848 55.5764 64.7687 55.4063 64.5208 55.1572C64.2729 54.9082 64.1044 54.5912 64.0364 54.2464C63.9685 53.9017 64.0042 53.5445 64.1391 53.22C64.2739 52.8954 64.5019 52.6182 64.7942 52.4231C65.0865 52.228 65.4301 52.1239 65.7815 52.1239C66.254 52.1262 66.7064 52.3155 67.0397 52.6504C67.373 52.9853 67.5601 53.4386 67.5601 53.9111V53.9111Z" fill="currentColor"/>
<path d="M70.6316 13.9214C71.1753 13.9214 71.7067 13.7602 72.1588 13.4582C72.6108 13.1561 72.9631 12.7268 73.1712 12.2246C73.3792 11.7223 73.4337 11.1696 73.3276 10.6364C73.2216 10.1032 72.9598 9.61336 72.5753 9.22894C72.1909 8.84451 71.7011 8.58271 71.1679 8.47665C70.6347 8.37058 70.082 8.42502 69.5797 8.63307C69.0774 8.84112 68.6481 9.19344 68.3461 9.64548C68.044 10.0975 67.8828 10.629 67.8828 11.1726C67.8828 11.9017 68.1724 12.6008 68.6879 13.1163C69.2034 13.6318 69.9026 13.9214 70.6316 13.9214V13.9214ZM70.6316 10.1259C70.8387 10.1259 71.041 10.1873 71.2132 10.3023C71.3853 10.4173 71.5195 10.5808 71.5987 10.7721C71.6779 10.9633 71.6987 11.1738 71.6583 11.3768C71.6179 11.5799 71.5182 11.7664 71.3718 11.9128C71.2254 12.0592 71.0389 12.1589 70.8358 12.1993C70.6328 12.2397 70.4223 12.2189 70.231 12.1397C70.0398 12.0605 69.8763 11.9263 69.7613 11.7542C69.6463 11.582 69.5849 11.3797 69.5849 11.1726C69.5849 11.0352 69.6119 10.8991 69.6645 10.7721C69.7171 10.6451 69.7943 10.5297 69.8915 10.4325C69.9887 10.3353 70.104 10.2582 70.231 10.2056C70.358 10.153 70.4942 10.1259 70.6316 10.1259V10.1259Z" fill="currentColor"/>
<path d="M34.668 8.66173C34.7823 8.66381 34.8957 8.64056 34.9999 8.59365C35.1014 8.55216 35.1939 8.49148 35.2723 8.41493C35.3528 8.33476 35.4165 8.23927 35.4595 8.13409C35.5002 8.03119 35.5204 7.92135 35.5191 7.8107C35.5197 7.6987 35.4983 7.58768 35.4559 7.48399C35.4135 7.3803 35.3511 7.286 35.2723 7.20648C35.1939 7.12993 35.1014 7.06924 34.9999 7.02776C34.8441 6.96209 34.6723 6.94431 34.5064 6.9767C34.45 6.98459 34.3953 7.00185 34.3447 7.02776C34.2924 7.04476 34.2434 7.07067 34.2 7.10435L34.0383 7.20648C33.9968 7.24793 33.9597 7.29356 33.9277 7.34264C33.8971 7.38802 33.8714 7.43652 33.8511 7.48731C33.829 7.53949 33.8119 7.59363 33.8 7.64901C33.7958 7.70283 33.7958 7.75689 33.8 7.8107C33.8013 7.92191 33.8245 8.03178 33.8681 8.13409C33.9069 8.24146 33.9711 8.33782 34.0553 8.41493C34.1358 8.49483 34.2315 8.55782 34.3368 8.60021C34.442 8.64259 34.5546 8.66351 34.668 8.66173V8.66173Z" fill="currentColor"/>
<path d="M28.9331 25.1562C29.1588 25.1562 29.3752 25.0665 29.5348 24.9069C29.6944 24.7473 29.7841 24.5309 29.7841 24.3052C29.7866 24.1917 29.7663 24.0788 29.7245 23.9733C29.6705 23.8444 29.5856 23.7308 29.4773 23.6426C29.369 23.5543 29.2407 23.494 29.1036 23.4671C28.9665 23.4402 28.8248 23.4475 28.6912 23.4882C28.5576 23.529 28.436 23.6021 28.3373 23.7009C28.2552 23.7765 28.1912 23.8696 28.1501 23.9733C28.1054 24.0782 28.0823 24.1911 28.082 24.3052C28.0852 24.5296 28.177 24.7438 28.3373 24.9009C28.415 24.9805 28.5075 25.0441 28.6097 25.0881C28.712 25.1317 28.8218 25.1549 28.9331 25.1562Z" fill="currentColor"/>
<path d="M84.3356 85.4762C84.4387 85.4331 84.5337 85.3726 84.6165 85.2975C84.6962 85.2183 84.7595 85.1242 84.8027 85.0205C84.8459 84.9168 84.8682 84.8056 84.8682 84.6932C84.8682 84.5809 84.8459 84.4697 84.8027 84.3659C84.7595 84.2622 84.6962 84.1681 84.6165 84.089C84.5337 84.0138 84.4387 83.9534 84.3356 83.9103C84.1806 83.8451 84.0098 83.8273 83.8447 83.8591C83.6796 83.8909 83.5277 83.9709 83.408 84.089C83.288 84.208 83.2061 84.3601 83.1729 84.5259C83.1396 84.6916 83.1565 84.8635 83.2213 85.0196C83.2861 85.1757 83.396 85.309 83.5368 85.4024C83.6777 85.4959 83.8432 85.5452 84.0122 85.5443C84.1234 85.5429 84.2333 85.5198 84.3356 85.4762V85.4762Z" fill="currentColor"/>
<path d="M93.438 92.3192C93.5643 92.3195 93.689 92.2916 93.8032 92.2377C93.9173 92.1837 94.018 92.1051 94.098 92.0074C94.178 91.9097 94.2353 91.7954 94.2657 91.6729C94.296 91.5503 94.2987 91.4225 94.2736 91.2988C94.2485 91.1751 94.1961 91.0585 94.1203 90.9575C94.0446 90.8565 93.9473 90.7736 93.8355 90.7149C93.7237 90.6561 93.6003 90.623 93.4741 90.6179C93.348 90.6128 93.2223 90.6358 93.1061 90.6853C93.0047 90.7267 92.9122 90.7874 92.8338 90.864C92.754 90.9431 92.6907 91.0372 92.6475 91.1409C92.6043 91.2446 92.582 91.3559 92.582 91.4682C92.582 91.5806 92.6043 91.6918 92.6475 91.7955C92.6907 91.8992 92.754 91.9933 92.8338 92.0724C92.9122 92.149 93.0047 92.2097 93.1061 92.2512C93.2098 92.2998 93.3235 92.3231 93.438 92.3192V92.3192Z" fill="currentColor"/>
<path d="M103.311 84.1134C103.469 83.954 103.558 83.7383 103.558 83.5135C103.558 83.2886 103.469 83.0729 103.311 82.9135C103.151 82.755 102.936 82.666 102.711 82.666C102.486 82.666 102.27 82.755 102.111 82.9135C101.952 83.0729 101.863 83.2886 101.863 83.5135C101.863 83.7383 101.952 83.954 102.111 84.1134C102.19 84.1923 102.285 84.2547 102.388 84.2971C102.492 84.3394 102.603 84.3609 102.715 84.3602C102.938 84.3593 103.152 84.2707 103.311 84.1134V84.1134Z" fill="currentColor"/>
<path d="M6.21915 7.56602C6.31964 7.61844 6.42959 7.65027 6.54254 7.65963C6.76786 7.65649 6.98368 7.56834 7.14677 7.41283C7.22194 7.33011 7.28238 7.23513 7.32548 7.13199C7.36909 7.02968 7.39222 6.91981 7.39356 6.80861C7.39774 6.75195 7.39774 6.69506 7.39356 6.6384C7.38425 6.58509 7.36704 6.53346 7.3425 6.48522C7.32388 6.43099 7.29812 6.37947 7.26591 6.33203L7.14677 6.17885C7.02709 6.06076 6.87512 5.98077 6.71003 5.94896C6.54494 5.91716 6.37413 5.93496 6.21915 6.00013C6.12001 6.0412 6.03025 6.10201 5.95533 6.17885C5.87026 6.25992 5.8029 6.35772 5.7575 6.46611C5.71209 6.57449 5.68963 6.69111 5.69152 6.80861C5.69016 6.91925 5.7104 7.0291 5.75109 7.13199C5.80305 7.22883 5.87227 7.31535 5.95533 7.3873C6.03025 7.46414 6.12001 7.52495 6.21915 7.56602Z" fill="currentColor"/>
</g>
<defs>
<clipPath id="clip0_5219_329">
<rect width="108.931" height="108.931" fill="white"/>
</clipPath>
</defs>
</svg>
