<svg width="109" height="109" viewBox="0 0 109 109" fill="none" xmlns="http://www.w3.org/2000/svg">
<g clip-path="url(#clip0_5219_348)">
<path d="M52.901 106.803H48.8586V100.752C48.859 100.59 48.8127 100.43 48.7252 100.293C48.6377 100.156 48.5127 100.046 48.365 99.9781C45.2795 98.5562 41.9925 97.6204 38.6208 97.2037C39.8564 96.1936 40.7947 94.8671 41.3356 93.3656C41.7436 93.1647 42.0991 92.8713 42.3736 92.5087C42.6482 92.1462 42.8342 91.7244 42.9169 91.2772C42.9995 90.83 42.9765 90.3696 42.8498 89.9329C42.723 89.4961 42.4959 89.095 42.1866 88.7616C42.3747 88.0015 42.469 87.2212 42.4674 86.4383C42.4674 81.7066 39.0633 77.9961 34.6295 77.9961C30.1956 77.9961 26.7915 81.7066 26.7915 86.4383C26.79 87.2212 26.8843 88.0015 27.0724 88.7616C26.5689 89.3058 26.2893 90.02 26.2894 90.7615C26.2868 91.3047 26.4381 91.8376 26.7257 92.2985C27.0134 92.7593 27.4257 93.1293 27.9149 93.3656C28.4612 94.8665 29.4019 96.1924 30.6382 97.2037C27.2689 97.6192 23.9846 98.5551 20.9025 99.9781C20.7547 100.046 20.6297 100.156 20.5422 100.293C20.4547 100.43 20.4085 100.59 20.4089 100.752V106.803H16.7495C16.5238 106.803 16.3073 106.893 16.1477 107.053C15.9881 107.212 15.8984 107.429 15.8984 107.654C15.8984 107.88 15.9881 108.096 16.1477 108.256C16.3073 108.416 16.5238 108.505 16.7495 108.505H29.8637C30.0895 108.505 30.3059 108.416 30.4655 108.256C30.6251 108.096 30.7148 107.88 30.7148 107.654C30.7148 107.429 30.6251 107.212 30.4655 107.053C30.3059 106.893 30.0895 106.803 29.8637 106.803H22.1279V101.272C26.0751 99.5262 30.3434 98.6246 34.6593 98.6246C38.9751 98.6246 43.2434 99.5262 47.1906 101.272V106.778H36.306C36.0803 106.778 35.8638 106.867 35.7042 107.027C35.5446 107.187 35.455 107.403 35.455 107.629C35.455 107.854 35.5446 108.071 35.7042 108.231C35.8638 108.39 36.0803 108.48 36.306 108.48H52.901C53.1267 108.48 53.3431 108.39 53.5027 108.231C53.6623 108.071 53.752 107.854 53.752 107.629C53.752 107.403 53.6623 107.187 53.5027 107.027C53.3431 106.867 53.1267 106.778 52.901 106.778V106.803ZM29.3872 92.4465C29.3435 92.3139 29.2678 92.1941 29.1669 92.0976C29.066 92.0011 28.9429 91.931 28.8085 91.8933C28.5621 91.8242 28.3452 91.6759 28.1914 91.4714C28.0376 91.2668 27.9554 91.0174 27.9574 90.7615C27.9547 90.5655 28.0007 90.3719 28.0913 90.1981C28.182 90.0243 28.3143 89.8757 28.4766 89.7658C28.6296 89.6638 28.7455 89.5149 28.8068 89.3416C28.8682 89.1682 28.8718 88.9797 28.817 88.8041C28.5789 88.0381 28.4584 87.2404 28.4596 86.4383C28.4596 82.6597 31.1573 79.6981 34.5954 79.6981C38.0336 79.6981 40.7313 82.6597 40.7313 86.4383C40.7325 87.2404 40.612 88.0381 40.3739 88.8041C40.3191 88.9797 40.3227 89.1682 40.384 89.3416C40.4454 89.5149 40.5613 89.6638 40.7143 89.7658C40.8755 89.8768 41.007 90.0256 41.0975 90.1991C41.188 90.3727 41.2347 90.5657 41.2334 90.7615C41.2355 91.0174 41.1532 91.2668 40.9994 91.4714C40.8456 91.6759 40.6288 91.8242 40.3824 91.8933C40.2495 91.9322 40.1282 92.0029 40.0288 92.0993C39.9294 92.1957 39.8551 92.3149 39.8122 92.4465C38.8931 95.1783 36.8336 96.9484 34.5699 96.9484C32.3062 96.9484 30.3063 95.1783 29.3872 92.4465Z" fill="#383838"/>
<path d="M28.3189 77.9364C28.5446 77.9364 28.761 77.8468 28.9206 77.6872C29.0802 77.5276 29.1699 77.3111 29.1699 77.0854V74.0388C29.1703 73.876 29.124 73.7165 29.0365 73.5792C28.949 73.442 28.824 73.3327 28.6763 73.2643C25.5901 71.8442 22.3034 70.9084 18.9321 70.49C20.1674 69.4813 21.1081 68.1584 21.6553 66.6604C22.0647 66.4609 22.4216 66.1681 22.6972 65.8055C22.9728 65.443 23.1595 65.0209 23.2423 64.573C23.3251 64.1252 23.3016 63.6642 23.1738 63.2271C23.046 62.79 22.8174 62.389 22.5064 62.0563C22.7009 61.2944 22.7981 60.5109 22.7957 59.7245C22.7899 58.5011 22.5381 57.2914 22.0553 56.1672C22.0147 56.0601 21.953 55.9623 21.8737 55.8797C21.7944 55.797 21.6992 55.7312 21.5939 55.6862C21.4886 55.6412 21.3753 55.6179 21.2607 55.6178C21.1462 55.6176 21.0328 55.6406 20.9274 55.6853C20.8219 55.73 20.7266 55.7955 20.6471 55.8779C20.5675 55.9603 20.5055 56.058 20.4646 56.165C20.4237 56.272 20.4048 56.3861 20.4091 56.5005C20.4134 56.615 20.4407 56.7274 20.4894 56.831C20.8835 57.7594 21.0834 58.7586 21.0766 59.7671C21.0776 60.5664 20.9571 61.3613 20.7192 62.1244C20.6636 62.2991 20.6659 62.487 20.7257 62.6603C20.7855 62.8336 20.8996 62.9829 21.0511 63.0861C21.2149 63.1951 21.349 63.3432 21.4411 63.5171C21.5332 63.6909 21.5806 63.885 21.5787 64.0818C21.5808 64.3377 21.4986 64.5872 21.3448 64.7917C21.191 64.9963 20.9741 65.1445 20.7277 65.2136C20.5933 65.2513 20.4702 65.3215 20.3693 65.4179C20.2684 65.5144 20.1927 65.6342 20.149 65.7668C19.2299 68.4986 17.179 70.2687 14.9152 70.2687C12.6515 70.2687 10.592 68.4986 9.67292 65.7668C9.62923 65.6342 9.5536 65.5144 9.45268 65.4179C9.35176 65.3215 9.22866 65.2513 9.09422 65.2136C8.84781 65.1445 8.63098 64.9963 8.47719 64.7917C8.32339 64.5872 8.24116 64.3377 8.2432 64.0818C8.2414 63.885 8.28871 63.6909 8.38084 63.5171C8.47297 63.3432 8.60701 63.1951 8.77083 63.0861C8.92386 62.9841 9.03973 62.8353 9.1011 62.6619C9.16247 62.4885 9.16603 62.3 9.11124 62.1244C8.86975 61.359 8.74635 60.5612 8.7453 59.7586C8.7453 55.98 11.4431 53.0185 14.8897 53.0185C16.1098 53.012 17.3009 53.3901 18.2938 54.0993C18.3853 54.1646 18.4888 54.2111 18.5983 54.2362C18.7079 54.2613 18.8213 54.2644 18.9321 54.2454C19.0428 54.2264 19.1488 54.1857 19.2437 54.1256C19.3386 54.0654 19.4207 53.9871 19.4852 53.895C19.6144 53.7109 19.6655 53.4831 19.6272 53.2614C19.5889 53.0397 19.4645 52.8422 19.281 52.7121C18.0068 51.8031 16.4804 51.3151 14.9152 51.3164C10.5154 51.3164 7.06879 55.0269 7.06879 59.7586C7.07615 60.5571 7.1819 61.3517 7.38367 62.1244C7.0709 62.4563 6.84076 62.8572 6.71189 63.2947C6.58302 63.7321 6.55906 64.1938 6.64195 64.6422C6.72484 65.0906 6.91225 65.5132 7.18897 65.8757C7.4657 66.2382 7.82396 66.5303 8.23469 66.7285C8.77576 68.2275 9.71414 69.5512 10.9495 70.5581C7.57702 70.9648 4.28747 71.8891 1.19672 73.2984C1.05414 73.3642 0.932561 73.4682 0.845444 73.5989C0.758328 73.7296 0.70907 73.8818 0.703125 74.0388V80.9406C0.703125 81.1663 0.792786 81.3827 0.952384 81.5423C1.11198 81.7019 1.32844 81.7916 1.55415 81.7916H24.1148C24.3405 81.7916 24.557 81.7019 24.7166 81.5423C24.8762 81.3827 24.9658 81.1663 24.9658 80.9406C24.9658 80.7149 24.8762 80.4984 24.7166 80.3388C24.557 80.1792 24.3405 80.0895 24.1148 80.0895H2.40517V74.6175C6.35235 72.872 10.6206 71.9704 14.9365 71.9704C19.2524 71.9704 23.5207 72.872 27.4678 74.6175V77.0854C27.4678 77.3111 27.5575 77.5276 27.7171 77.6872C27.8767 77.8468 28.0932 77.9364 28.3189 77.9364V77.9364Z" fill="#383838"/>
<path d="M1.55415 83.5879C1.32844 83.5879 1.11198 83.6776 0.952384 83.8371C0.792786 83.9967 0.703125 84.2132 0.703125 84.4389C0.703125 84.6646 0.792786 84.8811 0.952384 85.0407C1.11198 85.2003 1.32844 85.2899 1.55415 85.2899H22.3957C22.6214 85.2899 22.8379 85.2003 22.9975 85.0407C23.1571 84.8811 23.2468 84.6646 23.2468 84.4389C23.2468 84.2132 23.1571 83.9967 22.9975 83.8371C22.8379 83.6776 22.6214 83.5879 22.3957 83.5879H1.55415Z" fill="#383838"/>
<path d="M64.926 80.9741C64.926 80.7484 64.8363 80.5319 64.6767 80.3723C64.5171 80.2127 64.3007 80.123 64.075 80.123H44.8588C44.6331 80.123 44.4167 80.2127 44.2571 80.3723C44.0975 80.5319 44.0078 80.7484 44.0078 80.9741C44.0078 81.1998 44.0975 81.4162 44.2571 81.5758C44.4167 81.7354 44.6331 81.8251 44.8588 81.8251H64.075C64.3007 81.8251 64.5171 81.7354 64.6767 81.5758C64.8363 81.4162 64.926 81.1998 64.926 80.9741Z" fill="#383838"/>
<path d="M67.8409 77.9364C68.0666 77.9364 68.2831 77.8468 68.4427 77.6872C68.6023 77.5276 68.6919 77.3111 68.6919 77.0854V74.0388C68.6923 73.876 68.646 73.7165 68.5586 73.5792C68.4711 73.442 68.3461 73.3327 68.1983 73.2643C65.1128 71.857 61.8292 70.9327 58.4626 70.524C59.6979 69.5172 60.6363 68.1934 61.1774 66.6944C61.5854 66.4936 61.9409 66.2002 62.2155 65.8376C62.49 65.475 62.676 65.0533 62.7587 64.606C62.8414 64.1588 62.8184 63.6985 62.6916 63.2617C62.5648 62.8249 62.3377 62.4238 62.0284 62.0904C62.2159 61.3273 62.3102 60.5443 62.3092 59.7586C62.3092 55.0269 58.9052 51.3164 54.4713 51.3164C50.0375 51.3164 46.6334 55.0269 46.6334 59.7586C46.6268 60.5554 46.7183 61.3499 46.9057 62.1244C46.5964 62.4579 46.3693 62.859 46.2425 63.2957C46.1157 63.7325 46.0928 64.1929 46.1754 64.6401C46.2581 65.0873 46.4441 65.509 46.7187 65.8716C46.9932 66.2342 47.3487 66.5276 47.7567 66.7285C48.2978 68.2275 49.2362 69.5512 50.4715 70.5581C47.1031 70.9776 43.8194 71.9133 40.7358 73.3324C40.5881 73.4008 40.463 73.5101 40.3756 73.6473C40.2881 73.7846 40.2418 73.9441 40.2422 74.1068V77.1195C40.2422 77.3452 40.3319 77.5616 40.4914 77.7212C40.651 77.8808 40.8675 77.9705 41.0932 77.9705C41.3189 77.9705 41.5354 77.8808 41.695 77.7212C41.8546 77.5616 41.9442 77.3452 41.9442 77.1195V74.6515C45.89 72.9063 50.1568 72.0047 54.4713 72.0047C58.7858 72.0047 63.0527 72.9063 66.9984 74.6515V77.1195C67.0071 77.3378 67.0995 77.5443 67.2563 77.6964C67.4131 77.8485 67.6225 77.9344 67.8409 77.9364ZM49.229 65.7668C49.1853 65.6342 49.1097 65.5144 49.0088 65.4179C48.9078 65.3215 48.7847 65.2513 48.6503 65.2136C48.4039 65.1445 48.1871 64.9963 48.0333 64.7917C47.8795 64.5872 47.7972 64.3377 47.7993 64.0818C47.798 63.8861 47.8447 63.693 47.9352 63.5195C48.0257 63.3459 48.1572 63.1971 48.3184 63.0861C48.4714 62.9841 48.5873 62.8353 48.6487 62.6619C48.71 62.4885 48.7136 62.3 48.6588 62.1244C48.4201 61.3586 48.2996 60.5608 48.3014 59.7586C48.3014 55.98 50.9991 53.0185 54.4373 53.0185C57.8754 53.0185 60.5732 55.98 60.5732 59.7586C60.5833 60.5595 60.4714 61.3572 60.2413 62.1244C60.1865 62.3 60.19 62.4885 60.2514 62.6619C60.3128 62.8353 60.4286 62.9841 60.5817 63.0861C60.7428 63.1971 60.8744 63.3459 60.9649 63.5195C61.0554 63.693 61.102 63.8861 61.1008 64.0818C61.1028 64.3377 61.0206 64.5872 60.8668 64.7917C60.713 64.9963 60.4962 65.1445 60.2498 65.2136C60.1153 65.2513 59.9922 65.3215 59.8913 65.4179C59.7904 65.5144 59.7148 65.6342 59.6711 65.7668C58.7605 68.4986 56.701 70.2687 54.4373 70.2687C52.1736 70.2687 50.1396 68.4986 49.229 65.7668Z" fill="#383838"/>
<path d="M47.2065 83.5879C46.9808 83.5879 46.7643 83.6776 46.6047 83.8371C46.4451 83.9967 46.3555 84.2132 46.3555 84.4389C46.3555 84.6646 46.4451 84.8811 46.6047 85.0407C46.7643 85.2003 46.9808 85.2899 47.2065 85.2899H61.725C61.9507 85.2899 62.1671 85.2003 62.3267 85.0407C62.4863 84.8811 62.576 84.6646 62.576 84.4389C62.576 84.2132 62.4863 83.9967 62.3267 83.8371C62.1671 83.6776 61.9507 83.5879 61.725 83.5879H47.2065Z" fill="#383838"/>
<path d="M107.374 83.5879H86.7026C86.4769 83.5879 86.2604 83.6776 86.1008 83.8371C85.9412 83.9967 85.8516 84.2132 85.8516 84.4389C85.8516 84.6646 85.9412 84.8811 86.1008 85.0407C86.2604 85.2003 86.4769 85.2899 86.7026 85.2899H107.374C107.6 85.2899 107.816 85.2003 107.976 85.0407C108.135 84.8811 108.225 84.6646 108.225 84.4389C108.225 84.2132 108.135 83.9967 107.976 83.8371C107.816 83.6776 107.6 83.5879 107.374 83.5879V83.5879Z" fill="#383838"/>
<path d="M94.2392 81.8251C94.4649 81.8251 94.6813 81.7354 94.8409 81.5758C95.0005 81.4162 95.0902 81.1998 95.0902 80.9741C95.0902 80.7484 95.0005 80.5319 94.8409 80.3723C94.6813 80.2127 94.4649 80.123 94.2392 80.123H87.2182C86.9925 80.123 86.776 80.2127 86.6164 80.3723C86.4568 80.5319 86.3672 80.7484 86.3672 80.9741C86.3672 81.1998 86.4568 81.4162 86.6164 81.5758C86.776 81.7354 86.9925 81.8251 87.2182 81.8251H94.2392Z" fill="#383838"/>
<path d="M107.731 73.2984C104.645 71.8782 101.358 70.9424 97.9868 70.524C99.2221 69.5172 100.16 68.1934 100.702 66.6944C101.11 66.4936 101.465 66.2002 101.74 65.8376C102.014 65.475 102.2 65.0533 102.283 64.606C102.365 64.1588 102.343 63.6985 102.216 63.2617C102.089 62.8249 101.862 62.4238 101.553 62.0904C101.743 61.3277 101.84 60.5447 101.842 59.7586C101.842 55.0269 98.4378 51.3164 93.9954 51.3164C89.5531 51.3164 86.1575 55.0269 86.1575 59.7586C86.1593 60.5447 86.2565 61.3277 86.4469 62.0904C86.1341 62.4223 85.904 62.8232 85.7751 63.2606C85.6462 63.6981 85.6223 64.1597 85.7051 64.6082C85.788 65.0566 85.9754 65.4792 86.2522 65.8416C86.5289 66.2041 86.8872 66.4963 87.2979 66.6944C87.839 68.1934 88.7773 69.5172 90.0127 70.524C86.6355 70.9407 83.3429 71.8765 80.2514 73.2984C80.1037 73.3667 79.9787 73.476 79.8912 73.6133C79.8037 73.7506 79.7574 73.91 79.7578 74.0728V77.1875C79.7578 77.4132 79.8475 77.6297 80.0071 77.7893C80.1667 77.9489 80.3831 78.0386 80.6088 78.0386C80.8345 78.0386 81.051 77.9489 81.2106 77.7893C81.3702 77.6297 81.4599 77.4132 81.4599 77.1875V74.6345C85.407 72.889 89.6753 71.9874 93.9912 71.9874C98.3071 71.9874 102.575 72.889 106.523 74.6345V80.1406H101.476C101.25 80.1406 101.034 80.2303 100.874 80.3899C100.715 80.5495 100.625 80.7659 100.625 80.9916C100.625 81.2173 100.715 81.4338 100.874 81.5934C101.034 81.753 101.25 81.8426 101.476 81.8426H107.374C107.599 81.8426 107.816 81.753 107.975 81.5934C108.135 81.4338 108.225 81.2173 108.225 80.9916V74.0388C108.219 73.8818 108.169 73.7296 108.082 73.5989C107.995 73.4682 107.874 73.3642 107.731 73.2984ZM88.7531 65.7668C88.7095 65.6342 88.6338 65.5144 88.5329 65.4179C88.432 65.3215 88.3089 65.2513 88.1744 65.2136C87.928 65.1445 87.7112 64.9963 87.5574 64.7917C87.4036 64.5872 87.3214 64.3377 87.3234 64.0818C87.3216 63.885 87.3689 63.6909 87.4611 63.5171C87.5532 63.3432 87.6872 63.1951 87.8511 63.0861C88.0041 62.9841 88.12 62.8353 88.1813 62.6619C88.2427 62.4885 88.2462 62.3 88.1915 62.1244C87.9462 61.3599 87.8227 60.5615 87.8255 59.7586C87.8255 55.98 90.5233 53.0185 93.9614 53.0185C97.3995 53.0185 100.106 55.98 100.106 59.7586C100.105 60.5612 99.982 61.3591 99.7399 62.1244C99.6851 62.3 99.6886 62.4885 99.75 62.6619C99.8114 62.8353 99.9272 62.9841 100.08 63.0861C100.243 63.1955 100.376 63.3439 100.467 63.5179C100.557 63.6918 100.603 63.8857 100.599 64.0818C100.603 64.338 100.521 64.5882 100.367 64.793C100.213 64.9979 99.9955 65.1458 99.7484 65.2136C99.6139 65.2513 99.4908 65.3215 99.3899 65.4179C99.289 65.5144 99.2134 65.6342 99.1697 65.7668C98.2506 68.4986 96.1996 70.2687 93.9274 70.2687C91.6551 70.2687 89.6722 68.4986 88.7531 65.7668Z" fill="#383838"/>
<path d="M107.372 106.803H88.718V100.752C88.7184 100.59 88.6721 100.43 88.5846 100.293C88.4971 100.156 88.3721 100.046 88.2244 99.9781C85.1422 98.5551 81.8579 97.6192 78.4887 97.2037C79.7218 96.1913 80.6595 94.8655 81.2034 93.3656C81.6926 93.1293 82.1049 92.7593 82.3926 92.2985C82.6803 91.8376 82.8315 91.3047 82.8289 90.7615C82.829 90.02 82.5494 89.3058 82.046 88.7616C82.2341 88.0015 82.3284 87.2212 82.3268 86.4383C82.3268 81.7066 78.9227 77.9961 74.4889 77.9961C70.055 77.9961 66.6509 81.7066 66.6509 86.4383C66.6494 87.2212 66.7437 88.0015 66.9318 88.7616C66.6225 89.095 66.3954 89.4961 66.2686 89.9329C66.1418 90.3696 66.1188 90.83 66.2015 91.2772C66.2841 91.7244 66.4702 92.1462 66.7447 92.5087C67.0193 92.8713 67.3747 93.1647 67.7828 93.3656C68.3237 94.8671 69.2619 96.1936 70.4976 97.2037C67.1258 97.6204 63.8389 98.5562 60.7533 99.9781C60.6072 100.048 60.4839 100.157 60.398 100.295C60.3121 100.432 60.2671 100.591 60.2682 100.752V106.803H56.6088C56.3831 106.803 56.1667 106.893 56.0071 107.053C55.8475 107.212 55.7578 107.429 55.7578 107.654C55.7578 107.88 55.8475 108.096 56.0071 108.256C56.1667 108.416 56.3831 108.505 56.6088 108.505H107.381C107.607 108.505 107.823 108.416 107.983 108.256C108.142 108.096 108.232 107.88 108.232 107.654C108.232 107.429 108.142 107.212 107.983 107.053C107.823 106.893 107.607 106.803 107.381 106.803H107.372ZM69.2466 92.4465C69.2037 92.3149 69.1293 92.1957 69.03 92.0993C68.9306 92.0029 68.8092 91.9322 68.6764 91.8933C68.4299 91.8242 68.2131 91.6759 68.0593 91.4714C67.9055 91.2668 67.8233 91.0174 67.8253 90.7615C67.8226 90.5655 67.8686 90.3719 67.9592 90.1981C68.0498 90.0243 68.1822 89.8757 68.3445 89.7658C68.4975 89.6638 68.6134 89.5149 68.6747 89.3416C68.7361 89.1682 68.7397 88.9797 68.6849 88.8041C68.4468 88.0381 68.3263 87.2404 68.3274 86.4383C68.3274 82.6597 71.0167 79.6981 74.4633 79.6981C77.91 79.6981 80.5992 82.6597 80.5992 86.4383C80.6004 87.2404 80.4799 88.0381 80.2418 88.8041C80.187 88.9797 80.1906 89.1682 80.2519 89.3416C80.3133 89.5149 80.4292 89.6638 80.5822 89.7658C80.7434 89.8768 80.8749 90.0256 80.9654 90.1991C81.0559 90.3727 81.1026 90.5657 81.1013 90.7615C81.1034 91.0174 81.0211 91.2668 80.8673 91.4714C80.7135 91.6759 80.4967 91.8242 80.2503 91.8933C80.1159 91.931 79.9928 92.0011 79.8918 92.0976C79.7909 92.1941 79.7153 92.3139 79.6716 92.4465C78.761 95.1783 76.7015 96.9484 74.4378 96.9484C72.1741 96.9484 70.1657 95.1783 69.2466 92.4465ZM61.9618 101.272C65.9075 99.5264 70.1744 98.6249 74.4889 98.6249C78.8033 98.6249 83.0702 99.5264 87.0159 101.272V106.778H61.9618V101.272Z" fill="#383838"/>
<path d="M11.6473 106.803H1.55415C1.32844 106.803 1.11198 106.892 0.952384 107.052C0.792786 107.212 0.703125 107.428 0.703125 107.654C0.703125 107.879 0.792786 108.096 0.952384 108.256C1.11198 108.415 1.32844 108.505 1.55415 108.505H11.6473C11.873 108.505 12.0895 108.415 12.2491 108.256C12.4087 108.096 12.4983 107.879 12.4983 107.654C12.4983 107.428 12.4087 107.212 12.2491 107.052C12.0895 106.892 11.873 106.803 11.6473 106.803Z" fill="#383838"/>
<path d="M80.447 46.4819C80.447 46.2562 80.3573 46.0397 80.1977 45.8801C80.0381 45.7205 79.8216 45.6309 79.5959 45.6309H28.2026C27.9769 45.6309 27.7604 45.7205 27.6008 45.8801C27.4412 46.0397 27.3516 46.2562 27.3516 46.4819C27.3516 46.7076 27.4412 46.9241 27.6008 47.0836C27.7604 47.2432 27.9769 47.3329 28.2026 47.3329H79.5959C79.8216 47.3329 80.0381 47.2432 80.1977 47.0836C80.3573 46.9241 80.447 46.7076 80.447 46.4819Z" fill="#383838"/>
<path d="M87.2221 45.6302C86.9964 45.6302 86.78 45.7199 86.6204 45.8795C86.4608 46.0391 86.3711 46.2556 86.3711 46.4813C86.3711 46.707 86.4608 46.9234 86.6204 47.083C86.78 47.2426 86.9964 47.3323 87.2221 47.3323H93.2814C93.5071 47.3323 93.7236 47.2426 93.8832 47.083C94.0428 46.9234 94.1325 46.707 94.1325 46.4813V1.27485C94.1325 1.04915 94.0428 0.832685 93.8832 0.673087C93.7236 0.513489 93.5071 0.423828 93.2814 0.423828H14.1362C13.9105 0.423828 13.694 0.513489 13.5344 0.673087C13.3748 0.832685 13.2852 1.04915 13.2852 1.27485V46.4813C13.2852 46.707 13.3748 46.9234 13.5344 47.083C13.694 47.2426 13.9105 47.3323 14.1362 47.3323H22.3996C22.6253 47.3323 22.8418 47.2426 23.0014 47.083C23.161 46.9234 23.2506 46.707 23.2506 46.4813C23.2506 46.2556 23.161 46.0391 23.0014 45.8795C22.8418 45.7199 22.6253 45.6302 22.3996 45.6302H14.9872V2.12588H92.4304V45.6302H87.2221Z" fill="#383838"/>
<path d="M48.6433 8.59375H23.019C22.7933 8.59375 22.5768 8.68341 22.4172 8.84301C22.2576 9.00261 22.168 9.21907 22.168 9.44477C22.168 9.67048 22.2576 9.88694 22.4172 10.0465C22.5768 10.2061 22.7933 10.2958 23.019 10.2958H48.6433C48.869 10.2958 49.0855 10.2061 49.2451 10.0465C49.4047 9.88694 49.4944 9.67048 49.4944 9.44477C49.4944 9.21907 49.4047 9.00261 49.2451 8.84301C49.0855 8.68341 48.869 8.59375 48.6433 8.59375Z" fill="#383838"/>
<path d="M23.0186 14.3642H34.8904C35.1161 14.3642 35.3325 14.2745 35.4921 14.1149C35.6517 13.9553 35.7414 13.7388 35.7414 13.5131C35.7414 13.2874 35.6517 13.071 35.4921 12.9114C35.3325 12.7518 35.1161 12.6621 34.8904 12.6621H22.976C22.7503 12.6621 22.5339 12.7518 22.3743 12.9114C22.2147 13.071 22.125 13.2874 22.125 13.5131C22.125 13.7388 22.2147 13.9553 22.3743 14.1149C22.5339 14.2745 22.7503 14.3642 22.976 14.3642H23.0186Z" fill="#383838"/>
<path d="M53.0036 34.0391H41.0893C40.8636 34.0391 40.6471 34.1287 40.4875 34.2883C40.3279 34.4479 40.2383 34.6644 40.2383 34.8901C40.2383 35.1158 40.3279 35.3323 40.4875 35.4919C40.6471 35.6515 40.8636 35.7411 41.0893 35.7411H53.0036C53.2294 35.7411 53.4458 35.6515 53.6054 35.4919C53.765 35.3323 53.8547 35.1158 53.8547 34.8901C53.8547 34.6644 53.765 34.4479 53.6054 34.2883C53.4458 34.1287 53.2294 34.0391 53.0036 34.0391Z" fill="#383838"/>
<path d="M53.0035 37.7324H46.0932C45.8675 37.7324 45.651 37.8221 45.4914 37.9817C45.3318 38.1413 45.2422 38.3577 45.2422 38.5834C45.2422 38.8092 45.3318 39.0256 45.4914 39.1852C45.651 39.3448 45.8675 39.4345 46.0932 39.4345H53.0035C53.2292 39.4345 53.4457 39.3448 53.6053 39.1852C53.7649 39.0256 53.8546 38.8092 53.8546 38.5834C53.8546 38.3577 53.7649 38.1413 53.6053 37.9817C53.4457 37.8221 53.2292 37.7324 53.0035 37.7324V37.7324Z" fill="#383838"/>
<path d="M29.4272 33.0517C30.8633 33.0517 32.2672 32.6257 33.4611 31.8277C34.6551 31.0297 35.5855 29.8954 36.1347 28.5685C36.6839 27.2415 36.8271 25.7815 36.5463 24.3731C36.2655 22.9647 35.5733 21.6713 34.5573 20.6564C33.5412 19.6415 32.2469 18.9508 30.8382 18.6717C29.4295 18.3925 27.9696 18.5375 26.6433 19.0882C25.317 19.639 24.1839 20.5707 23.3872 21.7656C22.5906 22.9605 22.1663 24.3649 22.168 25.801C22.1725 27.7241 22.939 29.567 24.2996 30.926C25.6603 32.2851 27.5041 33.0494 29.4272 33.0517V33.0517ZM29.4272 20.2438C30.5263 20.2438 31.6007 20.5697 32.5146 21.1803C33.4285 21.791 34.1408 22.6589 34.5614 23.6743C34.982 24.6898 35.092 25.8071 34.8776 26.8851C34.6632 27.9631 34.1339 28.9533 33.3567 29.7305C32.5795 30.5077 31.5894 31.0369 30.5114 31.2514C29.4334 31.4658 28.316 31.3557 27.3006 30.9351C26.2851 30.5145 25.4172 29.8022 24.8066 28.8884C24.1959 27.9745 23.87 26.9001 23.87 25.801C23.8723 24.3278 24.4585 22.9156 25.5002 21.8739C26.5419 20.8322 27.954 20.246 29.4272 20.2438V20.2438Z" fill="#383838"/>
<path d="M50.2709 22.5176C49.4959 22.5159 48.7378 22.7443 48.0928 23.1738C47.4477 23.6033 46.9446 24.2146 46.6473 24.9303C46.3499 25.6459 46.2717 26.4338 46.4225 27.1939C46.5732 27.9541 46.9463 28.6524 47.4942 29.2004C48.0422 29.7484 48.7406 30.1214 49.5007 30.2722C50.2609 30.423 51.0487 30.3447 51.7644 30.0474C52.4801 29.75 53.0914 29.247 53.5209 28.6019C53.9504 27.9568 54.1788 27.1988 54.1771 26.4238C54.1748 25.3885 53.7626 24.3962 53.0305 23.6642C52.2984 22.9321 51.3062 22.5198 50.2709 22.5176V22.5176ZM50.2709 28.6365C49.8329 28.6381 49.4043 28.5098 49.0393 28.2677C48.6743 28.0256 48.3894 27.6806 48.2206 27.2765C48.0518 26.8723 48.0068 26.4271 48.0912 25.9974C48.1756 25.5676 48.3857 25.1725 48.6948 24.8622C49.0039 24.5519 49.3981 24.3404 49.8276 24.2543C50.257 24.1682 50.7023 24.2115 51.1071 24.3788C51.5119 24.546 51.858 24.8296 52.1015 25.1936C52.345 25.5577 52.475 25.9858 52.475 26.4238C52.475 27.0092 52.2431 27.5707 51.83 27.9854C51.4168 28.4001 50.8562 28.6342 50.2709 28.6365V28.6365Z" fill="#383838"/>
<path d="M67.2294 29.3076H76.4885C76.6385 29.3082 76.7859 29.2692 76.9159 29.1944C77.046 29.1197 77.1539 29.012 77.2289 28.8821L81.8585 20.8655C81.9332 20.7361 81.9725 20.5893 81.9725 20.4399C81.9725 20.2906 81.9332 20.1438 81.8585 20.0144L77.2289 11.9978C77.1539 11.8679 77.046 11.7602 76.9159 11.6854C76.7859 11.6107 76.6385 11.5717 76.4885 11.5723H67.2294C67.0794 11.5717 66.932 11.6107 66.8019 11.6854C66.6719 11.7602 66.564 11.8679 66.489 11.9978L61.8679 20.0144C61.7932 20.1438 61.7539 20.2906 61.7539 20.4399C61.7539 20.5893 61.7932 20.7361 61.8679 20.8655L66.4975 28.8821C66.5717 29.0107 66.6784 29.1177 66.8068 29.1923C66.9352 29.267 67.0809 29.3067 67.2294 29.3076ZM67.723 13.2743H75.9949L80.1394 20.4229L76.0034 27.5885H67.7315L63.5955 20.4229L67.723 13.2743Z" fill="#383838"/>
<path d="M83.3995 27.6053C83.2052 27.4936 82.9746 27.4632 82.7579 27.5205C82.5412 27.5779 82.3558 27.7184 82.2422 27.9117L79.0593 33.4518H72.6596C72.4339 33.4518 72.2175 33.5415 72.0579 33.7011C71.8983 33.8607 71.8086 34.0771 71.8086 34.3028C71.8086 34.5286 71.8983 34.745 72.0579 34.9046C72.2175 35.0642 72.4339 35.1539 72.6596 35.1539H79.5529C79.7014 35.153 79.8471 35.1132 79.9755 35.0386C80.1039 34.9639 80.2105 34.857 80.2848 34.7284L83.6889 28.7712C83.8047 28.5781 83.8393 28.347 83.785 28.1285C83.7308 27.9099 83.5922 27.7218 83.3995 27.6053Z" fill="#383838"/>
</g>
<defs>
<clipPath id="clip0_5219_348">
<rect width="108.931" height="108.931" fill="white"/>
</clipPath>
</defs>
</svg>
