<svg xmlns="http://www.w3.org/2000/svg" width="114" height="61" fill="none" viewBox="0 0 114 61">
  <path stroke="currentColor" stroke-linecap="round" stroke-linejoin="round" stroke-miterlimit="10" stroke-width="2" d="M94.8 1.8h6.801c1.9 0 3.5 1.6 3.5 3.5v23.8c0 1.9-1.6 3.5-3.5 3.5h-6.8c-1.9 0-3.5-1.6-3.5-3.5V5.3c0-2 1.6-3.5 3.5-3.5ZM106 7.4h4c1.1 0 2.1 1.1 2.1 2.4v14.8c0 1.3-.9 2.4-2.1 2.4h-4m-62.9 5.6h-6.8c-1.9 0-3.5-1.6-3.5-3.5V5.3c0-1.9 1.6-3.5 3.5-3.5h6.8c1.9 0 3.5 1.6 3.5 3.5v23.8c0 1.9-1.6 3.5-3.5 3.5ZM32.002 27h-4c-1.1 0-2.1-1.1-2.1-2.4V9.8c0-1.3.9-2.4 2.1-2.4h4m15.4 4.301h43.2m-43.2 11h43.2m-78.5 11.901v11.4M76.5 49.3v3.9m0-9.499v1.3M70.204 28.5h6.8c1.9 0 3.5 1.6 3.5 3.5v23.8c0 1.9-1.6 3.5-3.5 3.5h-6.8c-1.9 0-3.5-1.6-3.5-3.5V32c-.1-2 1.5-3.5 3.5-3.5Zm11.101 5.6h4c1.1 0 2.1 1.1 2.1 2.4v14.8c0 1.3-.9 2.4-2.1 2.4h-4m-62.903 5.6h-6.8c-1.9 0-3.5-1.6-3.5-3.5V32c0-1.9 1.6-3.5 3.5-3.5h6.8c1.9 0 3.5 1.6 3.5 3.5v23.8c0 1.9-1.6 3.5-3.5 3.5ZM7.303 53.7h-4c-1.1 0-2.1-1.1-2.1-2.4V36.5c0-1.3.9-2.4 2.1-2.4h4m15.4 4.3h43.2m-43.2 11h43.2m34.999-43v8.3m-50.5 1.001h2.1m3.803 0h12"/>
</svg>
